<?xml version="1.0" standalone="no"?>
<!DOCTYPE svg PUBLIC "-//W3C//DTD SVG 20010904//EN"
 "http://www.w3.org/TR/2001/REC-SVG-20010904/DTD/svg10.dtd">
<svg version="1.0" xmlns="http://www.w3.org/2000/svg"
 width="276.000000pt" height="183.000000pt" viewBox="0 0 276.000000 183.000000"
 preserveAspectRatio="xMidYMid meet">

<g transform="translate(0.000000,183.000000) scale(0.100000,-0.100000)"
fill="#000000" stroke="none">
<path d="M1010 1507 c0 -16 72 -87 88 -87 20 0 14 12 -30 57 -44 45 -58 52
-58 30z"/>
<path d="M1625 1477 c-35 -32 -47 -49 -40 -56 8 -8 24 2 54 33 60 61 48 80
-14 23z"/>
<path d="M1120 1402 c0 -5 7 -16 16 -23 14 -12 16 -11 13 5 -4 20 -29 35 -29
18z"/>
<path d="M1553 1403 c-16 -6 -17 -33 -3 -33 11 0 26 28 19 34 -2 2 -10 1 -16
-1z"/>
<path d="M1165 1360 c-5 -8 24 -43 77 -95 l85 -84 -68 -67 c-66 -65 -68 -66
-100 -55 -37 13 -109 15 -109 3 0 -5 14 -21 30 -37 l30 -29 -50 -51 c-27 -28
-50 -55 -50 -61 0 -6 9 -19 20 -29 20 -18 21 -18 65 25 25 24 45 48 45 52 0
18 -27 6 -62 -29 -21 -20 -38 -33 -38 -27 0 5 20 30 45 54 l45 44 43 -42 c23
-23 46 -42 50 -42 10 0 9 98 -2 119 -8 14 3 31 60 87 l69 69 67 -67 c63 -63
66 -68 55 -93 -13 -29 -16 -115 -4 -115 4 0 26 18 47 40 21 22 44 40 50 40 16
0 97 -85 88 -93 -4 -4 -26 11 -49 34 -27 26 -44 37 -49 29 -4 -6 13 -30 39
-57 l46 -46 25 23 25 24 -55 56 -55 56 30 29 c16 16 30 32 30 37 0 12 -72 10
-110 -3 -32 -11 -33 -10 -98 55 l-67 66 83 83 c45 45 82 86 82 90 0 22 -34 -2
-105 -73 l-80 -80 -86 86 c-58 58 -89 82 -94 74z m-19 -320 c27 0 64 -47 64
-82 l0 -32 -55 54 c-55 54 -69 77 -39 66 9 -3 22 -6 30 -6z m399 -50 c-50 -51
-61 -58 -63 -41 -5 34 25 80 61 90 61 18 61 11 2 -49z"/>
<path d="M375 610 c0 -57 4 -80 13 -80 8 0 12 22 12 76 l0 76 40 -4 c22 -2 40
0 40 4 0 5 -24 8 -52 8 l-53 0 0 -80z"/>
<path d="M500 610 l0 -80 55 0 c30 0 55 3 55 8 0 4 -20 6 -44 4 l-45 -4 0 72
0 72 39 -4 c22 -2 40 0 40 4 0 5 -22 8 -50 8 l-50 0 0 -80z"/>
<path d="M675 680 c-55 -22 -66 -88 -21 -127 15 -12 39 -23 54 -22 25 0 25 1
-8 12 -23 8 -38 21 -44 40 -15 42 3 80 44 94 20 7 27 12 15 12 -11 0 -29 -4
-40 -9z"/>
<path d="M810 610 c0 -44 4 -80 9 -80 11 0 17 58 12 118 -6 73 -21 46 -21 -38z"/>
<path d="M900 610 c0 -64 3 -80 15 -80 12 0 15 16 15 80 0 64 -3 80 -15 80
-12 0 -15 -16 -15 -80z"/>
<path d="M950 681 c0 -4 11 -6 25 -3 25 4 25 4 25 -72 0 -44 4 -76 10 -76 6 0
10 31 10 74 0 74 0 75 28 79 15 2 -1 5 -35 6 -35 0 -63 -3 -63 -8z"/>
<path d="M1100 610 c0 -47 4 -80 10 -80 6 0 10 11 10 24 0 13 7 29 15 36 12
10 17 6 32 -24 9 -20 23 -36 30 -36 18 0 16 9 -11 55 l-25 40 25 33 c14 17 21
32 17 32 -4 0 -24 -24 -43 -52 l-35 -52 -3 52 c-5 82 -22 60 -22 -28z"/>
<path d="M1240 610 l0 -80 50 0 c28 0 50 3 50 8 0 4 -18 6 -41 4 l-41 -4 4 76
c2 56 0 76 -9 76 -9 0 -13 -23 -13 -80z"/>
<path d="M1360 610 c0 -64 3 -80 15 -80 12 0 15 16 15 80 0 64 -3 80 -15 80
-12 0 -15 -16 -15 -80z"/>
<path d="M1410 610 c0 -44 3 -80 8 -80 4 0 6 33 4 72 l-3 73 53 -72 c29 -40
56 -72 61 -73 4 0 7 36 7 80 0 44 -3 80 -7 80 -5 0 -7 -28 -5 -62 l4 -63 -47
63 c-64 85 -75 82 -75 -18z"/>
<path d="M1589 661 c-36 -36 -37 -73 -4 -106 17 -18 34 -25 57 -24 27 1 29 2
8 6 -38 7 -60 32 -60 70 0 38 29 73 60 73 12 0 32 -11 45 -25 17 -16 25 -19
25 -10 0 17 -50 45 -80 45 -12 0 -35 -13 -51 -29z"/>
<path d="M1740 610 l0 -80 55 0 c30 0 55 3 55 8 0 4 -20 6 -44 4 l-45 -4 0 72
0 72 39 -4 c22 -2 40 0 40 4 0 5 -22 8 -50 8 l-50 0 0 -80z"/>
<path d="M1872 608 l2 -83 5 68 6 69 50 -69 c40 -55 51 -64 53 -47 2 13 -7 33
-21 48 -14 15 -35 42 -48 61 -39 57 -49 46 -47 -47z"/>
<path d="M1980 675 c0 -8 2 -15 4 -15 2 0 6 7 10 15 3 8 1 15 -4 15 -6 0 -10
-7 -10 -15z"/>
<path d="M2060 610 l0 -80 44 0 c61 0 96 29 96 79 0 24 -7 44 -18 54 -26 24
-36 21 -18 -5 34 -49 8 -118 -45 -118 l-29 0 0 69 c0 68 1 70 28 74 19 3 14 4
-15 6 l-43 1 0 -80z"/>
<path d="M2225 610 l0 -80 55 2 c50 1 51 2 13 5 l-43 4 0 71 0 70 40 -4 c22
-2 40 0 40 4 0 5 -24 8 -52 8 l-53 0 0 -80z"/>
<path d="M755 660 c10 -11 20 -18 23 -15 7 6 -18 35 -31 35 -5 0 -2 -9 8 -20z"/>
<path d="M566 611 c-4 -7 -5 -15 -2 -18 9 -9 19 4 14 18 -4 11 -6 11 -12 0z"/>
<path d="M1806 611 c-4 -7 -5 -15 -2 -18 9 -9 19 4 14 18 -4 11 -6 11 -12 0z"/>
<path d="M435 600 c3 -5 8 -10 11 -10 2 0 4 5 4 10 0 6 -5 10 -11 10 -5 0 -7
-4 -4 -10z"/>
<path d="M2285 600 c3 -5 8 -10 11 -10 2 0 4 5 4 10 0 6 -5 10 -11 10 -5 0 -7
-4 -4 -10z"/>
<path d="M1688 570 c-3 -23 -1 -30 11 -30 11 0 16 10 17 30 1 40 -22 39 -28 0z"/>
<path d="M2020 540 c0 -5 5 -10 10 -10 6 0 10 5 10 10 0 6 -4 10 -10 10 -5 0
-10 -4 -10 -10z"/>
<path d="M1472 429 c-10 -25 -3 -89 9 -89 5 0 9 13 9 29 0 16 6 32 13 34 10 4
10 6 0 6 -7 1 -13 7 -13 15 0 8 6 17 13 19 7 3 5 6 -6 6 -10 1 -21 -8 -25 -20z"/>
<path d="M1805 395 c0 -30 3 -55 8 -55 4 0 7 25 7 55 0 30 -3 55 -7 55 -5 0
-8 -25 -8 -55z"/>
<path d="M768 390 c5 -65 22 -65 22 0 0 33 -4 50 -12 50 -9 0 -12 -15 -10 -50z"/>
<path d="M815 430 c3 -5 8 -10 11 -10 2 0 4 5 4 10 0 6 -5 10 -11 10 -5 0 -7
-4 -4 -10z"/>
<path d="M1085 430 c3 -5 8 -10 11 -10 2 0 4 5 4 10 0 6 -5 10 -11 10 -5 0 -7
-4 -4 -10z"/>
<path d="M1340 390 l0 -50 35 0 c19 0 35 4 35 9 0 4 -11 6 -25 3 -24 -4 -25
-2 -25 42 0 25 -4 46 -10 46 -5 0 -10 -22 -10 -50z"/>
<path d="M1425 430 c3 -5 8 -10 11 -10 2 0 4 5 4 10 0 6 -5 10 -11 10 -5 0 -7
-4 -4 -10z"/>
<path d="M1669 418 c-3 -32 3 -74 12 -83 6 -6 7 3 3 24 -4 19 -3 36 3 40 7 4
6 11 -3 19 -11 10 -14 10 -15 0z"/>
<path d="M847 404 c-15 -16 -6 -54 16 -65 18 -9 20 -9 10 2 -19 19 -16 29 8
29 14 0 19 5 17 18 -3 17 -38 29 -51 16z m33 -14 c0 -5 -4 -10 -10 -10 -5 0
-10 5 -10 10 0 6 5 10 10 10 6 0 10 -4 10 -10z"/>
<path d="M920 374 c0 -40 17 -46 22 -7 4 39 28 42 28 4 0 -17 5 -31 11 -31 6
0 9 14 7 33 -3 28 -7 32 -35 34 -31 1 -33 -1 -33 -33z"/>
<path d="M1017 403 c-4 -3 -7 -17 -7 -29 0 -28 30 -47 51 -32 11 8 11 9 -3 5
-21 -7 -42 17 -34 39 4 10 13 14 26 11 11 -3 18 -1 14 4 -6 10 -38 12 -47 2z"/>
<path d="M1088 375 c2 -19 6 -35 8 -35 2 0 4 16 4 35 0 19 -4 35 -8 35 -4 0
-6 -16 -4 -35z"/>
<path d="M1130 375 c0 -19 5 -35 10 -35 6 0 10 16 10 35 0 19 -4 35 -10 35 -5
0 -10 -16 -10 -35z"/>
<path d="M1168 398 c7 -7 12 -22 12 -35 0 -13 4 -23 8 -23 4 0 6 16 4 35 -3
24 -9 35 -20 35 -12 0 -13 -3 -4 -12z"/>
<path d="M1227 403 c-3 -5 -7 -28 -8 -53 -4 -44 -3 -45 26 -45 38 0 48 31 13
40 -28 7 -38 55 -12 55 11 0 15 -6 11 -20 -3 -11 -1 -20 4 -20 5 0 9 3 10 8 0
4 2 15 4 25 2 12 -3 17 -20 17 -13 0 -26 -3 -28 -7z m43 -83 c0 -5 -9 -10 -20
-10 -11 0 -20 5 -20 10 0 6 9 10 20 10 11 0 20 -4 20 -10z"/>
<path d="M1428 375 c2 -19 6 -35 8 -35 2 0 4 16 4 35 0 19 -4 35 -8 35 -4 0
-6 -16 -4 -35z"/>
<path d="M1520 395 c-24 -29 18 -81 44 -55 7 7 7 11 1 10 -20 -4 -35 0 -35 10
0 6 12 10 26 10 20 0 25 4 20 16 -3 9 -6 18 -6 20 0 10 -39 2 -50 -11z m40 -5
c0 -5 -7 -10 -15 -10 -8 0 -15 5 -15 10 0 6 7 10 15 10 8 0 15 -4 15 -10z"/>
<path d="M1594 398 c-4 -7 2 -18 14 -26 28 -19 28 -35 1 -27 -15 5 -19 4 -15
-4 10 -15 31 -14 46 3 9 12 7 17 -9 28 -24 15 -28 33 -6 24 8 -3 15 -1 15 4 0
14 -37 12 -46 -2z"/>
<path d="M1720 406 c0 -2 6 -19 14 -38 15 -35 12 -51 -14 -61 -12 -4 -12 -6 2
-6 10 -1 24 12 33 29 17 34 19 44 5 35 -5 -3 -12 6 -16 20 -3 14 -10 25 -15
25 -5 0 -9 -2 -9 -4z"/>
<path d="M1770 395 c0 -8 2 -15 4 -15 2 0 6 7 10 15 3 8 1 15 -4 15 -6 0 -10
-7 -10 -15z"/>
<path d="M1852 398 c-19 -19 -14 -46 9 -59 16 -8 24 -8 33 1 6 6 7 11 1 10
-20 -4 -35 0 -35 10 0 6 8 10 18 10 24 0 32 8 25 26 -6 17 -35 18 -51 2z m38
-8 c0 -5 -7 -10 -15 -10 -8 0 -15 5 -15 10 0 6 7 10 15 10 8 0 15 -4 15 -10z"/>
<path d="M805 390 c-3 -5 -1 -10 4 -10 6 0 11 5 11 10 0 6 -2 10 -4 10 -3 0
-8 -4 -11 -10z"/>
</g>
</svg>
