<?xml version="1.0" encoding="utf-8" standalone="no"?><!-- Generator: $$$/GeneralStr/196=Adobe Illustrator 27.6.0, SVG Export Plug-In . SVG Version: 6.00 Build 0)  --><svg xmlns="http://www.w3.org/2000/svg" xmlns:xlink="http://www.w3.org/1999/xlink" height="221" id="Ebene_1" style="enable-background:new 0 0 163.7 103.6;" version="1.1" viewBox="0 0 163.7 103.6" width="350" x="0px" xml:space="preserve" y="0px">
<style type="text/css">
	.st0{fill:#141215;}
	.st1{fill:#00529A;}
	.st2{fill:#003380;}
	.st3{fill:#00A4DA;}
	.st4{enable-background:new    ;}
</style>
<path class="st0" d="M28,37.7c-2.7-2.1-5-4.5-7-7.3c-1.2-1.8-1.8-3.9-1.8-6.1c0-4.6,2.3-5.2,4.2-5.2  c1.2-0.1,2.3,0.3,3.1,1.2c0.7,0.8,1.1,2.2,1.1,4.2V29H40v-3.9c0-5.6-1.4-10-4.2-13.1c-2.8-3-7-4.6-12.5-4.6S13.5,9,10.6,12  c-2.9,3.1-4.4,7.4-4.4,12.9C6.1,28.7,7.1,32.5,9,35.8c1.8,3.1,5,6.7,9.5,10.5c2.7,2.1,5,4.6,7,7.3c1.2,2,1.8,4.4,1.8,6.7  c0,2-0.4,3.5-1.1,4.3c-0.9,0.9-2.1,1.3-3.3,1.2c-2.1,0-4.4-0.6-4.4-5.3v-5.6H6v4.9c0,5.6,1.4,10,4.3,13.1s7.1,4.7,12.6,4.7  c5.6,0,9.9-1.6,12.9-4.7s4.5-7.5,4.5-13.2c0.1-4-0.8-7.9-2.7-11.4C35.8,45.1,32.6,41.5,28,37.7" id="Pfad_3310"/>
<path class="st0" d="M88,8.4l-3.9,41L80,8.4H66.3l-4.1,41l-3.9-41H45.7l7.2,68.3h16.3l3.9-36l3.9,36h15.4l7.2-68.2  L88,8.4z" id="Pfad_3311"/>
<rect class="st0" height="68.2" id="Rechteck_658" width="13.8" x="107.2" y="8.6"/>
<path class="st1" d="M156.5,8.6h-17.7l-21.7,34.1l8.2,12.8L156.5,8.6z" id="Pfad_3307"/>
<path class="st2" d="M117.1,42.7l21.7,34.1h17.7l-31.3-46.9L117.1,42.7z" id="Pfad_3308"/>
<path class="st3" d="M117.1,42.6l8.2-12.8l8.6,12.8l-8.6,12.8L117.1,42.6z" id="Pfad_3309"/>
<g class="st4">
	<path class="st0" d="M6.8,97C6.3,96.4,6,95.5,6,94.4v-0.8h2.1v1c0,0.9,0.4,1.4,1.2,1.4c0.4,0,0.7-0.1,0.9-0.3s0.3-0.6,0.3-1.1   c0-0.6-0.1-1.1-0.4-1.6c-0.3-0.5-0.8-1-1.5-1.6c-0.9-0.8-1.6-1.5-1.9-2.2C6.2,88.4,6,87.7,6,86.9c0-1.1,0.3-2,0.9-2.6   c0.6-0.6,1.4-0.9,2.5-0.9c1.1,0,1.9,0.3,2.4,0.9c0.5,0.6,0.8,1.5,0.8,2.6v0.6h-2.1v-0.7c0-0.5-0.1-0.8-0.3-1.1   c-0.2-0.2-0.5-0.3-0.8-0.3c-0.7,0-1.1,0.5-1.1,1.4c0,0.5,0.1,1,0.4,1.4c0.3,0.4,0.8,1,1.5,1.6c0.9,0.8,1.6,1.5,1.9,2.2   s0.5,1.4,0.5,2.3c0,1.2-0.3,2.1-0.9,2.7c-0.6,0.6-1.4,0.9-2.5,0.9C8.2,98,7.4,97.6,6.8,97z"/>
</g>
<g class="st4">
	<path class="st0" d="M16.3,85.6h-2.3v-2h6.9v2h-2.3v12.2h-2.2V85.6z"/>
</g>
<g class="st4">
	<path class="st0" d="M23.6,83.5h3L29,97.8h-2.2l-0.4-2.8v0h-2.5l-0.4,2.8h-2.1L23.6,83.5z M26,93l-1-7h0l-1,7H26z"/>
</g>
<g class="st4">
	<path class="st0" d="M30.9,83.5h3.4c1.1,0,1.9,0.3,2.5,0.9c0.6,0.6,0.8,1.5,0.8,2.6v7.2c0,1.2-0.3,2-0.8,2.6   c-0.6,0.6-1.4,0.9-2.5,0.9h-3.4V83.5z M34.3,95.7c0.4,0,0.6-0.1,0.8-0.3c0.2-0.2,0.3-0.6,0.3-1.1V87c0-0.5-0.1-0.8-0.3-1.1   c-0.2-0.2-0.5-0.3-0.8-0.3h-1.1v10.2H34.3z"/>
</g>
<g class="st4">
	<path class="st0" d="M41.7,85.6h-2.3v-2h6.9v2h-2.3v12.2h-2.2V85.6z"/>
</g>
<g class="st4">
	<path class="st0" d="M47.8,83.5h2.2l1,10.9h0L52,83.5h2.4l1.1,10.9h0l1-10.9h1.9L57,97.8h-2.8l-1-9.6h0l-1,9.6h-3L47.8,83.5z"/>
	<path class="st0" d="M59.6,83.5h6.1v2h-3.9v3.8h3.1v2h-3.1v4.4h3.9v2h-6.1V83.5z"/>
</g>
<g class="st4">
	<path class="st0" d="M68.8,83.5h3.3c1.2,0,2,0.3,2.5,0.8s0.8,1.4,0.8,2.5v0.9c0,1.5-0.5,2.4-1.5,2.8v0c0.5,0.2,0.9,0.5,1.1,1   c0.2,0.5,0.3,1.2,0.3,2V96c0,0.4,0,0.7,0,1c0,0.3,0.1,0.5,0.2,0.7h-2.3c-0.1-0.2-0.1-0.4-0.2-0.6c0-0.2,0-0.6,0-1.1v-2.6   c0-0.6-0.1-1.1-0.3-1.4c-0.2-0.3-0.6-0.4-1.1-0.4H71v6.1h-2.2V83.5z M71.8,89.6c0.4,0,0.8-0.1,1-0.3c0.2-0.2,0.3-0.6,0.3-1.2V87   c0-0.5-0.1-0.9-0.3-1.1c-0.2-0.2-0.5-0.3-0.9-0.3h-1v4.1H71.8z"/>
</g>
<g class="st4">
	<path class="st0" d="M77.8,83.5h2.2v6l2.8-6h2.2l-2.7,5.2l2.7,9h-2.3L81,91.4l-0.9,1.8v4.5h-2.2V83.5z"/>
	<path class="st0" d="M86.2,83.5h6.1v2h-3.9v3.8h3.1v2h-3.1v4.4h3.9v2h-6.1V83.5z"/>
</g>
<g class="st4">
	<path class="st0" d="M99.5,83.5h2.2v6l2.8-6h2.2l-2.7,5.2l2.7,9h-2.3l-1.9-6.3l-0.9,1.8v4.5h-2.2V83.5z"/>
</g>
<g class="st4">
	<path class="st0" d="M109.2,97c-0.6-0.6-0.9-1.5-0.9-2.6v-7.5c0-1.1,0.3-2,0.9-2.6c0.6-0.6,1.4-0.9,2.5-0.9c1.1,0,1.9,0.3,2.5,0.9   c0.6,0.6,0.9,1.5,0.9,2.6v7.5c0,1.1-0.3,2-0.9,2.6c-0.6,0.6-1.4,0.9-2.5,0.9C110.6,98,109.8,97.6,109.2,97z M112.9,94.5v-7.8   c0-0.9-0.4-1.4-1.2-1.4s-1.2,0.5-1.2,1.4v7.8c0,0.9,0.4,1.4,1.2,1.4S112.9,95.5,112.9,94.5z"/>
</g>
<g class="st4">
	<path class="st0" d="M117.5,83.5h3.4c1.2,0,2,0.3,2.5,0.8c0.5,0.5,0.8,1.4,0.8,2.5v0.6c0,0.7-0.1,1.3-0.4,1.8   c-0.2,0.5-0.6,0.8-1.1,1v0c1.1,0.4,1.7,1.4,1.7,3v1.2c0,1.1-0.3,1.9-0.9,2.5c-0.6,0.6-1.4,0.9-2.5,0.9h-3.5V83.5z M120.6,89.3   c0.4,0,0.8-0.1,1-0.3c0.2-0.2,0.3-0.6,0.3-1.2V87c0-0.5-0.1-0.9-0.3-1.1s-0.5-0.3-0.9-0.3h-1.1v3.8H120.6z M121,95.7   c0.4,0,0.7-0.1,0.9-0.3s0.3-0.6,0.3-1.1v-1.2c0-0.6-0.1-1.1-0.3-1.3c-0.2-0.3-0.6-0.4-1.1-0.4h-1v4.4H121z"/>
	<path class="st0" d="M125.7,83.5h2.2v12.2h3.7v2h-5.9V83.5z"/>
	<path class="st0" d="M132.7,83.5h6.1v2h-3.9v3.8h3.1v2h-3.1v4.4h3.9v2h-6.1V83.5z"/>
	<path class="st0" d="M140,83.5h2.8L145,92h0v-8.5h2v14.2h-2.3l-2.7-10.4h0v10.4h-2V83.5z"/>
</g>
<g class="st4">
	<path class="st0" d="M148.8,95.8l4.1-10.2H149v-2h6.3v2l-4.1,10.2h4.1v2h-6.5V95.8z"/>
</g>
<g class="st4">
	<path class="st0" d="M157.7,95.6h2.2v2.2h-2.2V95.6z"/>
</g>
</svg>