<?xml version="1.0" encoding="UTF-8"?>
<svg id="Ebene_1" data-name="Ebene 1" xmlns="http://www.w3.org/2000/svg" viewBox="0 0 1000 537">
  <defs>
    <style>
      .cls-1 {
        fill: #eb0000;
      }
    </style>
  </defs>
  <path class="cls-1" d="M273.21,238.75c-.01,11.69-8.19,19.59-19.12,21.64l-98.88-.37c-10.48-.04-17.81-10.47-18.79-19.68l-.03-11.46,104.49.16.28-14.07h-104.95s.09-50.78.09-50.78c.02-12.67,10.26-22.36,22.94-22.41l91.86.14c11.68.02,20.46,8.29,21.95,19.45l.23,12.4-104.75-.2-.29,13.92,105.03.09-.06,51.16Z"/>
  <path class="cls-1" d="M364.51,354.99c15.32,13.08,27.66,27.43,37.87,44.15l-14.38.12c-9.68-14.3-20.86-26.95-34.28-38.52l-.42,38.54c-4.18-.07-7.62-.08-11.56.46l-.04-82.13,11.49-.27.6,33.8,30.77-33.63,14.62-.09-34.67,37.56Z"/>
  <path class="cls-1" d="M377.05,259.66c-13.48,4.31-27.8,2.37-40.83-2.59l2.98-9.64c12.16,4.91,31.4,7.74,37.22-.89,2.42-3.58,3.17-8.38,1.49-12.5-2.02-4.97-8.21-7.45-13.06-9.41l-14.92-6.02c-7.61-3.07-11.19-9.36-11.67-17.49-.63-10.71,5.69-19.68,16.51-22.5,10.29-2.68,21.21-1.62,31.38,1.39l.47,10.37c-15.7-5.06-36.07-6.53-36.78,8.3-.86,18.11,42.61,10.29,41.58,40.58-.3,8.96-4.92,17.38-14.38,20.4Z"/>
  <path class="cls-1" d="M603.32,227c11.18,8.84,19.89,21.98,27.93,33.12l-14.4.26c-7.2-9.95-14.46-19.51-24-28.91l-.56,28.7-11.17-.03.1-86.43,11,.09.74,50.01,21.59-22.51c4.6-.63,8.88-.63,13.82.04l-25.04,25.66Z"/>
  <path class="cls-1" d="M672.56,348.22c-9.5-.65-16.47,6.97-16.49,15.98l-.07,35.13-11.4.5-.07-60.19,10.86-.02c.37,2.19-.75,4.6.81,7.11,8.11-9.78,23.17-11.22,32.59-3.18,3.02,2.58,4.86,8.08,4.88,11.78l.26,43.97-11.44.55-.08-40.66c-.01-5.71-3.27-10.53-9.86-10.97Z"/>
  <path class="cls-1" d="M199.16,83.07c13.41-3.08,24.85,4.87,27.72,16.97s-4.75,24.42-16.96,27.32-24-4.38-27.26-16.25,3.67-25.09,16.51-28.04Z"/>
  <path class="cls-1" d="M754.81,399.5l-47.03.04c-.1-2.79-1.33-6.96.33-9.49,9.56-14.66,20.1-27.72,31.56-41.29l-30.89-.73-.08-8.46,44.45-.1c.08,2.64,1.05,6.93-.07,9.63-11.23,13.36-22.22,26.17-32.48,41.17l34.15.23.07,9Z"/>
  <path class="cls-1" d="M698.6,258.11l2.46-8.52c13.04,3.53,29.61,5.87,31-4.16.49-3.53-1.56-6.48-5.38-7.84l-16.72-5.99c-6.53-2.34-9.86-7.49-9.94-14.42-.09-8.29,4.78-14.29,13-16.35,8.84-2.21,18.26-1.29,27.04,1.17l-.07,9.32c-13-3.62-29.12-4.91-28.81,5.34.33,11.1,35.3,5.41,32.35,29.9-2.1,17.43-27.01,17.59-44.93,11.54Z"/>
  <path class="cls-1" d="M753.98,257.85l2.7-8.72c12.48,5.02,30.45,5.75,30.75-4.4.1-3.31-1.3-5.78-4.79-7.03l-16.92-6.08c-4.31-1.55-8.27-4.99-9.42-9.21-2.89-10.65,2.76-19.92,13.35-21.89,8.48-1.57,17.28-.94,25.5,1.39v9.42c-10.69-3.38-26.34-4.46-28.11,2.46-.85,3.31.27,6.71,3.64,8.02l20.9,8.1c6.64,2.58,8.49,10.42,7.33,17.35-2.81,16.78-27.83,17.13-44.93,10.57Z"/>
  <polygon class="cls-1" points="549.84 399.76 549.78 320.93 542.07 320.16 542.21 312.37 561.21 312.27 561.24 399.23 549.84 399.76"/>
  <path class="cls-1" d="M569.68,211.52c-11.64-1.91-20.81,5.51-20.96,16.65l-.43,32.03h-11.05s.07-59.66.07-59.66l10.44.04,1.06,10.42c4.88-7.72,12.08-11.87,20.92-10.28l-.05,10.81Z"/>
  <path class="cls-1" d="M454.8,210.58c-3.35-7.24-10.97-10.61-18.05-10.88-7.35-.28-14.44,2.03-18.42,8.61-1.39-3.26-.66-5.43-1.1-7.86-3.92.56-6.89.9-10.76.05l-.09,83.67,11.64.05-.02-26.63c14.96,8.36,33.59,3.79,38.21-11.39,3.56-11.69,3.72-24.51-1.42-35.62ZM440.06,249.59c-6.85,5.19-16.26,3.26-21.96-2.36-.81-14.36-1.56-33.78,10.43-37.3,8.26-2.43,15.05,2.38,16.84,10.1,2.24,9.66,1.57,24.36-5.3,29.57Z"/>
  <path class="cls-1" d="M528.78,350.78c-3.55-8.17-11.17-12.22-19.51-12.41-7.15-.17-12.5,2.31-17.9,7.59l-.1-33.6-11.4.38.2,86.49h10.17c.82-.69.96-2.56,1.17-4.25,4.53,4.09,9.72,5.6,15.79,5.57,10.15-.06,18.88-5.28,22.4-15.55,3.85-11.22,3.7-23.82-.82-34.22ZM508.96,390.62c-6.61,1.71-13.46-.08-17.42-5.94-.42-8.8-.69-17.43,1.01-26.04,1.62-4.75,5.12-8.81,8.88-9.92,5.32-1.57,11.31-.58,14.34,3.81,7.21,10.45,5.85,35.11-6.81,38.09Z"/>
  <path class="cls-1" d="M459.61,352.01c-4.67-9.95-14-14.02-24.4-13.79-11.79.26-20.65,6.58-24.13,18.13-3.04,10.1-2.81,21.93,2.41,31.45,4.75,8.65,13.14,13.11,22.3,13.09,8.9-.02,18.09-3.85,22.91-12.7,6.2-11.4,6.1-25.11.9-36.17ZM437.64,391.6c-4.81.43-9.86-.89-12.46-5.49-5.25-9.27-5.16-21.22-1.15-30.97,2.27-5.52,7.42-8.4,12.57-7.96,5.58.48,10.42,3.41,12.42,9.37,4.61,13.76,2.69,33.78-11.37,35.05Z"/>
  <path class="cls-1" d="M683.56,215.87c-.12-17.69-23.75-18.91-41.18-13.49-.94,2.89-1.2,6.03-.12,9.11,8.78-2.93,18.26-4.98,26.54-.84,4.14,2.06,4.21,8.47,3.21,12.27-7.94,0-15.87.03-22.97,2.85-8.65,3.43-12.54,10.64-12.05,19.38.56,9.96,6.99,16.85,17.81,16.38,6.58-.29,12.6-1.11,17.21-5.51l1.95,4.43,9.89-.17-.29-44.42ZM671.81,246.92c-2.32,5.88-13.08,7.41-18.12,5.18-4.94-2.19-5.46-6.62-5.08-11.05.36-4.19,3.83-8.45,8.67-8.77l15.18-1.02c-.62,4.7,1.47,10.31-.64,15.65Z"/>
  <path class="cls-1" d="M626.3,352.16c-3.04-9.22-10.77-13.42-20.07-13.93-12.66-.7-23.11,6.19-26.52,18.67-1.9,6.97-2.14,14.39-.85,21.71,2.13,12.11,11.59,21.12,23.91,22.06,7.47.57,14.68-.04,21.75-2.06l-1.97-8.62c-6.99,1.25-13.61,2.69-20.56.87-8.2-2.15-11.61-9.8-11.64-17.79l37.76.05c.59-7.25.38-14.28-1.81-20.95ZM616.27,365.03l-26.07.08c-.29-8,2.95-16.16,9.88-17.86,5.65-1.39,11.22-.24,14.17,4.83,2.09,3.59,2.46,7.85,2.01,12.95Z"/>
  <path class="cls-1" d="M517.77,215.6c-.1-17.92-24.85-18.59-41.65-12.96l.26,8.89c8.56-2.66,17.45-4.91,25.88-1.31,4.58,1.96,5.57,8.81,4.12,12.64-17.57-.56-34.62,3.02-35.07,19.97-.16,6.04,1.73,13.34,8.14,16.55,9.09,4.55,19.63,2.32,27.24-3.26l1.2,4.81c3.31-.73,6.19-.16,10.14-.11l-.25-45.21ZM506.89,247.68c-5.12,4.63-12.94,6.79-19.15,4.14-3.98-1.7-5-5.48-4.91-9.12.27-11.04,11.63-11.83,24.24-11.46l-.19,16.44Z"/>
  <path class="cls-1" d="M841.85,199.54c-11.5-1.21-22.02,3.66-26.69,14.78-3.62,8.61-3.93,18.49-1.79,27.72,4.62,19.86,25.04,22.67,44.8,18.05.06-3.24-.63-6.18-2.01-8.85-7.67,1.69-15.55,3.37-23.22-.41-6.24-3.07-8.48-10.14-8.67-16.56l37.99-.05c1.71-17.65-2.77-32.83-20.41-34.69ZM850.2,226.04l-24.91-.19c-2.11-.02-1.13-12.08,6.21-16.22,4.5-2.54,10.71-2.53,14.4.73,4.3,3.8,5.08,9.21,4.29,15.68Z"/>
</svg>