<?xml version="1.0" encoding="UTF-8" standalone="no"?>
<svg
   xmlns:dc="http://purl.org/dc/elements/1.1/"
   xmlns:cc="http://creativecommons.org/ns#"
   xmlns:rdf="http://www.w3.org/1999/02/22-rdf-syntax-ns#"
   xmlns:svg="http://www.w3.org/2000/svg"
   xmlns="http://www.w3.org/2000/svg"
   viewBox="0 0 378.66666 177.33333"
   height="177.33333"
   width="378.66666"
   xml:space="preserve"
   id="svg2"
   version="1.1"><metadata
     id="metadata8"><rdf:RDF><cc:Work
         rdf:about=""><dc:format>image/svg+xml</dc:format><dc:type
           rdf:resource="http://purl.org/dc/dcmitype/StillImage" /></cc:Work></rdf:RDF></metadata><defs
     id="defs6" /><g
     transform="matrix(1.3333333,0,0,-1.3333333,0,177.33333)"
     id="g10"><g
       transform="scale(0.1)"
       id="g12"><path
         id="path14"
         style="fill:#ffffff;fill-opacity:1;fill-rule:nonzero;stroke:none"
         d="M 2840,383.328 H 0 V 1330 H 2840 V 383.328" /><path
         id="path16"
         style="fill:#ed1c24;fill-opacity:1;fill-rule:nonzero;stroke:none"
         d="m 2384.53,783.578 59.7,243.082 54.2,-243.082 z m 8.78,348.192 -151.65,-550.188 h 95.25 l 27.93,118.246 h 153.34 l 27.89,-118.246 h 103.47 l -154.38,550.188 h -101.85" /><path
         id="path18"
         style="fill:#ed1c24;fill-opacity:1;fill-rule:nonzero;stroke:none"
         d="m 2079.98,1043.08 h 26.27 c 80.49,0 101.84,-19.7 101.84,-95.252 0,-78.84 -21.35,-100.187 -103.49,-100.187 h -24.62 z m 19.7,88.69 H 1983.07 V 581.582 h 96.91 V 762.23 h 18.07 c 134.65,0 205.3,41.075 205.3,185.598 0,142.892 -60.78,183.942 -203.67,183.942" /><path
         id="path20"
         style="fill:#ed1c24;fill-opacity:1;fill-rule:nonzero;stroke:none"
         d="M 1943.83,1131.77 H 1682.7 V 581.582 h 269.33 v 88.676 H 1777.92 V 819.73 h 157.72 v 88.672 h -157.72 v 134.678 h 165.91 v 88.69" /><path
         id="path22"
         style="fill:#ed1c24;fill-opacity:1;fill-rule:nonzero;stroke:none"
         d="m 1211.96,1131.77 h -100.18 l 85.41,-550.188 h 108.4 l 73.9,415.523 c 8.21,-54.21 21.35,-136.328 39.42,-238.164 l 32.84,-177.359 h 116.62 l 82.1,550.188 h -96.9 l -19.69,-152.743 c -14.79,-108.398 -21.36,-177.382 -27.93,-261.132 -9.86,72.265 -26.27,185.585 -42.71,270.996 l -26.3,142.879 h -108.37 l -73.9,-408.954 c -4.94,95.254 -14.78,198.731 -24.65,270.997 l -18.06,137.957" /><path
         id="path24"
         style="fill:#ed1c24;fill-opacity:1;fill-rule:nonzero;stroke:none"
         d="M 2779.86,443.477 H 946.688 V 1269.86 H 2779.86 Z M 2840,1330 H 0 V 383.328 H 2840 V 1330" /><path
         id="path26"
         style="fill:#ed1c24;fill-opacity:1;fill-rule:nonzero;stroke:none"
         d="m 0,251.848 h 61.6406 c 42.8754,0 65.6564,-23.43 65.6564,-73.032 V 83.0352 C 127.297,33.457 104.516,10 61.6406,10 H 0 Z M 41.5391,44.1992 h 14.414 c 22.0938,0 29.8125,8.3594 29.8125,33.7891 V 183.855 c 0,25.461 -7.7187,33.84 -29.8125,33.84 H 41.5391 V 44.1992" /><path
         id="path28"
         style="fill:#ed1c24;fill-opacity:1;fill-rule:nonzero;stroke:none"
         d="m 171.992,10 v 241.848 h 41.531 V 10 h -41.531" /><path
         id="path30"
         style="fill:#ed1c24;fill-opacity:1;fill-rule:nonzero;stroke:none"
         d="M 263.949,10 V 251.848 H 375.16 v -36.184 h -69.68 v -62.297 h 53.59 V 117.195 H 305.48 V 46.1719 h 74.36 V 10 H 263.949" /><path
         id="path32"
         style="fill:#ed1c24;fill-opacity:1;fill-rule:nonzero;stroke:none"
         d="m 533.262,10 h -39.117 l 46.277,241.848 h 51.594 L 638.285,10 H 598.09 l -8.379,48.7109 h -48.164 z m 13.269,84.8828 h 37.137 l -18.84,111.8162 z" /><path
         id="path34"
         style="fill:#ed1c24;fill-opacity:1;fill-rule:nonzero;stroke:none"
         d="m 2239.45,10 h -39.12 l 46.27,241.848 h 51.6 L 2344.47,10 h -40.19 l -8.38,48.7109 h -48.17 z m 13.26,84.8828 h 37.15 l -18.84,111.8162 z" /><path
         id="path36"
         style="fill:#ed1c24;fill-opacity:1;fill-rule:nonzero;stroke:none"
         d="m 669.871,10 v 241.848 h 57.5 c 51.258,0 73.981,-25.285 73.981,-76.899 0,-51.609 -29.743,-76.9138 -73.981,-76.9138 H 711.41 V 10 Z m 41.539,122.227 h 13.942 c 27.144,0 34.476,13.906 34.476,42.722 0,28.801 -7.332,42.746 -34.476,42.746 H 711.41 v -85.468" /><path
         id="path38"
         style="fill:#ed1c24;fill-opacity:1;fill-rule:nonzero;stroke:none"
         d="m 829.555,193.215 c 0,34.168 20.101,61.988 63.648,61.988 43.543,0 63.656,-27.82 63.656,-61.988 V 68.6133 c 0,-34.1797 -20.113,-61.96486 -63.656,-61.96486 -43.547,0 -63.648,27.78516 -63.648,61.96486 z M 871.086,69.6094 c 0,-18.0547 5.391,-26.7774 22.117,-26.7774 16.742,0 22.125,8.7227 22.125,26.7774 V 192.195 c 0,18.118 -5.383,26.828 -22.125,26.828 -16.726,0 -22.117,-8.71 -22.117,-26.828 V 69.6094" /><path
         id="path40"
         style="fill:#ed1c24;fill-opacity:1;fill-rule:nonzero;stroke:none"
         d="m 1025.27,215.664 h -42.278 v 36.184 h 126.128 v -36.184 h -42.3 V 10 h -41.55 v 205.664" /><path
         id="path42"
         style="fill:#ed1c24;fill-opacity:1;fill-rule:nonzero;stroke:none"
         d="m 1143.94,10 v 241.848 h 41.52 v -98.481 h 44.23 v 98.481 h 41.53 V 10 h -41.53 v 107.195 h -44.23 V 10 h -41.52" /><path
         id="path44"
         style="fill:#ed1c24;fill-opacity:1;fill-rule:nonzero;stroke:none"
         d="m 1324.76,10 v 241.848 h 110.85 v -36.184 h -69.33 v -62.297 h 53.36 v -36.172 h -53.36 V 46.1719 h 73.99 V 10 h -115.51" /><path
         id="path46"
         style="fill:#ed1c24;fill-opacity:1;fill-rule:nonzero;stroke:none"
         d="M 1525.12,125.891 V 10 h -41.53 v 241.848 h 41.53 V 144.844 l 49.39,107.004 h 39.47 L 1561.66,139.094 1620.74,10 h -44.29 l -51.33,115.891" /><path
         id="path48"
         style="fill:#ed1c24;fill-opacity:1;fill-rule:nonzero;stroke:none"
         d="M 2602.42,125.891 V 10 h -41.52 v 241.848 h 41.52 V 144.844 l 49.4,107.004 h 39.47 L 2638.96,139.094 2698.05,10 h -44.29 l -51.34,115.891" /><path
         id="path50"
         style="fill:#ed1c24;fill-opacity:1;fill-rule:nonzero;stroke:none"
         d="m 1649.5,10 v 241.848 h 111.21 v -36.184 h -69.62 v -62.297 h 53.58 v -36.172 h -53.58 V 46.1719 h 74.32 V 10 H 1649.5" /><path
         id="path52"
         style="fill:#ed1c24;fill-opacity:1;fill-rule:nonzero;stroke:none"
         d="m 1807.56,10 v 241.848 h 36.46 l 60.57,-143.332 v 143.332 h 37.54 V 10 h -34.14 l -62.95,156.055 V 10 h -37.48" /><path
         id="path54"
         style="fill:#ed1c24;fill-opacity:1;fill-rule:nonzero;stroke:none"
         d="M 2165.55,251.848 V 10 h -36.17 V 163.328 L 2090.18,51.7578 H 2070.1 L 2032.91,163.328 V 10 h -36.13 v 241.848 h 41.05 l 42.62,-131.926 44.02,131.926 h 41.08" /><path
         id="path56"
         style="fill:#ed1c24;fill-opacity:1;fill-rule:nonzero;stroke:none"
         d="m 2423.16,10 h -41.56 v 241.848 h 61.76 c 46.56,0 70.35,-23.215 70.35,-74.797 0,-43.418 -16.85,-59.406 -34.53,-66.778 L 2521.84,10 h -42.23 l -37.81,93.184 c -5.35,-0.645 -11.27,-0.95 -18.64,-0.95 z m 0,126.406 h 18.21 c 22.4,0 30.78,11.824 30.78,40.645 0,28.808 -8.38,40.644 -30.78,40.644 h -18.21 v -81.289" /><path
         id="path58"
         style="fill:#ed1c24;fill-opacity:1;fill-rule:nonzero;stroke:none"
         d="m 2724.12,10 v 241.848 h 111.25 v -36.184 h -69.73 v -62.297 h 53.6 v -36.172 h -53.6 V 46.1719 H 2840 V 10 h -115.88" /></g></g></svg>