<?xml version="1.0" encoding="UTF-8"?>
<svg id="Ebene_1" data-name="Ebene 1" xmlns="http://www.w3.org/2000/svg" viewBox="0 0 425.2 425.2">
  <defs>
    <style>
      .cls-1 {
        fill: #231f20;
      }

      .cls-2 {
        fill: #aae1fa;
      }

      .cls-3 {
        fill: #ed1c24;
      }

      .cls-4 {
        fill: #00aeef;
      }

      .cls-5 {
        fill: #fff;
      }

      .cls-6 {
        fill: #d4effc;
      }

      .cls-7 {
        fill: #fbbea7;
      }

      .cls-8 {
        fill: #fdddcf;
      }
    </style>
  </defs>
  <path class="cls-6" d="M407.88,225.26h-43.3l16.24-16.24h43.3l-16.24,16.24Z"/>
  <path class="cls-6" d="M43.3,225.86H0l16.24-16.24h43.3l-16.24,16.24Z"/>
  <path class="cls-2" d="M43.15,225.93l.06,86.61,16.23-16.25-.06-86.61s-16.23,16.25-16.23,16.25Z"/>
  <path class="cls-7" d="M60.1,199.81l-.06-86.61-16.23,16.25.06,86.61s16.23-16.25,16.23-16.25Z"/>
  <rect class="cls-3" x=".63" y="129.13" width="407.78" height="43.3"/>
  <rect class="cls-3" x=".63" y="129.13" width="43.3" height="86.61"/>
  <rect class="cls-3" x="365.11" y="129.13" width="43.3" height="86.61"/>
  <path class="cls-8" d="M407.82,129.55H.05l16.24-16.24h407.77l-16.24,16.24Z"/>
  <path class="cls-7" d="M424.12,199.87l-.06-86.61-16.23,16.25.06,86.61,16.23-16.25Z"/>
  <rect class="cls-4" x=".12" y="269.04" width="407.78" height="43.3"/>
  <rect class="cls-4" x=".12" y="225.73" width="43.3" height="86.61"/>
  <path class="cls-2" d="M407.26,225.93l.06,86.61,16.22-16.25-.06-86.61-16.23,16.25h0Z"/>
  <path class="cls-6" d="M386.11,268.96H43.29l16.24-16.24h342.82l-16.24,16.24Z"/>
  <rect class="cls-4" x="364.59" y="225.73" width="43.3" height="86.61"/>
  <path class="cls-1" d="M73.57,193.17h14v15.79h13.11v-15.79h14v45.45h-14v-18.01h-13.11v18.01h-14s0-45.45,0-45.45Z"/>
  <path class="cls-1" d="M121.88,193.17h37.62v11.65h-23.62v5.67h21.45v10.82h-21.45v5.67h24.32v11.65h-38.32s0-45.45,0-45.45Z"/>
  <path class="cls-1" d="M207.94,221.05c0,12.6-6.81,18.65-20.69,18.65s-20.75-6.05-20.75-18.65v-27.88h14v24.76c0,4.65,0,10.44,6.81,10.44s6.62-5.79,6.62-10.44v-24.76h14v27.88h0Z"/>
  <path class="cls-1" d="M226.14,223.34c0,1.15.19,2.16.51,2.99,1.02,2.74,4.07,3.31,6.68,3.31,2.29,0,5.79-.76,5.79-4.14,0-2.36-1.97-2.99-9.8-5.22-7.19-2.04-15.41-4.01-15.41-13.18,0-10.5,8.97-15.02,18.33-15.02,9.87,0,18.59,3.76,18.97,14.83h-13.24c.25-1.72-.51-2.86-1.65-3.63-1.15-.83-2.74-1.15-4.14-1.15-1.91,0-5.03.51-5.03,3.06.26,3.25,6.75,3.95,13.18,5.73s12.8,4.78,12.8,13.11c0,11.84-10.89,15.66-21.01,15.66-5.16,0-19.86-1.85-19.99-16.36,0,0,14,0,14,0Z"/>
  <path class="cls-1" d="M257.46,193.17h37.62v11.65h-23.61v5.67h21.45v10.82h-21.45v5.67h24.32v11.65h-38.32s0-45.45,0-45.45Z"/>
  <path class="cls-1" d="M316.28,213.03h7.32c2.61,0,6.17-.45,6.17-4.52,0-2.86-1.59-4.52-6.94-4.52h-6.56v9.04h0ZM302.27,193.17h26.67c7.96,0,14.83,4.39,14.83,12.99,0,4.71-2.16,9.68-6.81,11.4,3.82,1.46,6.17,5.67,6.68,11.33.19,2.23.25,7.64,1.53,9.74h-14c-.7-2.29-.95-4.65-1.14-7-.38-4.33-.77-8.85-6.3-8.85h-7.45v15.85h-14v-45.45h0Z"/>
  <path class="cls-5" d="M92.44,139.37h7.45v8.84h6.97v-8.84h7.45v25.45h-7.45v-10.09h-6.97v10.09h-7.45v-25.45Z"/>
  <path class="cls-5" d="M131.69,139.37h20.01v6.52h-12.56v3.17h11.41v6.06h-11.41v3.17h12.93v6.52h-20.38v-25.45Z"/>
  <rect class="cls-5" x="169.08" y="139.37" width="7.45" height="25.45"/>
  <path class="cls-5" d="M192.78,158.69l11.24-12.8h-10.6v-6.52h20.42v5.7l-11.34,13.22h11.88v6.52h-21.6v-6.13Z"/>
  <path class="cls-5" d="M252.58,154.98c0,7.06-3.62,10.44-11,10.44s-11.04-3.39-11.04-10.44v-15.61h7.45v13.87c0,2.6,0,5.85,3.62,5.85s3.52-3.24,3.52-5.85v-13.87h7.45v15.61Z"/>
  <path class="cls-5" d="M269.92,139.37h7.62l7.04,13.62h.07v-13.62h7.04v25.45h-7.24l-7.41-13.9h-.07v13.9h-7.04v-25.45Z"/>
  <path class="cls-5" d="M326.84,162.22c-1.66,2.25-4.23,3.21-6.87,3.21-7.14,0-11.55-5.85-11.55-13.08,0-9.7,6.47-13.58,11.92-13.58,6.16,0,10.06,3.53,11.14,9.52h-7.14c-.27-1.85-1.76-3.17-3.52-3.17-5.11,0-4.94,5.67-4.94,7.41,0,2.39.91,6.56,5.45,6.56,1.73,0,3.49-.93,3.86-2.82h-3.28v-5.45h9.89v14.01h-4.71s-.24-2.6-.24-2.6Z"/>
  <path class="cls-5" d="M92,281.75h7.45v18.93h10.7v6.52h-18.15v-25.45Z"/>
  <path class="cls-5" d="M137.79,275.15h5.76v4.64h-5.76v-4.64ZM130.1,275.15h5.76v4.64h-5.76v-4.64ZM147.81,297.36c0,7.06-3.62,10.44-11,10.44s-11.04-3.39-11.04-10.44v-15.61h7.45v13.86c0,2.6,0,5.85,3.62,5.85s3.52-3.24,3.52-5.85v-13.86h7.45v15.61Z"/>
  <path class="cls-5" d="M164.1,281.75h18.69v6.52h-11.24v3.17h9.65v6.06h-9.65v9.7h-7.45v-25.45Z"/>
  <path class="cls-5" d="M203.61,288.27h-6.77v-6.52h20.99v6.52h-6.77v18.93h-7.45v-18.93Z"/>
  <path class="cls-5" d="M255.05,297.36c0,7.06-3.62,10.44-11,10.44s-11.04-3.39-11.04-10.44v-15.61h7.45v13.86c0,2.6,0,5.85,3.62,5.85s3.52-3.24,3.52-5.85v-13.86h7.45v15.61h0Z"/>
  <path class="cls-5" d="M271.37,281.75h7.62l7.04,13.62h.07v-13.62h7.04v25.45h-7.25l-7.42-13.9h-.07v13.9h-7.04v-25.45Z"/>
  <path class="cls-5" d="M327.28,304.59c-1.66,2.25-4.23,3.21-6.87,3.21-7.14,0-11.55-5.85-11.55-13.08,0-9.7,6.47-13.58,11.92-13.58,6.16,0,10.06,3.53,11.14,9.52h-7.14c-.27-1.85-1.76-3.17-3.52-3.17-5.11,0-4.94,5.67-4.94,7.41,0,2.39.91,6.56,5.45,6.56,1.73,0,3.49-.93,3.86-2.82h-3.28v-5.45h9.89v14.01h-4.71l-.24-2.6Z"/>
</svg>