<?xml version="1.0" encoding="UTF-8"?>
<svg id="Ebene_1" data-name="Ebene 1" xmlns="http://www.w3.org/2000/svg" viewBox="0 0 6094.38 2253.89">
  <defs>
    <style>
      .cls-1 {
        font-size: 281.54px;
      }

      .cls-1, .cls-2, .cls-3 {
        font-family: AzoSansUber-Regular, 'Azo Sans Uber';
      }

      .cls-1, .cls-4 {
        fill: red;
      }

      .cls-5 {
        letter-spacing: 0em;
      }

      .cls-2 {
        letter-spacing: .05em;
      }

      .cls-2, .cls-3 {
        font-size: 119.21px;
      }

      .cls-6 {
        letter-spacing: -.08em;
      }

      .cls-7 {
        letter-spacing: -.02em;
      }

      .cls-8 {
        letter-spacing: .05em;
      }

      .cls-9 {
        letter-spacing: .05em;
      }

      .cls-10 {
        fill: #fae834;
      }
    </style>
  </defs>
  <path d="M1.45,3c1.93,0,1.93-3,0-3S-.48,3,1.45,3h0Z"/>
  <path d="M251.31,1034.1c1.93,0,1.93-3,0-3s-1.93,3,0,3h0Z"/>
  <g>
    <path d="M3303.63,981.43c2.85-3.17,3.98-5.41,4.45-7.19.47-1.78.29-3.12.34-4.65-.7.81-1.43,1.6-2.15,2.38.39-.96.79-1.93,1.15-2.9l-.18.16,1.11.64c1.23-2.5,2.48-4.98,3.62-7.52l1.72-3.79,1.63-3.83-.05.25c.44-1.6.92-3.33,1.41-5.13.52-1.77,1.07-3.61,1.62-5.48.58-1.89,1.16-3.8,1.73-5.69.61-2.04,1.22-4.03,1.83-5.93.64-1.89,1.11-3.73,1.62-5.42.5-1.69.99-3.22,1.44-4.56.88-2.69,1.55-4.61,2.15-5.28.9,1.99,1.72,3.76,2.74,6.25,1.6-4.88,3.1-9.39,4.14-13.76.53-2.18,1.14-4.31,1.55-6.44.42-2.13.83-4.23,1.24-6.32l.02.28c-.15-1.59-.38-3.17-.64-4.73l-.76-4.67.04.29c-.85-3.04-1.02-5.94-.67-8.86.38-2.92.91-5.82,1.33-8.76l.08.25c-.79-.81-1.49-1.8-2.09-3.02-.61-1.22-1.19-2.66-1.63-4.4-.47-1.73-.75-3.76-1.08-6.1-.33-2.34-.54-5.03-.7-8.12-.18-2.33-.45-4.77-.8-7.21-.34-2.44-.91-4.82-1.44-7.12-.52-2.26-1.04-4.34-1.46-6.31-.42-1.97-.72-3.84-.97-5.6-.56-3.49-.66-6.66-.49-9.58.05-1.08-.52-3.22-.9-5.33-1.85-2.24-3.63-4.1-4.89-5.47-.76-1.66-1.47-3.3-2.23-4.85-.77-1.54-1.53-3.05-2.28-4.54-1.45-2.99-3.06-5.76-4.57-8.6-4.33-7.76-8.97-15.25-13.8-22.52-4.83-7.28-9.62-14.52-14.39-21.91-1.2-1.99-2.87-3.98-4.58-6.03-1.7-2.05-3.62-4-5.43-5.84-8.25-8.33-17.17-15.97-26.67-22.93-1.19-.87-2.36-1.76-3.57-2.59l-3.66-2.49c-1.23-.82-2.42-1.68-3.68-2.47l-3.76-2.37c-1.25-.76-2.52-1.62-3.75-2.31l-3.7-2.09-7.39-4.19-2.46-1.41c-.83-.45-1.67-.86-2.5-1.3l-5-2.61-4.98-2.64c-.83-.44-1.65-.9-2.49-1.32l-2.52-1.2c-3.37-1.6-6.72-3.19-10.06-4.77-1.66-.82-3.35-1.5-5.04-2.19-1.69-.68-3.37-1.36-5.04-2.04-1.31-1.75-2.33-3.11-4.59-6.11-2.12,4-9.46,1.4-15.87-.72-20.65-6.41-41.5-10.77-62.18-13.61-5.31-.74-10.58-1.29-15.88-1.94-5.28-.55-10.53-.96-15.8-1.43l.22-.05c-5.11.79-10.26.74-15.47.39-5.19-.28-10.38-.66-15.53-.59-5.76.18-11.71.2-17.53.36-5.78.27-11.46.58-16.57,1.5-4.74.87-9.33,1.58-13.96,2.18-2.32.31-4.64.58-6.99.79-2.38.24-4.78.44-7.24.57-4.47.29-7.9.92-10.72,1.94-2.83,1.04-5.02,2.4-7,4.13,3.56-.35,6.76-.7,9.88-.96,3.1-.24,6.2-.54,9.52-.74-9.82,4.1-19.05,6.56-31.92,6.71-3.97.01-9.22,1.38-13.83,2.41-2.36.58-4.69,1.21-7.01,1.86-2.33.67-4.66,1.45-6.99,2.15-10.99,3.43-22,7.64-32.76,12.92-1.06.53-2.4,1.21-3.58,1.8-1.18.63-2.23,1.15-2.78,1.22-2.19.31-4.38.9-6.53,1.71-2.13.9-4.22,2-6.29,3.21-2.08,1.16-4.05,2.63-6.02,4.05-1.97,1.45-3.87,2.79-5.87,4.37-5.47,4.18-10.35,8.8-15.1,13.5-4.75,4.71-9.37,9.49-14.44,14.24-2.34,2.14-4.88,6.46-6.9,9.9-3.43,5.82-6.3,11.86-8.8,18.11l.15-.15c.11-1.4.22-2.84.37-4.31.18-1.48.37-3.01.57-4.66-1.69,2-3.21,3.77-4.54,5.53-.67.87-1.32,1.72-1.96,2.54-.61.86-1.22,1.7-1.82,2.54l.06-.28c1.38-.45,2.32.05,2.8,1.29.48,1.24.51,3.21.19,5.81-.29,1.95-.92,4.55-1.68,7.29-.34,1.39-.7,2.83-1.05,4.25-.35,1.42-.61,2.87-.85,4.22v-.24c-.71,3.14-1.03,7.43-1.73,9.34-.89,2.22-1.47,4.2-1.89,5.87-.45,1.67-.62,3.08-.67,4.21-.1,2.26.5,3.45,1.75,3.86,1.68.56,3.46-.2,3.94-.23,2.02,5.21,2.58,12.69,4.2,19.94,1.53,7.22,4.16,14.06,7.87,17.13-.6-4.1-.46-7.79-1.14-11.41-2.46-12.45-2.46-25.28-.11-37.4l.03.27c0-1.11-.17-2.3.11-3.32,4.77-19.3,14.42-36.94,27.33-50.45,3.01-3.19,6.71-6.54,10.59-9.16,3.86-2.64,7.99-4.44,11.57-4.8-6.25,4.97-11.67,10.18-16.44,15.65-4.76,5.47-9,11.09-12.74,17.05-3.74,5.96-4.83,10.15-3.5,12.64.57,1.06,1.41,1.65,2.14,2.43l.02-.2c.08,1.03-.05,2.42.33,3,.57.91,1.18,1.92,2.01,2.17.86.27,1.84-.25,3.39-2.21,2.74-3.57,4.43-7.88,4.93-11.64.69-5.57,4.96-10.44,9.43-14.77,5-4.88,10.36-9.3,15.48-12.75,2.59,1.89,5.03,3.74,7.45,5.65-1.37,1.12-2.47,2.19-3.55,2.94-5.72,3.81-11.13,8.25-16.01,13.44-4.85,5.19-9.14,11.18-12.32,18-1.55,3.26-3.89,6.31-5.7,9.5-2,3.51-3.79,7.02-5.26,10.52-.02,5.8.82,10.91,2.36,13.99,1.52,3.11,3.67,4.13,6.37,2.49,1.11-3.45,2.62-6.47,3.99-9.86,1.04-2.63,2.37-5.19,3.66-7.74,1.37-2.51,2.77-5.08,4.22-7.73,1.5-2.69,3.04-5.38,4.76-8.02,1.73-2.63,3.54-5.22,5.51-7.72,1.99-2.48,4.07-4.89,6.31-7.14,2.26-2.23,4.6-4.35,7.09-6.24,2.57-1.94,5.18-3.85,7.84-5.69,1.35-.88,2.68-1.8,4.05-2.63.35-.21.66-.43,1.03-.65l1.13-.65,2.24-1.31c6.02-3.47,12.41-6.62,19.15-9.06,7.17-2.56,14.69-4.6,22.44-6.11,9.5-1.85,19.33-2.93,29.41-3.65l-.17-.05c1.41,1.89,2.79,3.78,4.16,5.69l-.15-.07c2.66-1.03,5.39-2.07,7.98-3.13,1.39-.57,2.4-1.29,3.59-1.95-2.08-.16-4.19-.37-6.26-.5l-.15.08c2.06.13,4.17.34,6.25.51,4.7-2.57,10.55-3.42,17.89-3.57,14.33-.26,28.65-.44,42.8-.2,5.54.16,11.1.23,16.59.58,2.75.15,5.51.26,8.24.44l8.18.66,4.09.32,4.05.45,8.08.9c2.69.32,5.33.78,7.99,1.16l3.99.59,1.99.3,1.96.38c1.43.27,2.96.48,4.28.87,16.07,4.73,31.62,10.53,45.11,18.09,2.04,1.16,4.11,2.14,6.14,3.09,1.98,1.03,3.97,1.96,5.98,2.81,1.01.43,2.02.84,3.03,1.23.5.2,1.03.38,1.52.6l1.48.66c1.97.88,3.97,1.71,6.01,2.55,2.81,1.06,5.47,2.06,8.28,3.2.71,1.29,1.49,2.49,2.39,3.61.45.56.92,1.1,1.43,1.62.45.53.92,1.05,1.43,1.55,2.06,1.96,4.61,3.83,7.94,5.76,3.33,1.97,5.89,4.64,8.13,7.52,1.09,1.48,2.19,2.9,3.19,4.42,1,1.53,2.08,2.97,3.14,4.46.3.42,0,1-.04,1.5l-.04-.18c3.72,5.28,7.41,6.46,12.7,8.92.51,1.78,1.01,3.54,1.47,5.18.39,1.64.76,3.15,1.07,4.43.08-.04,1.33-.67,2.59-1.3,2.58,4.34,5.98,8.08,6.96,13.61.4,1.86,1.03,4.27,2.16,6.63.58,1.17,1.14,2.37,1.92,3.48.38.56.79,1.09,1.24,1.6.43.52.87,1.01,1.36,1.47.57.54,1.07,1.17,1.49,1.85.43.68.76,1.43.95,2.2.41,1.53.49,3.12.12,4.48-4.79-3.12-7.8-8.33-10.94-15.08-.51-1.05-1.07-2.06-1.76-3.03-.68-.97-1.36-1.94-1.95-2.96-1.04-1.8-2.26-3.53-3.38-5.3-1.26-1.7-2.41-3.45-3.69-5.13-1.29-1.67-2.46-3.4-3.76-5.04-.63-.83-1.24-1.67-1.83-2.52-.62-.83-1.24-1.65-1.83-2.5-4.1-5.79-8.84-10.22-14.11-14.21-5.55-4.2-12.05-7.41-16.93-11.35-1.03-.8-2-1.6-3.1-2.39l-3.56-2.33-3.59-2.31c-.6-.38-1.19-.77-1.8-1.14l-1.9-1.01-7.64-3.99-8.02-3.44c-10.87-4.33-22.26-7.8-34.08-10.93-2.94-.77-6.02-.89-9.05-1.29-1.53-.16-3.01-.47-4.57-.75-1.55-.3-3.09-.74-4.63-1.41-.94-.41-3.78-.33-4.94,0-2.92.84-6.09,1.08-9.33.81-1.64-.11-3.28-.38-5-.61-1.72-.22-3.48-.5-5.26-.78-3.08-.48-6.34-.52-9.6-.66l-7.39-.45-1.85-.11-1.87-.05-3.74-.11-7.49-.26c-2.52-.03-5.04-.08-7.56-.15l-4.54-.11c-1.52,0-3.06.03-4.58.04-3.06.05-6.12.11-9.19.2-6.19.33-12.33.57-18.58,1.05-6.18.4-12.35.81-18.51,1.21-6.08.36-11.93.73-17.72.93-.44.02-.91.14-1.37.21-6.19.78-12.04,1.84-17.8,2.95l-4.2.93c-.7.16-1.41.3-2.09.46l-2.03.52c-1.34.35-2.72.67-4.04,1.04l-3.9,1.14.12-.11c-1.05.83-2.15,1.79-2.72,2.66-.58.87-.62,1.65.5,2.2,1.95.96,4.94,1.09,8.89-.11,1.66-.45,3.35-.74,5.06-1.02,1.78-.22,3.56-.43,5.3-.79,1.28-.26,2.56-1.18,3.85-1.81l-.13.1c5-.79,10.3-1.35,15.65-1.89,2.74-.22,5.44-.47,8.24-.66,2.82-.18,5.57-.39,8.47-.52.94-.05,1.9-.24,2.85-.35l9.68-1,9.79-.87c3.28-.31,6.49-.45,9.74-.66l4.86-.26c1.62-.07,3.21-.08,4.82-.12,4.34-.06,8.7-.03,12.95.29,4.27.27,8.56.52,12.74.96,4.2.39,8.44.64,12.58.98,4.17.28,8.4.34,12.56.37.4,0,.87.2,1.31.25,10.09,1.03,19.76,2.76,29.3,4.62,3.8.91,7.59,1.63,11.38,2.47,3.66,1.04,7.35,2.13,10.9,3.71,2.8,1.41,5.87,2.6,9.05,3.66,3.1,1.18,6.21,2.36,9.28,3.43.41.14.83.28,1.26.42.41.15.83.31,1.25.46.84.29,1.71.56,2.56.79,1.71.45,3.39.75,4.81.8,2.08.02,3.97.39,5.94.77,1.96.4,3.92.92,5.9,1.59,1.93.72,3.77,1.72,5.68,2.82.95.56,1.9,1.16,2.85,1.81.46.32,1,.66,1.39,1.01.4.35.81.71,1.22,1.08,5.47,4.98,11.31,9.78,17.42,14.87,4.63,3.78,8.48,8.66,10.2,13.96l-.03-.17c1.35,1.76,2.49,3.67,3.76,5.48,3.15,4.83,7.06,10.14,8.08,14.91,1.68,7.82,4.78,13.5,8.28,19.32.98,1.77,1.93,3.56,2.43,5.4.27.92.55,1.85.7,2.79.13.94.23,1.89.29,2.86.15,4.55.84,8.43,1.84,12.66.84,3.78.8,8.52-.54,11.74-.25.54-.45,1.09-.63,1.63-.17.55-.3,1.1-.5,1.62-.37,1.05-.54,2.15-.84,3.19-.33,1.03-.54,2.1-.88,3.12-.39,1-.76,2.01-1.21,2.97-.49.82-.62,1.92-.59,3.12-.13,1.56-.26,3.13-.38,4.51-.15,1.25-.14,2.44-.1,3.61,0,1.16.05,2.31.03,3.47-1.05,1.3-2.04,2.48-3.02,3.64-1.03,1.13-1.96,2.28-3.06,3.41.2,1.51.37,2.96.1,4.52-.13.79-.34,1.62-.67,2.52-.36.89-.85,1.85-1.5,2.92-3.7,5.92-3.86,10.39-1.88,13.47-2.6,3.41-4.63,7.12-7.2,10.33-2.57,3.18-5.73,5.8-10.16,6.71-.3.06-.97.98-1.5,1.49-3.89,3.58-8.12,6.75-12.2,9.77-2.45,1.79-3.93,2.82-7.21,2.81-3.19.05-8,1.44-11.67,2.67-3.82,1.3-7.16,1.93-10.83,1.45-2.81-.55-8.15,0-10.08,2.76l-.15-.03.12,1.36.14-.06c-.03.92-.06,1.85-.09,2.9-6.3.36-11.76.59-17.28.62l.16.06c-1.94-.36-3.86-.64-5.8-1.06l.16-.08c-.98,1.72-2.56,2.98-7.92,2.73-3.46-.21-6.95-.44-10.44-.6-3.49-.22-7-.51-10.49-.76-.23-1.12.82-2.34.88-3.53.07-1.19-.84-2.29-4.94-3.37-2.4,6.52-5.75,7.73-21.07,5.72-2.17-.31-4.4-.55-6.64-.81-2.23-.27-4.44-.63-6.59-1.02-4.3-.77-8.27-2.07-11.34-4.24-.68-.49-2.66-.72-4.02-1.12l.22-.05c-3.87.97-6.22,1.39-8.76.98-2.53-.42-5.21-1.81-9.78-4.3-.8.61-1.52,1.17-2.25,1.73l.19-.03c-2.63-.87-5.53-2.3-7.8-2.48-3.4-.33-6.47-.97-9.42-1.86-2.91-.94-5.61-2.26-8.32-3.91-.24-.15-.52-.29-.83-.44-.29-.14-.54-.28-.85-.42-.6-.27-1.27-.52-1.95-.73-1.37-.43-2.81-.68-3.82-.7-1.65-.12-3.23-.38-4.73-.77-.75-.2-1.49-.4-2.21-.69-.72-.31-1.42-.64-2.11-1-1.37-.72-2.69-1.53-3.96-2.42-1.26-.98-2.48-2.04-3.68-3.14l.13.13c-1.07-.38-2.19-.65-3.3-1.01-1.11-.38-2.21-.77-3.26-1.26-1.05-.49-2.04-1.06-2.91-1.81-.87-.76-1.6-1.77-2.16-2.98l.1.17-4.77-2.9c-1.58-1.04-3.15-2.08-4.73-3.12-1.59-1-3.13-2.13-4.68-3.23-1.54-1.11-3.11-2.16-4.63-3.31.13-1.72.21-2.84.26-3.54-1.38-1.66-2.65-3.16-3.85-4.65-1.19-1.52-2.34-2.97-3.55-4.4-1.62-1.86-3.44-4.5-5.18-5.6-2.21-1.4-4.41-1.7-6.61-2.53l.16.06c-1.17-1.17-2.42-2.31-3.62-3.47-1.18-1.19-2.31-2.4-3.29-3.64-1.91-2.37-3.8-4.75-5.77-7.04-1.99-2.26-3.93-4.57-5.98-6.76-2.06-2.19-4.05-4.42-6.18-6.55l-1.27-1.27c-.35-.34-.71-.68-1.07-1.01-.71-.69-1.41-1.42-2.16-2.11l.15.06c-1.14-.58-2.29-1.15-2.7-1.36-.26-1.15-.38-2.26-.54-3.14-.12-.92-.27-1.63-.6-1.97-.94-.96-2.75-1.68-3.53-1.24-1.04.58-1.44,2.44-2.09,3.9-.75-1.17-1.18-1.75-1.41-2.33-3.14-8.53-6.17-15.64-11.01-21.64,0,.57,0,1.1,0,1.12,0-.04.04-.49.09-1.02-.8-1.48-.58-3.05-.52-4.66.15-1.61.15-3.25-.83-5.08-1.54-2.85-2.44-6.29-2.55-9.86-.13-3.57.55-7.24,1.9-10.51.62-1.34.96-2.62,1.14-3.71.11-1.13.03-2.11-.45-2.98-1.18-2.09-2.16-4.13-3.62-5.78-1.44-1.62-3.24-2.77-5.97-2.61-3.5,4.96-6.19,10.55-8.05,16.69-2.39,8.47-4.84,13.4-8.63,15.9-1.17.78-1.97.82-2.63-.32-.35-.57-.63-1.43-.86-2.63-.25-1.2-.49-2.75-.61-4.68-1.59.43-3.19.89-4.48,1.28-1.47-5.11-2.26-9.66-2.83-14.36l.02.21c-.82-4.59-1.18-9.34-1.24-14.27-1.56,2.17-2.76,3.85-3.57,5.05-.82,1.2-1.38,1.89-1.79,2.1-.8.42-1.01-1.08-1.29-4.21.86-.59,1.71-1.17,3.08-2.05-1.62-5.29-2.04-8.6-.72-12.95.33-1.09.85-2.22,1.46-3.48.31-.63.65-1.29,1.04-1.98.41-.68.86-1.39,1.35-2.14.49-.75,1.02-1.54,1.6-2.37.62-.8,1.29-1.65,1.99-2.55,1.38-1.83,3.17-3.69,5.13-5.81.05-1.91.6-4.36.23-5.9-.69-2.84-1.85-3.84-4.47-2.38-1.3.74-3.01,2.04-4.97,4.2-2.02,2.11-4.33,5.02-6.85,8.87-.59.92-1.21,1.96-1.84,3.02-.62,1.07-1.18,2.19-1.75,3.23-.55,1.05-1.12,2.01-1.57,2.84-.46.83-.87,1.49-1.24,1.9-3.13,3.36-6.04,9.03-8.53,14.23-.6,1.3-1.2,2.58-1.8,3.78-.59,1.2-1.11,2.34-1.68,3.36-.56,1.02-1.13,1.93-1.7,2.69-.55.75-1.11,1.36-1.71,1.76-.69.47-1.75,4.02-2.83,7.27,1.54,1.58,2.72,2.74,3.91,3.82.16,7.47-.45,12.83-1.18,18.02-.17,1.3-.33,2.57-.49,3.85-.15,1.28-.24,2.56-.32,3.88-.18,2.64-.05,5.34.37,8.31-1.28.43-2.33.78-3.9,1.3,1.71,8.61,3.47,16.13,6.03,21.49,2.12,4.43,4.8,6.4,7.71,9.65.52,2.61,1.18,5.21,1.84,7.83.73,2.59,1.43,5.23,2.3,7.81l-.05-.24c.68,1.28,1.32,2.58,2.04,3.84l-.17-.17,2.24-.94c-.03-.59-.04-1.18-.04-1.78.07.37.23.87.21,1.08-.04.28-.23.34-.36.49,1.09,2.76,2.19,5.53,3.46,8.26.41.15.83.31.93.34-.1-.06-.55-.32-1.01-.59.76,2.03,1.74,3.97,2.82,5.87,1.05,1.92,2.33,3.73,3.65,5.51,1.3,1.79,2.83,3.45,4.34,5.1l.57.61.5.48,1.01.94c.68.62,1.36,1.24,2.06,1.84,1.52,1.31,2.94,2.58,4.09,3.92,1.17,1.33,2.04,2.76,2.4,4.45-1.34-.97-2.65-1.93-4.05-2.95-1.4-1.03-2.86-2.17-4.54-3.45,2.77,5.45,5.14,9.59,7.33,13.6,2.75,2.43,5.04,4.76,7.02,6.1,7.84,5.13,15.48,11.27,23.82,18.39,2.54,2.26,5.54,3.88,8.34,5.76l-.12-.2c.6,1.45,1.26,2.95,1.74,4.3.5,1.34.82,2.52.71,3.36-.12.85-.67,1.36-1.91,1.33-1.26-.02-3.17-.6-5.97-1.96-1.08-2.14-2.57-4.06-4.3-5.85-1.68-1.83-3.6-3.54-5.6-5.23-2.02-1.68-4.03-3.39-5.95-5.18-1.9-1.79-3.76-3.62-5.23-5.68-3.72-.37-7.59-1.64-7.63,2.08,3.68,4.03,7.49,8.58,11.2,11.45,3.52,2.6,6.89,5.21,10.26,7.92,1.7,1.34,3.38,2.72,5.05,4.16,1.66,1.46,3.33,2.94,5.03,4.44l-.21-.08c1.1,2.63,2.7,5.24,4.77,7.79,2.12,2.52,4.68,5.01,7.57,7.49,2.97,2.43,6.31,4.84,9.89,7.24,1.85,1.17,3.76,2.34,5.72,3.51,1.97,1.17,3.93,2.37,6.09,3.49-1.49-1.58-2.69-3.03-3.82-4.37-1.12-1.34-2.16-2.57-3.2-3.81l.16.19c1.35-.54,1.58-1.55-2.06-4.34l.14.18c4.06,1.28,7.9,3.43,11.87,5.81,4.04,2.32,7.92,5.07,12.17,7.37l-.33-.09,3.88,2.09-.18-.19c1.37.28,2.7.59,4.1.84l4.18.73-.94-1.37c.25.24.65.54.73.72.11.24-.02.4-.04.6,2.56.98,5.05,2.02,7.67,2.92l7.89,2.64-.18-.15c-.41,1.03-.83,2.06-1.32,3.3.79.35,1.56.71,2.35,1.03.81.32,1.61.63,2.41.94,1.6.62,3.19,1.23,4.76,1.84.79.3,1.57.6,2.36.9l1.17.44,1.04.36c1.39.47,2.77.94,4.15,1.41,2.76.91,5.52,1.92,8.27,2.72,2.76.84,5.55,1.68,8.39,2.54-2.08,2.2-6.3,2-11.14,1.04-2.43-.54-5.02-1.3-7.58-2.04-2.71-.77-5.38-1.53-7.78-2.21,2,1.62,2.31,3.42.9,3.61l.27.02c1.08.58,1.82.97,2.63,1.44.79.45,1.52.89,2.2,1.33,1.35.88,2.48,1.75,3.33,2.6,1.7,1.7,2.31,3.34,1.45,4.92,3.33-.25,4.92-.48,6.48-.63,4.08,1.99,7.81,3.83,12.59,5.95,4.46-1.45,7.28-3.12,12.13-3.86,5.36-.78,4.29-2.81,3.79-4.9-.2-.33-.51-.68-.55-.99-.02-.13.52-.16.81-.24l.28-1.21c-1.62-1.47-.7-2.23,3.12-1.39,3.84.89,7.53,2.04,11.3,3.06l-.19-.1c-1.26.61-2.8.82-4.59.69-1.79-.14-3.81-.61-6.05-1.49l-4.09.34-.28,1.35c2.63.87,5.24,1.79,7.81,2.26,2.58.48,5.13.63,7.68.12,1.33-.26,4.28.28,6.47.36l-.22.05c1.5-1.04,2.75-.69,3.87.61l-.2-.11c7.7.48,10.04-1.18,10.01-3.63,0-.19,1.7-.18,2.86-.29,1.29,1.18,2.57,2.35,3.93,3.6,2.22-.13,3.75-.26,5.29-.4l-.22.04c.14-.38.24-.77.31-1.17l-.21.04c2.43.12,5.82-.07,7.11.42,4.46,1.69,5.85.77,7.37-.28l-.72-.24.49.29c2.05.96,4.11,1.93,7.74,3.64.21-3.01.36-5.12.57-8.01,7.68,2.41,13.93,4.32,20.25,6.02l-.24-.08c1.98-.02,3.96-.03,5.82-.05,1.87-.06,3.62-.11,5.15-.16,2.31-2.15,4.19-3.9,6.43-5.98,3.79.81,5.74,1.18,7.68,1.59,1.7-2.3,4.42-1.46,7.18.02-2.48.04-4.94-.08-7.41-.12l-3.52,2.59.21-.08c-.52.89-2.36,2.08-1.33,2.6,2.6,1.33,7.62,3.53,9.77,3.28,7.55-1.04,8.43,1.66,13.44,1.7,3.23-3.56,6.23-5.55,10.76-6.21,2.27-.35,4.94-.45,8.22-.23.82.05,1.68.12,2.58.21.45.05.91.1,1.38.14.24.03.48.05.72.08.29.02.58.03.87.05,2.35.12,4.96.35,7.8.48-1.61.69-3.33,1.22-4.93,1.8-.8.28-1.58.56-2.3.84-.36.15-.71.29-1.05.42-.28.13-.54.25-.79.38-1.95,1.02-2.92,2.2-4.34,3.31l-.14-.08c2.07-.03,3.93-.19,5.65-.44,2.1-.35,4.01-.8,5.8-1.31,1.79-.49,3.42-1.16,4.98-1.79,1.56-.66,3.06-1.31,4.52-2.06l-.75.04.49.1c2.75-1.15,5.66-2.24,8.37-3.53,1.36-.62,2.69-1.25,3.95-1.88,1.25-.67,2.43-1.33,3.51-2,4.34-2.71,1.33-2.88-4.36-1.72h.25s-.37-1.19-.37-1.19c-1.54,0-3.08-.05-4.61-.09-1.07.15-2.13.31-3.2.43.52-.11,1.11-.32,1.51-.35.57-.05,1,.02,1.48.04,1.54.03,3.09.07,4.63.08,8.79-2.69,17.22-6.26,25.41-9.9,6.8-2.96,14.64-7.25,19.7-8.97,6.59-2.17,12.94-5.97,18.93-10.32,6-4.35,11.66-9.23,17.16-13.76-.65-.06-1.31-.13-1.96-.19.59.14,1.19.28,1.78.42,2.74-1.22,5.45-2.51,8.17-3.84,2.67-1.37,5.42-2.73,8.06-4.21l-.11.22,1.06-4.73-.06.18c.17-2.74.33-5.37.51-8.26.13-1.87.88-3.8,2.24-5.76,1.34-1.97,3.22-4.01,5.61-6.13l-.18.14c3.25-1.02,6.61-2.06,9.87-3.25l-.26.2ZM3133.04,1068.41c-1.19.05-2.38.08-3.57.1l.22.06,3.19-.08c1.37-.07,2.74-.11,4.12-.19l-.17-.06-3.77.17ZM3006.04,1055.97l-.18-.11.18.11ZM3014.2,1051.47l-.17-.1.17.1ZM2886.89,716.3l-.44.38-.21.33.43-.35.22-.36ZM2925.02,921.11c0-.06.03-.4.06-.74l-.17-.06c.05.37.1.75.11.8ZM2867.47,709.26c1.29-.98,2.69-1.77,4.07-2.64,1.39-.83,2.79-1.67,4.19-2.51l4.33-2.26c1.45-.74,2.87-1.55,4.35-2.21,2.94-1.36,5.81-2.89,8.7-4.22,1.44-.7,2.86-1.42,4.26-2.18,1.4-.76,2.81-1.44,4.17-2.23,1.76-.99,4.28-1.84,7.45-2.55,1.58-.37,3.31-.79,5.19-1.19,1.88-.37,3.9-.78,6.05-1.27-2.67,1.56-4.68,2.94-6.4,4.09-1.72,1.18-3.16,2.06-4.71,2.51-1.78.49-3.54,1.11-5.3,1.76-1.76.65-3.53,1.27-5.28,1.99-3.48,1.49-6.98,2.9-10.39,4.5-.86.38-1.72.75-2.58,1.13-.86.36-1.72.73-2.56,1.13-1.7.78-3.4,1.51-5.12,2.19-.86.32-1.71.68-2.56,1.04-.85.35-1.7.69-2.56,1-.86.32-1.72.62-2.59.9-.88.27-1.75.55-2.6.84l-3.35,2.13c-.03.44.11.81-.17,1.33-.15.28-1.05.83-1.6,1.26.09-.25.07-.47.29-.75.49-.61,1.1-1.24,1.66-1.87l3.06-1.94ZM2830.52,846.51c-.08.09-.29-.5-.44-.78.49-.14.98-.28,1.47-.42l-.06-.17c-.34.47-.63,1.02-.97,1.37ZM2967.15,1039.21c-.37.04-1.04-.15-1.6-.24.25-.19.28-.58.8-.51,1.03.14,2.18.4,3.3.63l.34-1.22h-.21c3.44.66,6.25,1.5,6.39,3.18h.21s-6.91-2.09-6.91-2.09c-.77.09-1.49.21-2.33.26ZM3244.91,848.86c.74,1.72.84,2.81.49,3.42-.35.62-1.19.78-2.53.7,1.18-2.02,1.65-3.02,2.14-4.03l-.64-2.73c-.98.57-1.96,1.15-3.29,1.93.14-2.47.49-3.12,1.15-3.05.63.07,1.46.87,2.1,1.25l.58,2.49ZM2905.01,1011.3l-4-2.5,3.05-.18-.21-.07,1.16,2.75ZM2967.55,1048.59c.31-1.49,3.46-.38,6.41.67l-.17-.12-.68,2.37.61.34-.35-.34c-3.32-.59-6.12-1.47-5.82-2.9ZM3034.35,1061.36c-1.15-1.62-2.19-3.09-3.23-4.55-.55-.12-1.28-.2-1.62-.37-1.75-.87-3.4-1.73-5.08-2.65.82-.08,1.64-.19,2.45-.3,1.33.92,2.7,1.84,3.97,2.76.25.18.03.39.03.59,2.66.46,4.66.8,6.05,1.1,1.39.28,2.17.51,2.39.79.44.53-1.34,1.31-4.96,2.62ZM2989.31,702.56c.69-.69,1.16-1.89,2.11-1.99,2.02-.23,4.07-.37,6.32-.5,2.25-.13,4.69-.26,7.48-.35-2.14,1.76-4.62,2.63-7.34,2.98-2.72.34-5.67.14-8.75-.19l.18.06ZM3247.17,720.95c-1.96-4.67.91-4,4.61-.97,6.94,5.88,14.1,12.19,20.22,21-2.56-1.23-4.24-2.04-5.99-2.79l.2.11c-5.4-7.22-11.58-14.06-19.04-17.36ZM3052.42,706.18c19.62.47,38.96,2.75,58.09,5.51,2.46.34,4.88.91,7.34,1.45,2.44.58,4.92,1.15,7.33,1.88,2.4.78,4.81,1.56,7.21,2.34,2.4.78,4.79,1.54,7.1,2.46,1.85.69,3.24,2.08,6.56,4.31-5.07-1.15-7.81-1.57-10.36-2.41-2.64-.75-5.04-1.41-7.45-1.85-2.42-.43-4.82-.75-7.55-.5-2.11.16-5.08-.14-8.13-.69-1.53-.3-3.09-.61-4.59-.91-1.5-.32-2.93-.67-4.19-1.05-10.75-3.34-21.67-4.11-32.57-4.05-4.99.16-9.81.01-14.55-.31-4.76-.19-9.42-.66-14.06-1.14-4.66-.4-9.27-.99-13.91-1.48-4.65-.43-9.31-.96-14.03-1.28,11.95-3,25.18-2.69,37.76-2.29ZM2976.41,704.73c-13.76,1.89-27.3,4.22-41.02,7.69-.96-1.26-1.7-2.24-2.5-3.29,1.52-.57,3.03-1.08,4.53-1.57,1.5-.49,2.98-.98,4.45-1.47,2.98-.9,5.94-1.82,9.04-2.68,1.07.96,1.95,1.74,3.24,2.9,2.01-1.26,3.42-2.85,5.45-3.19,5.34-.95,11-1.4,16.54-1.64,1.64-.07,3.1.71,5.44,1.34-2.1.77-3.49,1.67-5.17,1.9ZM2906.57,715.13c.93-4.22,5.53-5.61,11.39-6.06-1.65.83-3.31,1.67-5.17,2.61-1.81,1-3.81,2.12-6.22,3.46ZM2849.9,957.66c.36-.05.65-.19,1.1-.11.15.03.98.86.99.92.04.42-.05.73-.1,1.07-.66-.63-1.32-1.26-1.98-1.88ZM2830.09,775.23c.54-.18,1.16-.48,1.56-.46.14,0-.35,1.11-.42,1.17-.75.66-1.48,1.22-2.14,1.74.33-.81.66-1.63,1-2.45ZM2860.65,985.62c-.16.09-.32.36-.48.24-.74-.56-1.49-1.22-2.22-1.85.16-.09.32-.17.48-.26l2.22,1.87ZM2802.74,886.01c-.14.12-.28.52-.41.3-.36-.62-.72-1.49-1.08-2.26l.42-.31c.36.75.71,1.51,1.07,2.27ZM2988.28,966.9c.45.02.88-.02,1.33.08.11.02.22.12.35.23.14.11.3.24.45.34-.43-.07-.78-.13-1.11-.2l-1.01-.44ZM3162.66,1064.78c-.4,0-.52-.21-.76-.33.53-.12,1.2-.34,1.55-.34.4,0,.52.21.76.33-.53.12-1.19.34-1.55.34ZM2915.2,1021.43c.07.15-.37.09-.59.13-.18-.34-.35-.67-.59-1.13.55.46,1.09.82,1.18,1ZM3156.73,727.33l.89.18-.21.3-.68-.47Z"/>
    <path d="M2794.45,752.62l-1.81,2.01-1.75,2.09-1.75,2.12-1.69,2.2c.88-2.54,1.73-4.29,2.45-5.57.71-1.27,1.32-2.02,1.87-2.43,1.08-.84,1.83-.4,2.63-.14l.06-.28Z"/>
    <path d="M3137.45,978.02c-1.81.41-2.83.76-3.86.83-.6.04-1.82-.48-1.72-.55.56-.44,1.4-1.1,2.18-1.15.88-.06,1.79.43,3.4.88Z"/>
    <path d="M3091.07,970.68l8.64.26-.16-.08c-3.07,2.08-3.59,2.06-8.33-.24l-.16.05Z"/>
    <path d="M2866.01,788.09c.09-.49.07-1.13.3-1.44.25-.31.72-.3,1.1-.42-.13.5-.15,1.12-.36,1.46-.2.29-.67.28-1.03.4Z"/>
    <path d="M2853.87,740c1.07-.62,2.09-1.26,3.17-1.84-1.05.52-2.05,1.11-3.09,1.66l-.08.17Z"/>
    <path d="M2954.88,730.33c-1.67.48-3.26,1.05-4.89,1.57-.1-.32-.2-.64-.29-.95,1.8-.18,3.54-.43,5.38-.57l-.19-.05Z"/>
    <path d="M3067.14,976.17l-.58.44c-.69-.26-1.42-.5-2.04-.79-.09-.04.34-.28.54-.43l2.09.78Z"/>
    <path d="M3102.49,974.63c-.41.35-.75.72-1.25,1.04-.22.14-.76.18-1.15.26,0-.28-.29-.7.03-.8.69-.21,1.69-.28,2.56-.43l-.18-.07Z"/>
    <path d="M2957.96,941.62c-.31-.14-.74-.25-.9-.41-.17-.17-.07-.39-.1-.59.31.13.75.25.9.41.17.17.08.39.1.59Z"/>
    <path d="M3212.2,924.99c-.1.45-.14.89-.33,1.35-.07.18-.64.61-.67.57-.17-.23-.25-.55-.37-.85l1.37-1.07Z"/>
    <path d="M3037.99,974.63l-3.89-1.49,3.89.3-.13-.1c-.03.45-.06.89-.09,1.33l.22-.05Z"/>
    <path d="M2967.84,954.56l.41-1.47c-.18.44-.36.89-.53,1.34l.13.13Z"/>
    <path d="M3037.99,973.45c.8-.07,1.59-.21,2.44-.27.39-.03.91.08,1.37.12-.37.15-.67.44-1.13.43-.9-.03-1.88-.22-2.82-.38l.13.1Z"/>
    <path d="M2955.07,730.38c.42-1.69,2.8-2.05,5.82-1.95l-.15-.07-5.87,1.97.19.05Z"/>
    <path d="M3102.67,974.7c.22-.38.28-.8.74-1.12.23-.16,1.18-.14,1.81-.2-.18.17-.27.39-.57.51-.66.27-1.44.5-2.17.74l.18.07Z"/>
    <path d="M2939.97,656.59c.37.2.58.31.8.42l-1.28.37c.14-.23.28-.46.48-.79Z"/>
    <path d="M3099.71,970.95c.54-.26,1.05-.54,1.64-.78.28-.12.73-.17,1.1-.25-.14.23-.11.58-.47.67-.69.2-1.61.2-2.43.28l.16.08Z"/>
    <path d="M3082.8,967.84l-.51.39c-.33-.1-.84-.17-.94-.29-.09-.11.29-.26.46-.39l1,.29Z"/>
    <path d="M3149.49,962.89l-.24.47c-.22-.05-.54-.05-.63-.15-.07-.09.13-.31.21-.46l.66.14Z"/>
    <polygon points="3207.4 788.75 3206.04 788.53 3205.92 787.58 3207.44 788.93 3207.4 788.75"/>
    <path d="M2822.8,709.44c.8-.62,1.42-1.09,1.51-1.16-.11.07-.65.44-1.4.95l-.11.21Z"/>
    <path d="M2822.91,709.23c-.73.6-1.46,1.19-1.71,1.41.22-.18.91-.69,1.6-1.2l.11-.21Z"/>
    <polygon points="3204.2 807.12 3203.8 807.01 3204.22 807.29 3204.2 807.12"/>
    <path d="M3091.23,970.63l-.16.05.16-.05Z"/>
    <path d="M3189.02,954.09l-.06.12.06-.12Z"/>
    <path d="M3188.96,954.22l.06-.12-.06.12Z"/>
    <path d="M2926.83,751.26l-.12.11.12-.11Z"/>
    <path d="M3111.39,980.75l-.16-.07.16.07Z"/>
    <path d="M3143.19,979.27c-.22-.27-.53-.52-.64-.81-.04-.12.34-.3.53-.46l-.15-.03.12,1.36.14-.06Z"/>
    <polygon points="2956.31 947.67 2956.7 947.68 2956.21 947.5 2956.31 947.67"/>
    <path d="M3111.23,980.68l.16.07-.16-.07Z"/>
    <polygon points="3117.25 981.85 3120.18 981.78 3120.34 981.7 3117.1 981.79 3117.25 981.85"/>
    <path d="M3117.1,981.79l.15.06-.15-.06Z"/>
    <path d="M3125.98,982.85l-.16-.06.16.06Z"/>
    <path d="M2853.95,739.83l-.08.17.08-.17Z"/>
    <path d="M2806.11,786.82l-.03-.27.03.27Z"/>
    <path d="M2793.87,775.25v.24s0-.24,0-.24Z"/>
  </g>
  <text class="cls-3" transform="translate(3593.7253 1424.4941) scale(1 1.25)"><tspan class="cls-9" x="0" y="0">German</tspan><tspan class="cls-7" x="599.63" y="0"> </tspan><tspan class="cls-8" x="633.49" y="0">Team</tspan></text>
  <text class="cls-2" transform="translate(4626.2155 1424.4941)"><tspan x="0" y="0"> </tspan></text>
  <text class="cls-2" transform="translate(4667.9392 1424.4941) scale(1 1.25)"><tspan x="0" y="0">Championships</tspan></text>
  <text class="cls-1" transform="translate(3593.7253 1647.3808)"><tspan class="cls-6" x="0" y="0">K</tspan><tspan class="cls-5" x="208.34" y="0">oblenz 2026</tspan></text>
  <text/>
  <g>
    <path class="cls-4" d="M3126.93,1275.97c14.55-.03,16.93-2.22,21.4-4.13-1.83,0-3.67-.05-5.51-.1,1.76-.32,3.52-.64,5.27-1.01l-.41-.03c.06.42.11.84.17,1.27l14.28-2.07c4.76-.67,9.47-1.51,14.21-2.26l-.41.11c2.77-.7,5.75-1.39,8.86-2.09,3.1-.74,6.33-1.47,9.6-2.17,3.27-.71,6.58-1.38,9.84-2.04,3.25-.69,6.46-1.35,9.54-1.95,3.08-.6,6.03-1.15,8.76-1.62,2.72-.51,5.23-.95,7.43-1.3,4.41-.7,7.61-1.03,8.92-.85-2.38,1.82-4.45,3.4-7.33,5.6,3.92-.54,7.67-1.07,11.3-1.57,3.62-.55,7.12-1.09,10.53-1.61,3.42-.53,6.75-1.04,10.05-1.55,3.28-.55,6.53-1.09,9.77-1.64l-.39.14c4.51-1.72,9.04-3.38,13.51-5.17l-.42.16c4.27-2.11,8.75-3.26,13.32-4.01,4.58-.74,9.21-1.2,13.83-1.77l-.37.16c4.36-4.16,13.77-7.96,33.58-11.85,7.52-1.52,15.73-3.41,23.21-5.54,7.35-2.06,13.83-3.57,19.6-4.67,5.78-1.08,10.91-1.64,15.55-1.81,1.73-.07,5.29-.9,8.76-1.52,4.04-2.22,7.62-4.19,10.24-5.63,5.84-1.88,11.35-3.65,16.7-5.37,5.33-1.74,10.51-3.42,15.71-5.12,28.79-9.31,57.16-19.05,86.23-26.31,7.66-1.9,16.98-5.11,25.28-7.98,37.69-13.24,74.88-27.25,112.24-40.99,24.92-9.15,50.28-17.62,74.56-26.24,3.45-.02,6.13-.03,12.06-.05-.5-4.68,12.85-9.27,24.24-13.41,36.62-13.26,73.23-26.51,109.82-39.77,18.74-6.77,37.48-13.42,56.21-20.07l-.36.21c17.21-8.59,36.78-13.81,55.12-20.72,20.66-7.78,43.16-15.16,61.66-23,17.14-7.29,33.4-13.68,51.3-19.5,16.17-5.21,24.52-9.55,31.37-14.94-12.84,4.12-22.93,7.46-35.15,11.48,17.4-9.29,34.25-16.57,57.34-22.12,7.11-1.74,16.4-5.08,24.58-7.83,8.33-2.81,16.52-5.73,24.8-8.59,19.47-6.59,38.97-13.12,58.56-19.31,3.89-1.25,9.72-3.3,11.55-3.44,14.53-1.27,30.37-7.26,45.37-11.7,20.72-6.2,40.78-12.75,62.59-16.14,4.96-.73,12.49-3.15,18.61-4.84,5.17-1.44,10.3-2.87,15.42-4.3,5.12-1.45,10.24-2.8,15.37-4.21h-.33c-3.82,1.94-7.65,3.86-12.09,6.1,8.02-.71,14.19-1.25,20.36-1.79l-.4.15c-3.34-1.45-.6-4.24,6.84-7.12,5.67-2.2,15.93-4.5,24.18-6.59l-.34.13c4.84-1.09,11.17-2.98,14.28-3.15,14.5-.87,20.13-2.03,20.71-4.66.39-1.8-1.21-3.29-1.41-3.74,7.47-3.68,19.28-6.31,30.83-8.6,2.89-.6,5.75-1.2,8.54-1.78,2.78-.57,5.48-1.15,8.02-1.77,5.07-1.24,9.5-2.63,12.73-4.33-6.75.19-12.81-.16-19.05.65-21.37,2.92-42.76,6.64-64.06,10.61l.43-.16c-1.85.53-3.72,1.31-5.53,1.63-34.32,6.12-68.82,13.75-102.36,20.8-7.87,1.71-16.82,3.52-25.33,4.89-8.5,1.4-16.58,2.2-22.71,1.84,29.56-7.85,55.77-14.44,82.07-20.18,6.56-1.47,11.75-2.75,15.65-4.07,3.9-1.32,6.5-2.66,7.9-4.13,1.18-1.24,1.31-2.3,1.92-3.44l-.36.15c1.67-.89,4.21-1.88,4.87-2.58,2.1-2.21,4.89-4.88-5.55-3.86-9.43,1.02-19.23,3.64-26.03,6.85-5,2.33-10.73,4.01-16.81,5.48-6.07,1.48-12.5,2.68-18.93,3.92-7.16,1.45-14.32,2.9-21.3,4.32-6.97,1.48-13.75,2.92-20.17,4.29-2.42-2.57-4.74-5.04-7.08-7.53,3.99-1.07,7.43-2.09,10.42-2.7,31.24-6.3,62.23-11.82,95.58-19.07,8.01-1.78,16.54-2.35,24.55-3.33,8.86-.99,17.43-1.74,25.58-2.5,6.04-1.65,11.8-3.25,16.89-4.8,5.09-1.55,9.55-2.93,12.96-4.31,6.83-2.73,9.54-5.2,5.12-7.31-8.92.31-17.25.27-26.76,1.08-3.68.3-7.37.6-11.09.9-3.72.32-7.46.7-11.24,1.09-3.78.39-7.59.81-11.46,1.27-3.85.49-7.75,1.05-11.7,1.66-32.46,5-65.82,12.29-98.41,18.98-33.65,6.93-69.12,16.92-103.48,26.42-9.14,2.48-18.23,5.11-27.34,7.64-9.09,2.59-18.16,5.17-27.21,7.75-22.16,6.32-44.16,12.74-66.15,19.33l.38-.05-9.29-3.44.32-.02c-5.76,2.69-11.74,5.38-17.2,8.09-2.93,1.44-5.02,2.81-7.48,4.21l13.44-3.36.32-.17c-4.48,1.11-8.95,2.23-13.43,3.34-4.89,2.75-10.34,5.27-16.46,7.71-6.12,2.44-12.93,4.77-20.49,7.24-29.45,9.53-58.96,19.72-88.31,30.08-46.11,16.26-92,33.05-137.82,49.75-3.14,1.14-6.41,2.43-9.42,3.38-36.39,11.51-73.14,23.44-108.83,34.06-21.71,6.46-41.24,14.18-61.42,22.21-6.86,2.71-13.27,5.64-20.15,8.58-12.86,1.38-26.29,4.99-45.33,12.62-19.08,7.63-37.14,11.09-55.77,16.35-1.31.37-2.03-.04-3.03-.09l.45-.05c-16.64,4.54-24.57,9.45-36.61,16.05-9.06,1.56-17.93,2.97-24.44,4.06,0,.09-.03,1.56-.06,3.03-6.4,1.87-12.6,3.96-18.97,5.92-6.36,1.94-12.9,3.69-19.94,4.95-9.63,1.68-25.89,5.78-37.95,11.6-7.02,3.41-16.85,5.79-23.52,6.03,5.39-3.34,12.13-6.4,19.99-9.33,7.85-3,16.85-5.76,26.74-8.65,6.19-1.78,12.24-4.09,18.47-6.08,21.89-6.9,44.02-14.73,65.57-21.2,9.3-2.74,18.06-5.69,26.65-8.65,8.59-3.03,17-6.13,25.56-9.42,17.93-6.86,36.58-14.96,54.03-20.54,57.39-18.38,113.4-40.88,170.22-61.51,14.11-5.12,27.1-12.08,42.46-16.12,2.34-.62,8.46-3.49,10.79-4.92,11.63-7.15,26.99-12.5,43.17-18.02,6.99-2.39,14.17-5.43,21.32-8.07,21.74-8.07,43.55-16.23,65.42-23.96,52.49-18.57,104.98-38.95,158.51-54.61,1.03-.3,2.13-.73,3.21-1.09,28.7-9.54,57.54-18.82,86.55-27.74l-.36.18c6.25-3.06,14.34-6.68,8.8-6.85-4.95-.15-13.17,1.4-24.53,5-9.2,2.98-18.71,5.29-28.03,8.23-3.4,1.07-6.76,2.89-10.13,4.36l.35-.18c-25.71,7.91-51.3,16.05-76.79,24.38-2.09.69-4.2,1.53-6.31,2.28-27.98,9.98-55.75,20.42-83.59,30.43-37.71,13.56-75.6,24.59-112.93,40.31-.89.37-2.04.63-3.06,1.01-22.94,8.36-45.88,16.73-68.81,25.09-18.65,6.79-36.78,14.12-56.04,20.01-15.64,4.78-33.14,11.4-49.58,17.52-8.77,3.28-18.87,7.55-25.26,10.99-18.35,9.81-37.7,18.42-63.23,26.04-21.55,6.42-43.34,13.8-65.3,21.89-16.52,6.05-33.48,11.35-48.78,14.24l.45-.06c-6.28,1.9-12.55,3.8-18.83,5.7-8.18,2.53-16.92,5.23-25.32,7.82-8.4,2.58-16.52,4.79-23.51,6.23-23.13,4.65-43.01,11-62.99,18.09-6.1,2.12-12.07,4.02-18.1,5.74-6.03,1.66-12.11,3.12-18.42,4.45-7.42,1.5-14.51,3.12-21.57,4.91-7.06,1.7-14.09,3.69-21.4,5.72-6.58,1.81-14.03,3.78-21.45,5.31-3.71.79-7.4,1.52-10.97,2.17-3.57.62-7.01,1.12-10.21,1.52-8.75,1.13-17.33,2.52-25.85,4.04-4.26.74-8.5,1.42-12.75,2.11-2.12.33-4.24.66-6.36.99-2.12.3-4.24.56-6.36.81-3.76.44-7.99,1.37-12.21,2.44-4.22,1-8.44,2.16-12.19,3.14-1.65.43-3.21.88-4.71,1.33-1.5.43-2.93.86-4.34,1.3-2.81.88-5.5,1.76-8.31,2.61-4.57.25-8.78.34-12.93.47-4.15.1-8.25.31-12.57.31-6.34,2.46-12.07,4.56-25.59,5.66-4.76.45-8.9.85-12.49,1.4-3.59.54-6.63,1.19-9.16,1.91-5.04,1.32-8.05,2.99-9.31,4.74-2.81.11-5.6.33-8.35.48-2.75.14-5.47.31-8.18.49-2.71.17-5.4.39-8.08.52-2.67.11-5.34.2-8,.26-2.66.06-5.32.09-7.98.04-2.65-.1-5.3-.26-7.96-.49-2.66-.24-5.32-.55-7.99-.97-2.66-.49-5.33-1.08-8-1.79-.73-.19-3.67-.09-5.63-.16-14.08-.79-28.35-2-42-3.6-4.11-.43-7.35-.76-10.53-1.46-3.19-.66-6.35-1.54-10.31-2.98-3.84-1.48-9.22-3.16-15.05-4.69-2.88-.85-5.86-1.7-8.81-2.48-2.94-.8-5.87-1.47-8.55-2.26-2.81-.79-5.5-1.54-8.11-2.28-1.3-.38-2.59-.75-3.86-1.14-1.25-.43-2.49-.86-3.71-1.29-4.89-1.78-9.66-3.48-14.37-5.86-8.79-4.09-18.11-7.95-23.72-7.43l-.27-.17-.54,1.25.3.08c-.58.75-1.16,1.5-1.82,2.34-3.04-1.4-5.98-2.75-8.84-4.07-1.43-.66-2.84-1.3-4.23-1.95-1.37-.69-2.72-1.37-4.05-2.05-2.68-1.35-5.3-2.67-7.9-3.97-2.6-1.3-5.08-2.76-7.61-4.12l.26.21c-3.34-2.28-6.73-4.45-9.95-6.89l.33.1c-1.34.2-2.89.16-5.29-.67-2.38-.85-5.68-2.36-10.26-5.53-2.98-1.99-5.97-3.99-8.97-6-2.94-2.09-5.88-4.19-8.83-6.29-2.98-2.04-5.83-4.29-8.71-6.48l-4.31-3.29c-1.44-1.09-2.88-2.19-4.26-3.36.47-2.45,9.45,1.04-2.98-10.87-1.88.65-3.67.93-5.68.67-1.98-.29-4.15-1.17-6.85-2.76-5.41-3.17-12.9-9.32-24.21-20.68-6.48-6.38-13.16-13.31-19.22-20.12-2.94-3.5-5.73-6.96-8.22-10.35-.62-.85-1.23-1.68-1.8-2.53-.56-.86-1.09-1.72-1.61-2.57-1.03-1.7-1.96-3.37-2.78-5.01-.73-1.46-3.47-4.64-5.26-7.04l.34.29c-6.08-5.09-9.66-8.33-13.06-12.6-1.64-2.2-3.22-4.67-5.04-7.79-.91-1.56-1.87-3.28-2.93-5.2-.53-.97-1.09-1.97-1.65-3.06-.55-1.1-1.12-2.26-1.73-3.48-1.42-.71-2.72-1.36-4.02-2.01l.28.28c-1.59-2.53-3.22-5.31-4.83-7.94-1.62-2.62-3.07-5.2-4.56-7.16-2.22-2.98-4.31-5.89-6.3-8.77-1.98-2.89-3.72-5.86-5.45-8.78-1.71-2.94-3.34-5.89-4.9-8.9-1.52-3.03-2.9-6.18-4.27-9.39-.96-2.28-2.79-5.69-4.76-9.04-1.91-3.39-3.91-6.76-5.39-8.82-2.4-3.39-4.66-6.77-6.67-10.21-1.97-3.47-3.79-6.96-5.48-10.48-3.46-6.98-6.15-14.26-8.72-21.69l.14.41c-1.33-2.44-2.77-4.84-4.14-7.28-1.34-2.46-2.67-4.92-3.9-7.42-1.22-2.5-2.34-5.03-3.26-7.62-.92-2.59-1.65-5.24-1.99-8.03l.09.43c-7.04-16.32-13.84-32.81-20.01-49.26.57-2.59.94-4.29,1.17-5.34-1.25-4.76-2.47-9.1-3.5-13.37-1.04-4.26-2.05-8.36-3.13-12.52-.71-2.75-1.49-5.88-2.31-8.85-.78-2.99-1.58-5.85-2.45-8.04-2.19-5.56-4.69-9.11-7.06-13.54l.17.33c-1.14-3.59-2.2-7.31-3.29-10.96-1.07-3.66-2.09-7.28-2.92-10.74-1.66-6.69-3.2-13.42-4.88-20.07-1.66-6.66-3.5-13.24-5.18-19.87-1.73-6.61-3.54-13.19-5.43-19.75-1.81-6.58-3.63-13.17-5.55-19.72l.19.43c-1.47-3.5-2.94-7-3.47-8.26-.83-7.22-1.02-13.36-1.91-16.33-1.25-4.16-3.56-8.48-4.39-8.18-1.14.42-1.31,5.14-1.94,8.26-.99-4.11-1.6-6.17-1.93-8.03-.31-1.67-.61-3.34-.92-4.99-.29-1.65-.58-3.3-.87-4.93-.59-3.26-1.21-6.46-1.84-9.6-1.26-6.29-2.69-12.33-4.08-18.16-1.38-5.83-2.88-11.41-4.48-16.73-1.59-5.32-3.37-10.36-5.11-15.17.19,1.66.37,3.19.37,3.26,0-.11-.12-1.42-.25-2.94-2.58-9.1-1.56-18.12-5.31-29.25-2.82-8.67-5.35-18.74-7.58-29.61-2.11-10.9-3.84-22.61-5.26-34.53-1.07-10.06-2.58-18.04-4.72-21.86-5.02-8.96-9.94-16.41-13.5-7.87,1.54,16.48,2.87,32.51,4.76,48.62.62,5.55,1.03,10.48,1.26,14.84.23,4.36.36,8.15.26,11.45-.17,6.59-1.05,11.19-2.45,14.28-1.76,3.89-3.14.63-6.97-15.73-1.34,1.44-2.69,2.88-3.77,4.04-3.44-10.01-6.12-18.58-8.9-27.15l.12.38c-2.93-8.22-5.92-16.46-8.71-24.73-.26,9.73-.27,14.6-.78,15.8-.5,1.2-1.45-1.26-3.33-6.19.43-1.53.86-3.04,1.55-5.47-4.3-7.49-6.62-11.97-8.31-19.4-1.74-7.42-2.65-17.81-4.19-37.1-1.52-2.33-3.19-5.74-4.66-6.96-5.43-4.49-5.97,1.66-2.84,29.34.7,6.59,2.38,15.97,2.16,19.23-.4,6.77.12,16.38.45,25.1.38,8.72.44,16.58-1.15,19.88-.47.96-.05,6.48-.04,11.61,2.02,1.79,3.58,3.16,5.05,4.47,2.69,11.35,3.37,20.07,3.77,28.32.46,8.25.71,16.02,2.36,25.47-1.26.58-2.28,1.06-3.81,1.77.65,3.38,1.29,6.66,1.9,9.82.64,3.16,1.26,6.21,1.85,9.13,1.2,5.83,2.36,11.1,3.63,15.63,2.07,7.51,4.88,11.47,7.68,17.75.42,4.32.84,8.64,1.26,12.98l.65,6.51.73,6.51v-.39s1.5,6.86,1.5,6.86l-.15-.36,2.44-.12.24-2.7c.02.6.11,1.44.05,1.74-.09.4-.3.37-.45.53l1.9,14.34c.39.49.77.99.86,1.11-.08-.14-.49-.83-.89-1.52.69,6.88,2.07,13.74,3.67,20.59,1.62,6.85,3.56,13.66,5.88,20.36,2.46,7.29,4.65,13.94,4.42,19.98-2.21-5.87-4.34-11.55-7.15-19.05,1.49,11.41,2.53,20.39,3.85,28.86,2.18,6.66,3.89,12.69,5.58,16.87,3.33,8.15,6.73,16.65,9.92,25.64,1.61,4.49,3.26,9.09,4.95,13.8,1.66,4.72,3.3,9.57,4.93,14.56,2.09,6.2,4.81,11.98,7.23,17.94l-.06-.41c.37,5.55.91,11.58.14,13.65-.78,2.08-3.16.27-8.28-10.02-.9-8.51-4-17.64-7.08-27.07-1.58-4.71-3.25-9.47-4.78-14.22-1.55-4.75-2.79-9.52-3.78-14.2-3.85-4.66-7.56-10.7-8.71-5.22,1.37,4.98,2.67,10.17,3.99,15.15.34,1.24.67,2.48,1,3.69.37,1.21.73,2.39,1.09,3.56.73,2.33,1.48,4.55,2.26,6.61,5.68,15.28,11.22,30.05,16.32,46.19l-.2-.35c1.1,19.45,11.56,46.91,25.86,77.66-.89-3.62-1.74-6.79-2.41-9.76-.67-2.97-1.3-5.73-1.92-8.48l.09.42c1.66.93,2.33-.04-.53-7.85l.09.39c1.93,3.2,3.74,6.62,5.48,10.21.87,1.79,1.69,3.63,2.56,5.49.87,1.85,1.73,3.74,2.58,5.64,3.43,7.62,6.52,15.66,10.13,23.35l-.32-.5,3.3,7.07-.11-.43c2.73,3.98,5.38,7.96,8.25,11.87l-.39-2.64c.17.58.46,1.38.47,1.68.01.4-.21.41-.33.59,4.67,8.38,9.17,16.81,14.13,25.05l-.12-.38c-.98.52-1.96,1.04-3.14,1.66,1.34,2.63,2.67,5.22,3.98,7.79,1.31,2.57,2.59,5.11,3.98,7.59,2.72,4.98,5.39,9.88,8.06,14.76,1.3,2.45,2.74,4.84,4.13,7.25,1.4,2.41,2.8,4.81,4.21,7.23,1.41,2.42,2.83,4.84,4.25,7.28,1.5,2.41,3,4.83,4.52,7.28-1.89-.48-4.11-2.27-6.53-4.93-2.39-2.67-4.87-6.26-7.49-10.23-1.3-1.99-2.62-4.08-3.94-6.21-.66-1.07-1.32-2.15-1.98-3.23l-1.9-3.28c-2.53-4.38-5.03-8.69-7.42-12.5,1.21,3.9.49,5.87-1.1,4.37l.28.34c1.52,3.4,2.83,6.52,3.89,9.29,1.05,2.77,1.84,5.2,2.41,7.18,1.08,3.99.9,6.38-.98,6.68,4.05,4.4,6.04,6.56,7.97,8.65.46.97.92,1.92,1.37,2.87.48.94.95,1.88,1.42,2.81.95,1.87,1.9,3.73,2.88,5.64,1.96,3.81,4,7.78,6.29,12.25,6.42,5.07,10.94,7.52,17.46,13.99,7.45,7.03,7.19,3.67,7.68,1.06-.08-.59-.29-1.36-.18-1.69.05-.14.78.62,1.2.96l1.03-.7c-1.32-3.69.31-3.03,4.88,3.29,2.31,3.16,4.44,6.42,6.68,9.61,2.26,3.19,4.51,6.37,6.76,9.56l-.19-.36c-4.07-2.6-8.97-8.08-13.82-16.18-1.85-1.88-3.71-3.75-5.57-5.63l-1.11.81c2.97,4.61,5.9,9.16,9,13.38,3.22,4.15,6.61,7.97,10.34,11.2.98.84,2.38,2.45,3.92,4.25,1.59,1.77,3.31,3.74,4.82,5.37l-.33-.27c2.67,1.23,4.23,3.35,5.08,6.08l-.21-.38c1.32,1.43,2.53,2.71,3.65,3.86,1.13,1.14,2.22,2.11,3.19,2.97,1.96,1.72,3.55,2.94,4.85,3.74,2.59,1.6,3.98,1.54,4.65.45.1-.17,2.56,2.26,4.28,3.8,1.2,2.85,2.52,5.58,3.87,8.56,3.39,2.93,5.74,4.96,8.09,6.99l-.34-.27c.41-.14.78-.33,1.1-.58l-.33-.25c1.73,1.78,4.04,3.68,6.01,5.5,2,1.8,3.75,3.45,4.61,4.53,1.48,1.87,2.76,3.34,3.88,4.52,1.12,1.18,2.15,2.01,3.04,2.68,1.8,1.32,3.2,1.87,4.68,2.42l-1.01-1.16.61.9c1.35,1.76,2.69,3.53,4.29,5.63.81,1.05,1.68,2.19,2.65,3.46,1.01,1.24,2.12,2.6,3.36,4.12,1.97-2.28,3.35-3.88,5.25-6.08,2.77,2.98,5.41,5.82,7.95,8.55,1.26,1.38,2.55,2.68,3.82,3.94,1.27,1.27,2.52,2.53,3.75,3.76,2.47,2.47,4.88,4.88,7.25,7.24,2.45,2.29,4.87,4.54,7.29,6.79l-.36-.36c1.67,1.18,3.34,2.35,4.99,3.51.82.58,1.64,1.15,2.45,1.72.83.54,1.65,1.08,2.45,1.61,3.23,2.1,6.26,4.08,8.9,5.8,5.12.92,9.39,1.46,14.38,2.12,3.08,2.43,5.41,4.26,7.36,5.8,1.98,1.5,3.61,2.66,5.22,3.85,2.12-.08,4.28.76,6.42,2.14,2.14,1.37,4.22,3.34,6.3,5.32-2.23-1.2-4.38-2.55-6.56-3.85l-6.51-3.94c-2.52-.51-5.1-.94-7.59-1.55l.41.17c-1.38.17-5.2-.85-3.7.73.96.99,2.12,2.22,3.44,3.48,1.33,1.24,2.78,2.55,4.23,3.8,2.9,2.51,5.82,4.79,7.78,5.8,1.72.9,3.25,1.7,4.62,2.41,1.36.73,2.55,1.42,3.61,2.07,2.12,1.31,3.73,2.48,5.17,3.6,1.45,1.12,2.73,2.2,4.21,3.3,1.51,1.05,3.21,2.13,5.47,3.3,3.86.03,7.4.34,11.04,1.1,3.65.73,7.46,1.78,11.75,3.52,2.15.85,4.42,1.89,6.89,3.05,2.49,1.11,5.16,2.38,8.07,3.85,5.82,2.99,12.67,6.51,20.93,10.75-5.56-1.23-11.47-2.72-15.67-3.44-4.1-.77-6.52-.58-9.7-.82l-.2-.18c3.74,1.69,7.19,3.14,10.44,4.32,3.27,1.11,6.32,2.03,9.22,2.81,2.9.77,5.64,1.45,8.32,1.98,2.69.5,5.29.92,7.89,1.35l-1.13-.5.65.42c9.45,2.1,19.93,4.09,28.16,5.12,4.17.4,5.2.05,4.02-.77-.59-.41-1.73-.93-3.31-1.54-1.57-.63-3.57-1.4-5.88-2.2l.37.18c.1-.4.19-.8.29-1.21-2.28-1.11-4.56-2.21-6.85-3.32-1.71-.63-3.43-1.24-5.13-1.9.85.29,1.9.52,2.52.78.9.36,1.49.72,2.21,1.08,2.3,1.11,4.6,2.22,6.89,3.33l5.63,1.55,5.67,1.37,11.33,2.72c3.79.81,7.57,1.62,11.35,2.42l5.66,1.24c1.88.4,3.77.74,5.66,1.13,6.21,1.23,13.11,2.66,19.57,3.8,3.23.61,6.34,1.23,9.19,1.87,2.85.64,5.45,1.15,7.64,1.76,5.65,1.51,11.6,2.87,17.73,3.77,6.13.97,12.43,1.84,18.77,2.36,3.18.28,6.37.57,9.56.85,3.19.28,6.37.42,9.55.64,3.17.22,6.34.43,9.48.64,3.13.19,6.24.39,9.32.58-.74-.51-1.47-1.02-2.2-1.53.57.52,1.14,1.05,1.71,1.57l7.32,1.69,3.67.84,3.67.76,14.73,3.03-.41.07c2.4-.83,4.8-1.67,7.19-2.5l-.3.09c3.79-1.73,7.39-3.47,11.34-5.19,2.62-1.16,6.06-1.93,10.23-2.26,4.17-.35,9.07-.21,14.57.08l-.39-.05,14.89,5.31-.53-.07ZM2789.41,1211.14c-2.15-1.16-4.29-2.32-6.43-3.47l.35.27,5.73,3.1c2.48,1.32,5.03,2.48,7.54,3.73l-.28-.22c-2.3-1.14-4.64-2.22-6.91-3.41ZM2596.22,1038.06l-.18-.36.18.36ZM2609.51,1045.97l-.17-.35.17.35ZM4289.34,863.92l1.12-.47.64-.39-1.08.44-.67.42ZM2550.77,747.62c.02-.09.13-.62.25-1.16l-.18-.33c-.03.7-.07,1.41-.07,1.5ZM4320.19,871.35c-23.66,7.35-48.74,13.79-70.98,23.05-3.58,1.46-8.48,2.94-14.56,4.65-6.08,1.7-13.34,3.64-21.6,6.14,10.56-5.14,16.29-8.7,22.43-10.6,28.03-8.61,57.18-19.27,84.4-23.08l7.36-2.04c.4-.47.45-.89,1.35-1.44.47-.3,2.45-.82,3.75-1.22-.36.26-.51.51-1.11.79-1.32.61-2.86,1.26-4.31,1.89l-6.73,1.86ZM2446.41,501.09c-.06.18-.42-1-.65-1.55.44-.33.89-.67,1.34-1.01l-.11-.34c-.19,1-.34,2.16-.58,2.9ZM2557.26,965.09c-.47-.55-1.11-1.58-1.67-2.39.38.15.63-.19,1.18.56,1.08,1.48,2.32,3.55,3.49,5.38l1.06-.69-.25-.3c1.85,2.86,3.44,5.55,4.57,7.72,1.14,2.16,1.7,3.85,1.33,4.76l.26.31c-1.21-2.02-2.45-4.02-3.63-6.05l-3.48-6.12c-.95-1.04-1.86-1.99-2.86-3.17ZM3357.91,1142.8c-9.72,3.03-11.76,2.69-10.5-.31,5.21.24,7.7.35,10.19.46,2.51-.62,5.01-1.28,7.51-1.94-1.12-.83-2.24-1.65-3.76-2.78,13.35-2.14,6,.98,3.41,2.8l-6.85,1.76ZM2500.98,854.55c-1.19-2.7-2.43-5.38-3.53-8.1,1.13,1.16,2.25,2.33,3.42,3.47l-.21-.34.33,4.97ZM2552.63,974.88c1.18-1.01,4.17,4.68,7.22,9.89l-.14-.36-2.1,1.28.55,1.2-.24-.83c-3.72-5.29-6.41-10.21-5.29-11.17ZM2632,1083.86c-.83-3.02-1.41-5.84-2.07-8.6-.7-.9-1.69-2.03-2.06-2.65-1.99-3.29-3.81-6.45-5.68-9.64,1.21,1.09,2.41,2.18,3.62,3.26,1.36,2.73,2.78,5.52,4.05,8.15.25.51-.18.39-.29.56,1.76,2.11,3.24,4,4.61,5.57,1.36,1.58,2.5,2.91,3.44,4.01,1.86,2.21,2.85,3.52,3.02,4.08.33,1.11-2.64-.81-8.63-4.73ZM4075.43,923.73c-1.24,1.13-1.95,2.61-3.83,3.32-8,3.01-16.32,5.83-27.43,9.76,7.7-6.31,19.13-9.88,31.63-13.14l-.38.06ZM3602.31,1144.11c8.35-.44,4.34,2.35-3.52,5.16-7.53,2.7-15.17,5.53-23.23,8.25-8.05,2.75-16.51,5.4-25.63,7.79,4.03-2.51,6.72-4.19,9.42-5.87l-.34.18c15.51-4.29,30.97-8.73,43.31-15.51ZM3947.52,964.61c-39.51,14.82-79.14,29.21-118.4,44.75-20.12,7.96-41.6,14.97-62.41,22.15-4.14,1.43-8.04,1.92-16.53,3.84,10.71-4.41,16.33-6.99,22-9.03,11.51-4.15,20.84-7.64,31.16-13.13,8.04-4.27,24.33-10.49,35.43-13.96,23.7-7.4,45.87-16.03,67.88-25.34,40.05-16.92,77.63-27.42,116.27-39.2-23.37,11.23-49.98,20.37-75.41,29.91ZM4101.14,913.57c27.71-10.27,55.66-20.24,85.29-30.47,1.86.91,3.3,1.62,4.84,2.38-6.59,2.57-12.87,5.02-19.09,7.45-6.21,2.46-12.37,4.91-18.73,7.43-2.23-.42-4.06-.76-6.74-1.26-4.14,2.41-6.95,4.79-11.07,6.28-10.89,3.93-22.33,7.7-33.48,11.27-3.31,1.07-6.39,1.16-11.21,1.98,4.11-2.06,6.8-3.8,10.2-5.06ZM4248.45,869.09c-1.91,2.51-5.33,4.45-9.81,6.08-4.48,1.65-10.01,3.01-16.16,4.31,7.41-2.98,14.81-6.01,25.97-10.4ZM2458.43,713.46c.39.31.74.42,1.19,1.04.15.2.79,2.41.78,2.51-.08.69-.27,1.06-.42,1.54-.52-1.7-1.03-3.39-1.54-5.08ZM2406.17,379.71c.21-.79.39-1.82.66-2.23.1-.15.63,1.66.63,1.8.02,1.59-.03,3.02-.06,4.33-.41-1.3-.82-2.6-1.23-3.9ZM2461.5,767.2c-.2-.05-.46.15-.59-.19-.61-1.64-1.18-3.43-1.77-5.17.2.06.4.11.6.16.58,1.73,1.17,3.46,1.75,5.2ZM2423.39,568.16c-.14.15-.29.73-.42.36-.38-1.08-.75-2.55-1.12-3.88l.43-.37c.37,1.29.74,2.59,1.11,3.89ZM2620.15,923.46c.67.92,1.35,1.74,2.01,2.78.31.49.57,1.38.85,2.09-.5-.77-1-1.54-1.49-2.31-.46-.85-.91-1.71-1.37-2.56ZM2844.29,1234.03c-.61-.28-.68-.54-.99-.81.88.27,2.02.54,2.56.79.61.28.67.54.97.81-.87-.26-2-.54-2.54-.79ZM2508.33,879.73c.02.27-.44-.34-.69-.56-.06-.63-.12-1.25-.2-2.09.43,1.24.87,2.34.89,2.66ZM3726.96,1044.59l-1.82.82.06-.4,1.76-.43Z"/>
    <path class="cls-4" d="M4462.32,863.63c5.26-.02,10.53.04,15.78.06-15.12,3.22-14.77,1.36-15.38-.21l-.4.15Z"/>
    <path class="cls-4" d="M2847.23,1139.18c-1.84-.65-3.29-1.15-4.5-1.65-1.22-.48-2.23-.9-3.21-1.38-1.14-.56-3.13-2.2-2.91-2.17,1.29.18,3.23.46,4.71,1.19,1.68.8,3.09,2.19,5.91,4Z"/>
    <path class="cls-4" d="M2769.01,1082.55l3.52,2.76,3.61,2.63,7.2,5.27-.22-.25c-3.14-.96-4.93-1.59-6.77-2.94-.92-.67-1.86-1.53-2.99-2.68-1.15-1.13-2.43-2.66-4.05-4.64l-.29-.15Z"/>
    <path class="cls-4" d="M4454.52,783.77c-1.74.46-3.76,1.14-5.12,1.33-1.37.18-2.09-.1-3.09-.18,1.77-.5,3.78-1.14,5.27-1.36,1.29-.19,1.99.12,2.94.21Z"/>
    <path class="cls-4" d="M4374.84,840.53c-2.58.33-5.18.64-7.76,1,2.46-.31,4.94-.56,7.4-.84l.36-.16Z"/>
    <path class="cls-4" d="M4144.99,874.51c3.72-1.5,7.44-3,11.15-4.5.2.28.41.57.6.84l-12.19,3.72.43-.06Z"/>
    <path class="cls-4" d="M2727.63,1056.1c-.38-.14-.77-.28-1.15-.42-.94-1.18-1.94-2.39-2.74-3.48-.12-.16.69.23,1.07.37.94,1.18,1.88,2.36,2.82,3.53Z"/>
    <path class="cls-4" d="M2786.13,1099.53c-.89-.17-1.68-.26-2.71-.56-.44-.14-1.41-.69-2.12-1.09.13-.25-.12-.94.48-.64,1.29.61,3.06,1.68,4.63,2.57l-.27-.27Z"/>
    <path class="cls-4" d="M2585.93,831.5c-.36-.74-.88-1.64-1.05-2.17-.17-.55,0-.74.03-1.08.36.73.89,1.64,1.05,2.16.17.56,0,.74-.03,1.09Z"/>
    <path class="cls-4" d="M3105.44,1169.81c-1.16.26-2.22.58-3.54.75-.53.07-2.43-.05-2.4-.1.19-.28.77-.57,1.22-.85,1.57.1,3.14.16,4.72.2Z"/>
    <path class="cls-4" d="M2684.75,1012.61l-4.76-7.34,5.41,6.28-.13-.29c-.29.36-.58.71-.86,1.06l.34.29Z"/>
    <path class="cls-4" d="M2595.39,868.01l.98-1.41c-.37.33-.74.66-1.12,1l.14.41Z"/>
    <path class="cls-4" d="M2685.4,1011.55c1.22,1.14,2.45,2.2,3.71,3.43.59.57,1.29,1.44,1.93,2.17-.62-.42-1.22-.62-1.87-1.31-1.28-1.38-2.62-3.01-3.91-4.58l.13.29Z"/>
    <path class="cls-4" d="M4144.56,874.57c-.97,2.01-6.24,3.8-12.95,5.51l.32-.02,13.06-5.55-.43.06Z"/>
    <path class="cls-4" d="M2786.4,1099.8c.59-.06.92-.35,1.88-.09.48.13,2.11,1.25,3.22,1.93-.41-.06-.67.02-1.25-.22-1.28-.54-2.73-1.24-4.12-1.88l.27.27Z"/>
    <path class="cls-4" d="M4175.44,943.61c-.66-.05-1.05-.08-1.43-.1.75-.3,1.51-.61,2.26-.91-.24.29-.48.59-.83,1.01Z"/>
    <path class="cls-4" d="M2783.34,1093.21c1.05.44,2.07.77,3.23,1.24.54.22,1.34.69,2.02,1.05-.37.03-.51.36-1.17.03-1.29-.65-2.9-1.63-4.31-2.57l.22.25Z"/>
    <path class="cls-4" d="M2757.01,1069.76c-.35-.11-.7-.22-1.04-.33-.48-.51-1.26-1.24-1.36-1.47-.08-.2.6.15.95.26l1.45,1.54Z"/>
    <path class="cls-4" d="M2880.49,1137.88c-.37.02-.75.04-1.11.06-.65-.32-1.64-.73-1.85-.93-.16-.16.64-.07,1.01-.09l1.96.96Z"/>
    <polygon class="cls-4" points="3541 1084.03 3543.53 1082.29 3545.67 1082.15 3540.55 1084.08 3541 1084.03"/>
    <path class="cls-4" d="M4385.23,882.85c-1.53.24-2.7.43-2.88.45.19-.02,1.18-.14,2.56-.3l.32-.15Z"/>
    <path class="cls-4" d="M4384.91,883.01c1.42-.25,2.84-.5,3.34-.59-.42.06-1.72.25-3.02.44l-.32.15Z"/>
    <polygon class="cls-4" points="3505.03 1080.61 3505.88 1080.09 3504.58 1080.67 3505.03 1080.61"/>
    <path class="cls-4" d="M2769.3,1082.69l-.29-.15.29.15Z"/>
    <path class="cls-4" d="M3001.36,1172.19l-.35.03.35-.03Z"/>
    <path class="cls-4" d="M3001.01,1172.22l.35-.03-.35.03Z"/>
    <path class="cls-4" d="M4217.82,835.93l.36-.18-.36.18Z"/>
    <path class="cls-4" d="M2798.27,1114.73l-.25-.24.25.24Z"/>
    <path class="cls-4" d="M2857.45,1145.59c-.28-.44-.72-.95-.76-1.29-.01-.14.82.07,1.27.12l-.27-.17-.54,1.25.3.08Z"/>
    <polygon class="cls-4" points="2582.19 838.09 2582.67 838.75 2582.11 837.67 2582.19 838.09"/>
    <path class="cls-4" d="M2798.03,1114.49l.25.24-.25-.24Z"/>
    <path class="cls-4" d="M2808.04,1122.06c1.76,1.01,3.52,2.02,5.28,3.03l.33.1-5.84-3.34.24.21Z"/>
    <path class="cls-4" d="M2807.8,1121.85l.24.21-.24-.21Z"/>
    <path class="cls-4" d="M2823.26,1131.98l-.26-.21.26.21Z"/>
    <path class="cls-4" d="M4374.48,840.69l.36-.16-.36.16Z"/>
    <path class="cls-4" d="M4504.01,833.12l-.43.16.43-.16Z"/>
    <path class="cls-4" d="M4493.01,850.05l.34-.13-.34.13Z"/>
  </g>
  <g>
    <path class="cls-10" d="M2824.15,1449.85c1.76-.21,3.34-.43,4.75-.65,1.4-.21,2.63-.43,3.74-.66,2.21-.46,3.9-.97,5.28-1.51,2.78-1.09,4.31-2.23,6.36-3.31-1.76.1-3.5.17-5.28.32,1.67-.51,3.31-.95,4.96-1.41h-.39c.09.41.18.82.27,1.24,4.48-.95,9.01-1.99,13.42-2.8l6.66-1.3c2.21-.41,4.39-.75,6.59-1.13l-.38.11c5.16-1.44,11.03-2.56,17.1-3.63,2.99-.43,6.03-.85,9.03-1.23,2.99-.35,5.89-.52,8.7-.74,2.82-.26,5.44-.23,7.89-.26,1.22,0,2.4,0,3.51,0,.56,0,1.1.01,1.63.02.52.04,1.02.07,1.5.1,3.88.29,6.66.65,7.72,1.1-2.36,1.26-4.41,2.36-7.27,3.89,1.67.16,3.3.31,4.91.46.8.07,1.6.14,2.38.21.78.09,1.54.22,2.3.32,1.52.22,3,.43,4.47.64,1.47.21,2.93.37,4.32.68,2.8.54,5.53,1.08,8.23,1.6,2.65.66,5.27,1.3,7.89,1.95h-.35c1.01-.03,2,.03,2.98.1l2.99.18c1.99.14,4.03.17,6.02.39l-.37-.05c1.99.04,3.94.31,5.84.74.95.22,1.89.47,2.82.76.93.26,1.82.71,2.72,1.09,3.58,1.65,7.05,3.45,10.44,5.58l-.34-.07c1.31-.27,2.84-.34,4.65-.18.9.08,1.87.22,2.92.43,1.04.25,2.14.6,3.33,1.01,2.37.85,5.1,1.9,8.16,3.46,3.03,1.68,6.45,3.62,10.24,6.15,2.85,2.03,5.87,4.08,8.95,6.08,3.04,2.12,6.09,4.3,9.1,6.28.73.49,1.45.98,2.16,1.45.7.5,1.38,1.03,2.04,1.53,1.33,1.02,2.61,2.02,3.84,3,1.23.98,2.4,1.95,3.52,2.9.56.48,1.11.95,1.65,1.42.52.5,1.04.99,1.54,1.48,2,1.96,3.81,3.86,5.45,5.7,1.63,1.87,3.11,3.59,4.36,5.48.94,1.38,3.46,3.82,5.75,6.29.98.52,1.93,1.02,2.85,1.51.46.24.91.48,1.35.72.22.12.44.23.65.35.24.14.47.27.7.41,1.85,1.08,3.5,2.05,4.9,2.86,9.97,8.57,18.65,15.9,27.36,23.46,24.05,20.86,47.85,41.67,69.31,64.73,5.65,6.07,13.24,13.11,20.01,19.38,15.4,14.25,30.7,28.5,45.71,42.9,15,14.39,29.75,28.97,43.63,43.8l3.47,3.72,3.37,3.73c2.24,2.49,4.48,5,6.59,7.5l3.21,3.75c1.08,1.25,2.04,2.49,3.06,3.73l3.02,3.73,2.8,3.65c3.76,4.83,6.99,9.65,8.95,13.05.19.37.39.74.59,1.1l.31.54c.06.1.1.15.17.3l.23.48c.61,1.28,1.22,2.55,1.83,3.82.64,1.27,1.15,2.54,1.72,3.8.54,1.26,1.15,2.52,1.62,3.78-.02,1.47-.05,2.78-.07,4.35-.07,1.55-.22,3.35-.38,5.76,1.17-.17,2.2.38,3.2,1.45.5.54.98,1.2,1.45,1.97.47.77.84,1.63,1.25,2.58.85,1.9,1.41,4.06,2,6.32.46,2.23.94,4.57,1.18,6.73,1,6.96.9,13.44.1,19.37-.47,2.94-1.12,5.74-1.94,8.43-.9,2.65-1.96,5.19-3.19,7.64-1.32,2.41-2.8,4.75-4.48,7.02-1.75,2.23-3.71,4.4-5.85,6.5-2.24,2.05-4.62,4.07-7.27,5.96-.64.49-1.37.92-2.04,1.39-.68.46-1.36.94-2.11,1.36l-1.54.93c-.37.18-.74.36-1.1.58l-.38.2c-1.52.81-3.23,1.15-4.9,1.36-.42.04-.84.13-1.27.11-.21,0-.42.02-.63.05-.11.01-.2.03-.33.03h-.44c-1.38.07-3.27.05-5.04.04-7.48-.2-16.4-1.27-25.53-2.81h.39c-9.01-.36-18.5-2.19-28.05-4.55-9.57-2.36-19.25-5.29-28.95-7.86-21.88-5.78-45.2-14.02-65.53-19.7-18.85-5.27-36.45-10.95-54.99-18.34-16.73-6.69-26.44-9.03-35.65-9.53,13.28,5.47,23.77,9.68,36.48,14.66-20.45-4.39-39.16-10.19-61.74-21.58-6.96-3.51-16.79-7.28-25.27-10.8-8.64-3.59-17.26-6.96-25.78-10.55l-6.99-2.97-7.02-3.06c-.73-.32-1.51-.66-2.21-.95l-1.7-.69-3.16-1.25-6.18-2.4-12.26-4.64c-8.16-3.05-16.33-6.01-24.51-8.92-4.25-1.52-10.74-3.59-12.48-4.61-13.84-8.15-31.96-13.06-48.48-18.23-22.89-7.18-45.56-12.85-68.67-21.37-5.25-1.95-13.93-3.75-20.88-5.3-11.77-2.62-23.46-4.89-35.31-6.99l.34.14c4.82-.03,9.64,0,15.23.07-8.57-3.1-15.22-5.41-21.94-7.64l.49.04c2.86,2.82-1.21,4.02-10.26,3.56-6.89-.36-18.7-2.42-28.47-3.37h.42c-5.68-.71-13.28-1.14-16.8-1.91-2.06-.44-3.97-.85-5.74-1.23-1.78-.34-3.42-.62-4.92-.87-2.99-.51-5.49-.75-7.48-.84-3.98-.21-6.08.39-6.74,1.61-.91,1.66.55,3.49.65,3.96-9.47,1.84-23.57,1.93-37.84,3.78-7.12.93-14.27,2.3-20.63,4.28-6.36,1.94-11.94,4.72-15.69,7.49,8.59-2.62,16.07-3.19,23.56-4.47,6.43-1.03,12.79-1.64,19.1-2.03,6.3-.33,12.54-.41,18.73-.3,12.37.25,24.55,1.27,36.58,2.72l-.51.02c2.15.06,4.39-.02,6.43.27,38.48,5.76,76.19,15.09,111.86,26.46,16.75,5.33,37.71,12.95,48.46,20.63-31.46-10.32-59.6-18.47-87.94-25.78-14.14-3.66-22.82-4.7-26.83-3.27-1.7.62-2.29,1.53-3.37,2.31l.42.02c-2.03.09-4.95-.07-5.89.31-3.01,1.2-6.8,2.44,3.85,5.84,9.62,3.09,20.21,5.03,28.21,5.4,11.75.55,25.14,4.89,38.41,9.32,14.84,4.96,29.58,10.19,42.73,15.07.74,3.51,1.45,6.87,2.16,10.27-4.15-1.37-7.82-2.38-10.84-3.54-15.77-5.95-31.54-11.69-47.79-16.9-16.24-5.23-32.97-9.93-50.58-13.75-8.47-1.82-17.01-4.61-25.26-6.77-9.1-2.38-17.9-4.62-26.38-6.45-13.25-.53-25.17-.17-32.63,1.23-7.47,1.41-10.45,3.5-6.43,6.27,8.83,1.21,16.97,3.02,26.43,4.84,7.3,1.4,14.67,3.09,22.19,4.9,7.53,1.84,15.22,3.72,23.16,5.66,32.68,7.98,66.83,17.65,99.47,29.32,33.67,12.06,70.12,24.65,104.71,38.69,6.46,2.62,12.9,5.29,19.29,7.99,3.17,1.36,6.35,2.73,9.52,4.09l4.67,2.06,2.24,1.01.97.45.64.32c2.74,1.34,5.47,2.67,8.2,4,2.75,1.32,5.49,2.63,8.23,3.94,22.6,10.72,45.06,20.96,67.8,30.88l-.35-.22,5.43,8.88-.28-.2c6.62,1.87,13.42,3.84,19.8,5.48,3.42.88,6.08,1.24,9.09,1.83l-13.5-6.49-.38-.09c4.5,2.17,8.99,4.33,13.48,6.49,11.9,2.36,25.04,6.94,41.16,13.15,31.4,12.05,63.61,23.19,96.89,32.63,10.42,2.94,20.96,5.7,31.71,8.2,10.75,2.5,21.7,4.74,33.1,6.48,5.68.89,11.51,1.62,17.51,2.18,5.97.58,12.22.89,18.77.89,1.66-.02,3.26,0,5-.09,1.68-.09,3.49-.12,5.52-.31,1.99-.19,3.98-.36,5.96-.62,1.98-.29,3.96-.58,5.92-.94,1.95-.42,3.91-.8,5.85-1.31l2.88-.81c.96-.27,1.92-.55,2.85-.9,1.88-.68,3.77-1.31,5.57-2.2.91-.4,1.8-.87,2.73-1.23l2.66-1.37c1.8-.98,3.58-1.98,5.36-3.01.88-.52,1.73-1.05,2.59-1.58l2.21-1.37c1.45-.87,2.85-1.87,4.27-2.83,1.41-.98,2.84-1.9,4.21-2.97,5.59-4.04,10.91-8.68,15.99-13.64,3.4-3.38,6.74-7.2,9.72-10.69,9.07-10.53,16.61-22.94,21.77-36.27l1.86-5.02,1.59-5.09c.55-1.7.96-3.42,1.4-5.13.41-1.72.9-3.44,1.21-5.17,1.5-6.91,2.28-13.83,2.77-20.72.71-13.71-.3-27.15-2.7-39.76-2.36-12.65-5.88-24.62-10.06-35.94-.61-1.75-1.29-3.42-1.98-5.09-.69-1.67-1.38-3.33-2.07-4.98-.74-1.61-1.49-3.21-2.22-4.81l-1.13-2.38-.28-.59c-.09-.19-.19-.39-.33-.66l-.8-1.48c-1.07-1.96-2.17-3.91-3.28-5.84-.29-.52-.54-.88-.8-1.29l-.78-1.21-1.57-2.4-1.58-2.39-.79-1.17-.77-1.06c-1.03-1.41-2.07-2.81-3.1-4.21l-1.56-2.09c-.52-.7-1.03-1.3-1.54-1.96l-3.09-3.84c-2.07-2.61-4.14-4.94-6.22-7.36l-3.13-3.59-3.14-3.45c-2.1-2.29-4.21-4.64-6.34-6.85-5.77-6.12-11.56-11.55-17.6-17.32-7.42-12.31-17.37-24.2-34.03-39.52-16.7-15.3-29.24-31.03-43.96-46.37-1.03-1.08-1.05-1.95-1.53-2.91l.29.4c-13.06-13.72-21.82-18.96-34.38-27.15-6.4-7.75-12.65-15.32-17.26-20.9-.08.04-1.4.71-2.72,1.39-10.56-10.1-21.53-18.94-31.89-30.68-7.06-8.01-20.27-20.89-32.38-28.77-3.61-2.36-6.9-5.08-10.85-8.71-3.73-3.46-7.09-7.08-9.48-10.24,3.29,1.72,6.75,3.83,10.39,6.27,1.82,1.22,3.68,2.53,5.59,3.92,1.74,1.26,3.36,2.49,5.17,3.89,7.11,5.54,14.94,12.31,23.25,19.94,5.2,4.78,10.79,9.19,16.14,13.96,18.8,16.79,38.31,33.67,55.98,50.97,15.23,14.92,29.49,27.88,44.5,41.44,15.7,14.18,32.73,28.87,46.65,43.87,11.44,12.34,22.95,24.73,34.49,37.75,5.77,6.47,11.56,13.25,17.39,20.33,1.46,1.75,2.94,3.69,4.41,5.53,1.47,1.87,2.93,3.66,4.45,5.77l4.51,6.12,4.7,6.99c.74,1.05,1.65,2.65,2.48,4.05l2.5,4.34c.93,1.6,1.36,2.53,1.96,3.68l1.7,3.34c1.15,2.21,2.22,4.51,3.28,6.81,1.07,2.29,2.14,4.59,3.12,6.98,4.04,9.43,7.62,19.33,10.42,29.83,2.8,10.49,4.85,21.55,5.75,33.12.91,11.55.58,23.66-1.32,35.86-1.89,12.09-4.77,24.24-9.51,36.02-4.76,11.74-11.46,23.02-20.24,32.72-.64.76-1.57,1.85-2.65,3.13-1.05,1.29-2.25,2.75-3.45,4.22-1.22,1.44-2.45,2.88-3.56,4.18-1.09,1.31-2.06,2.47-2.76,3.29-2.15,2.59-4.47,5.23-7.01,7.67-2.51,2.54-5.23,4.87-8.07,7.23-1.42,1.2-2.9,2.25-4.39,3.37-1.5,1.1-3.02,2.24-4.59,3.24-.81.53-1.63,1.06-2.45,1.59-1.02.65-2.02,1.3-3.08,1.93-2.14,1.26-4.31,2.51-6.52,3.72-10.62,5.74-23.02,9.16-35.81,10.6-1.83.18-3.67.35-5.52.53-1.88.19-3.64.26-5.23.35l-2.29.12-1.15.06-1.09.03c-1.45.03-2.91.06-4.37.09-1.49.04-2.82,0-4.23,0-1.38-.02-2.82-.02-4.16-.07-1.34-.06-2.68-.12-4.01-.17l-2-.1-1.93-.15c-1.94-.16-3.94-.29-5.82-.49l-5.68-.59c-3.69-.46-7.4-.92-10.96-1.46-7.18-1.07-14.16-2.29-20.96-3.66-13.64-2.71-26.68-5.91-39.48-9.4-30.63-8.43-60.2-17.71-89.28-27.79-29.05-10.1-57.52-21.03-85.2-33.26-1.07-.47-2.28-.9-3.42-1.36-14.77-5.97-29.47-12.08-44.16-18.36-7.34-3.14-14.68-6.33-22.04-9.59l-11.08-4.96-5.59-2.55-5.44-2.53-1.09-.47.34.07c-1.6-.38-3.31-.79-4.9-1.17-1.66-.38-3.24-.71-4.47-.87-2.48-.32-3.57.02-1.46,1.83,1.13.98,2.6,2.04,4.37,3.16.88.56,1.85,1.14,2.84,1.71.47.27.96.55,1.46.84.28.15.4.24.37.26l.03.1-.07-.02c-.05-.02.08.05.11.06l.33.18c.22.12.45.24.67.36.46.24.92.49,1.4.74.95.48,1.94.98,2.98,1.51,2.06,1.01,4.3,2.06,6.67,3.11,9.79,4.34,19.27,9.18,29.02,13.45,3.56,1.55,7.58,2.51,11.39,3.72l-.42-.1c26.75,11.73,53.64,22.97,80.89,33.71,2.24.88,4.59,1.66,6.89,2.49,30.55,11.08,61.53,21.32,93.3,31.03,10.77,3.29,21.57,6.59,32.54,9.77,10.98,3.18,22.13,6.24,33.72,8.96,11.6,2.71,23.53,5.14,36.52,6.8,3.2.44,6.59.76,9.93,1.09,3.46.27,6.85.55,10.52.67,1.81.07,3.58.15,5.51.15,1.91,0,3.74.04,5.72,0,1.99-.07,3.99-.13,5.98-.2,2.22-.16,4.45-.32,6.67-.49,1.96-.19,4.46-.29,6.72-.53,1.71-.17,3.4-.41,5.1-.68,1.69-.27,3.39-.53,5.07-.85,3.35-.72,6.71-1.41,9.98-2.4,3.31-.89,6.52-2.08,9.72-3.29,1.56-.69,3.12-1.4,4.68-2.12l.58-.27.29-.14.04-.02h.02c.06.12.02.02.04.05h0s.07-.04.07-.04l.14-.07,1.15-.56,2.3-1.14c2.07-1.12,4.12-2.27,6.15-3.45,1.04-.57,2.01-1.17,2.99-1.78l2.59-1.61c3.03-1.82,6.02-3.96,8.99-6,5.92-4.31,11.75-8.9,17.28-14.15,2.8-2.53,5.47-5.36,8.13-8.12,1.31-1.43,2.59-2.9,3.87-4.37l1.91-2.21,1.84-2.31c4.96-6.08,9.38-12.78,13.4-19.7,8.85-15.49,14.73-32.65,17.62-49.67,1.54-8.54,2.2-16.99,2.49-25.35.03-2.08.06-4.16.09-6.24-.01-2.06-.09-4.1-.14-6.16l-.09-3.09-.2-3.03c-.14-2.02-.29-4.05-.43-6.07-1.15-13.04-4.04-26.32-8.08-38.87-4.03-12.57-9.18-24.44-14.67-35.25-.37-.72-.74-1.45-1.11-2.18l-.57-1.1-.29-.55-.15-.29-.22-.38c-1.15-2.03-2.35-4.07-3.58-6.09-.61-1-1.25-2.05-1.86-3l-1.66-2.4c-1.11-1.59-2.24-3.16-3.36-4.7-4.32-5.68-8.36-10.37-11.61-13.6-1.17-1.2-2.35-2.4-3.53-3.6-1.15-1.12-2.3-2.25-3.45-3.38-2.29-2.24-4.6-4.61-6.86-6.76-2.27-2.2-4.54-4.47-6.81-6.74-2.27-2.21-4.54-4.48-6.82-6.8-9.13-9.18-18.45-18.99-28.39-30.19-16.8-18.83-34.87-36.94-53.95-54.44-14.34-13.18-28.33-26.89-39.46-39.98l.3.4c-5.22-5.02-10.44-10.05-15.66-15.07-13.69-13.1-29.9-27.21-40.61-38.77-8.84-9.55-17.68-18.1-26.49-26-4.42-3.96-8.76-7.7-13.04-11.29-5.07-4.19-10.13-8.3-15.32-12.33-3.27-2.41-6.46-4.81-9.6-7.23-1.56-1.21-3.12-2.42-4.68-3.63-1.61-1.19-3.21-2.38-4.81-3.57-3.2-2.39-6.37-4.82-9.54-7.29-3.29-2.41-6.61-4.85-9.95-7.37-15.89-11.73-32.23-21.22-51.48-29.37-2.18-.89-4.44-1.82-6.74-2.76-2.31-.93-4.61-1.97-7.07-2.82-2.43-.9-4.9-1.81-7.38-2.73-2.49-.9-4.93-1.9-7.48-2.69-2.53-.84-5.05-1.67-7.54-2.49-2.49-.82-4.94-1.7-7.41-2.37-2.45-.73-4.85-1.45-7.19-2.14-2.34-.68-4.59-1.46-6.79-2.01-3-.81-6.02-1.58-9.03-2.32-1.51-.35-3.02-.76-4.53-1.05l-4.54-.84c-3.03-.55-6.06-1.06-9.09-1.56-3.02-.4-6.04-.73-9.05-1.07-6.05-.78-11.99-1.02-17.95-1.43-3-.24-5.9-.24-8.84-.35-2.93-.1-5.86-.19-8.79-.29-2.56-.02-5.29.08-8.11.25-2.82.18-5.76.38-8.58.8-5.69.77-11.45,1.62-16.32,2.6-2.17.4-4.21.82-6.18,1.25-.98.22-1.94.44-2.89.65-.92.25-1.84.49-2.74.73-3.59.98-7.02,1.92-10.58,2.9-5.67.48-10.93.93-16.06,1.44-5.06.56-10.14,1.06-15.36,1.71-3.74,1.69-7.29,3.22-11.88,4.76-2.27.79-4.8,1.58-7.75,2.39-2.96.81-6.34,1.64-10.22,2.55-21.95,5.09-31.9,10.43-34.08,14.45-6.3,1.55-12.3,3.26-18.27,4.98-5.91,1.7-11.76,3.44-17.57,4.99-11.63,3.1-23.29,5.6-35.74,6.1-.85.04-4.01,1.03-6.16,1.55l-2.91.7-3.09.77c-2.08.52-4.16,1.05-6.24,1.57-4.16,1.05-8.33,2.1-12.49,3.14-4.15,1.06-8.29,2.12-12.4,3.17-4.1,1.09-8.11,2.39-12.11,3.59-9.58,2.95-15.06,4.61-25.25,5.9-4.92.77-11.64,2.31-18.78,4.17-3.57.93-7.24,1.94-10.84,2.98-1.8.52-3.59,1.03-5.33,1.57-1.72.58-3.4,1.15-5.03,1.7-6.77,2.33-13.01,4.42-19.13,6.3-3.06.94-6.1,1.84-9.16,2.69-3.05.88-6.08,1.8-9.21,2.64-5.76,1.56-11.6,3.44-16.61,5.49-5,2.06-9.2,4.21-11.55,6.56l-.38.1.48,1.28.34-.19c.05.96.1,1.94.16,3.02-7.6,2.9-14.68,5.59-21.48,8.18-3.39,1.32-6.76,2.53-10.02,3.87-3.26,1.33-6.49,2.66-9.73,3.98l.39-.09-13.98,4.52.35-.23c-1.71,2.61-5.02,5.18-17.34,10.39-7.98,3.34-16.01,6.73-24.01,10.19-7.93,3.58-15.88,7.17-23.8,10.75-2.22-1.38,6.81-8.83-12.81-1.3-.87,4.15-2.95,7.38-9.12,11.6-6.16,4.24-16.48,9.37-33.46,17.84-4.84,2.39-9.77,4.9-14.71,7.4-4.91,2.53-9.79,5.09-14.61,7.47-9.61,4.79-18.93,8.92-27.07,11.47-1.82.56-6.14,2.95-9.3,4.49l.41-.32c-14.5,11.56-17.78,13.45-41.18,22.84-1.04,1.45-1.99,2.78-2.94,4.11l.36-.28c-6.13,3.14-13.41,6.39-18.16,9.42-14.4,9.19-27.17,16.25-41.77,22.59-5.16,2.25-15.53,8.31-20.17,11.69-15.21,11.05-30.38,18.82-46.54,26.03l.45-.19c-10.54,6.74-20.55,14.72-32.48,18.12l.46-.16c-17.23,9.97-34.47,19.94-51.38,29.72-2.87,0-4.75-.01-5.92-.02-9.94,4.64-18.33,8.47-26.96,12.63-5.71,2.75-12.98,6.08-17.37,8.93-5.57,3.62-8.94,7.02-13.25,10.52l.32-.25c-7.32,4.05-14.87,8.52-21.92,12.07-27.33,13.78-53.38,28.81-78.91,44.76l.4-.32c-3.29,2.56-6.57,5.12-7.75,6.04-7.31,3.21-13.63,5.5-16.48,7.37-3.99,2.62-7.86,6.32-7.31,7.01.75.95,5.71-.48,9.13-.92-3.99,2.35-5.97,3.62-7.81,4.57-26.54,13.7-49.15,27.49-66.45,41.5,1.63-.81,3.14-1.55,3.2-1.58-.1.05-1.41.65-2.92,1.35-8.44,5.9-18,8.32-28.11,16.11-15.72,12.11-37.42,25.28-60.45,37.51-9.71,5.15-17.16,9.87-20.2,13.43-7.15,8.39-12.78,16.03-2.94,15.83,15.89-8.2,31.35-16.09,46.88-24.22,21.39-11.19,33.88-15.25,41.04-14.98,4.49.17,1.67,2.73-13.44,12.62,1.9.71,3.8,1.43,5.34,2-8.88,7.02-16.44,13-24,18.97l.33-.27c-7.15,6-14.3,12-21.44,18q19.4-7.45,10.97-.04c-1.66.21-3.31.42-5.96.77-11.68,14.11-14.31,15.89-51.02,34.8-1.71,2.38-4.43,5.34-5.06,7.21-2.33,6.89,3.91,4.83,29.81-9.53,6.16-3.42,14.8-8.69,18.08-9.82,13.61-4.67,36.88-17.56,44.49-17.14,1.11.06,6.4-2.47,11.43-4.47,1.07-2.58,1.89-4.56,2.66-6.45,20.63-13.61,33.57-15.71,51.22-25.7.98.98,1.79,1.78,2.99,2.98,12.49-7.4,23.8-13.56,32.02-19.13,6.8-4.61,9.96-8.53,15.39-13.33,8.37-3.68,16.79-7.37,25.22-11.07l-.38.14,6.44-3.63-.32.25-.81-2.31-2.78.63c.6-.21,1.41-.57,1.74-.6.42-.04.46.17.66.27l13.83-6.38c.39-.53.78-1.06.87-1.18-.12.13-.7.73-1.28,1.34,13.38-5.7,26.28-13.27,38.69-21.48,6.74-4.46,12.92-8.48,19.05-9.96-5.37,3.81-10.56,7.49-17.42,12.35,11.14-4.65,19.85-8.3,28.12-11.75,6.21-3.89,11.89-7.14,15.72-9.9,14.95-10.74,31.63-21.37,50.63-32.32,5.92-3.41,11.34-7.24,16.98-10.89l-.41.15c11.16-3.03,24.1-7.06,5.09,7.32-16.9,5.27-35.05,19.36-53.12,27.72-3.89,4.92-9.16,10.02-3.39,9.8,9.42-5.1,19.76-10.1,27.46-15,14.24-9.07,28.19-17.53,43.65-25.65l-.33.26c19.49-4.72,45.47-19.7,75.13-37.41-7.14,2.6-12.56,4.57-17.98,6.54l.42-.15c.75-1.78-.3-2.33-7.9,1.58l.39-.14c12.08-9.42,28.17-17.48,43.37-25.85l-.49.36,6.95-3.91-.43.14,11.57-9.18-2.67.56c.58-.2,1.39-.55,1.69-.57.41-.04.43.18.62.29,8.32-5.15,16.64-10.31,24.96-15.46l-.38.14c.54.97,1.09,1.94,1.74,3.1,21.03-11.38,39.83-21.56,60.13-32.54-2.35,7.38-25.93,18.68-41.23,28.23,3.93-1.22,5.9-.49,4.4,1.09l.34-.28c13.63-6.03,22.57-8.69,23.08-4.94,4.46-3.88,6.65-5.78,8.77-7.62,7.74-3.34,14.76-6.37,23.78-10.25,5.43-5.82,8.2-10.05,15.15-15.79,7.69-6.36,4.4-6.57,1.88-7.4-.59,0-1.37.11-1.69-.05-.13-.07.7-.69,1.09-1.05l-.57-1.11c-3.8.82-2.96-.7,3.84-4.39,6.82-3.71,13.79-6.94,20.7-10.29l-.38.13c-1.58,1.79-3.91,3.6-6.9,5.43-2.99,1.86-6.65,3.74-10.91,5.64-2.07,1.58-4.13,3.16-6.21,4.75l.67,1.2c9.76-4.64,19.2-9.12,26.64-15.25,1.94-1.61,7.12-4.41,10.81-6.67l-.32.27c1.68-2.34,4.02-3.43,6.8-3.67l-.41.13c12.99-7.78,15.83-11.33,14.05-13.17-.14-.14,2.75-1.9,4.63-3.18,2.99-.44,5.94-.87,9.1-1.33,3.64-2.41,6.17-4.07,8.71-5.68l-.35.24c-.02-.44-.1-.84-.24-1.22l-.33.24c4.25-2.32,9.94-5.85,12.48-6.75,8.71-3.11,10.55-5.13,12.57-7.5l-1.4.52,1.03-.24c4.12-1.22,8.28-2.33,15.59-4.38-1.34-2.7-2.28-4.6-3.56-7.2,7.5-2.62,14.26-4.98,20.66-7.22,6.41-2.12,12.45-4.12,18.5-6.12l-.47.14c3.51-1.75,7.03-3.49,10.34-5.14,3.3-1.68,6.45-3.08,9.17-4.39,3.29-3.85,5.97-6.99,9.15-10.71,7.25-2.32,10.93-3.55,14.63-4.67,2.28-3.41,7.62-4.77,13.17-5.35-4.54,1.81-9.08,3.62-13.63,5.43-1.82,1.69-3.62,3.46-5.43,5.18l.36-.24c-.61,1.24-3.45,3.78-1.39,3.45,2.61-.4,6.33-1.13,9.9-1.87,3.57-.73,6.95-1.59,8.83-2.5,6.6-3.19,10.5-4.3,13.86-5.04,1.68-.37,3.23-.65,4.91-1.05,1.68-.4,3.49-.95,5.74-1.73,4.79-5.46,9.77-9.33,17.81-12.86,8.01-3.67,19.26-6.43,36.42-10.08-4.75,2.52-9.89,5.01-13.28,7.13-3.32,2.08-4.85,3.77-7.16,5.63h-.26c7.27-2.27,13.05-4.61,18.11-6.99,5.05-2.38,9.36-4.85,13.72-7.08l-1.13.24.73-.03c8.18-3.82,17.37-7.79,24.33-11.46,3.52-1.83,4.18-2.57,2.8-2.7-1.38-.16-4.75.57-9.25,1.77l.38-.05c-.14-.39-.28-.78-.42-1.17-2.4.34-4.8.69-7.2,1.03l-5.08,1.28c.81-.26,1.77-.63,2.41-.77.91-.2,1.57-.23,2.34-.33,2.41-.35,4.83-.7,7.24-1.06,6.99-2.52,14.09-4.63,21.15-6.85,3.54-1.09,7.07-2.18,10.61-3.27,3.54-1.05,7.06-2.19,10.63-3.02,5.87-1.47,12.39-3.12,18.52-4.53,3.07-.71,6.03-1.35,8.77-1.89,1.37-.29,2.69-.48,3.93-.63,1.25-.16,2.42-.28,3.5-.37,5.59-.45,11.33-1.21,17.17-2.17,2.92-.48,5.86-1.01,8.82-1.57,3.15-.59,6.32-1.18,9.5-1.77,3.21-.63,6.43-1.26,9.65-1.89,3.2-.65,6.41-1.31,9.6-1.96,6.41-1.28,12.69-2.57,18.89-3.66-.86-.31-1.71-.63-2.56-.94.69.37,1.39.73,2.08,1.1l30.37-.67-.39.16c2.19-1.3,4.38-2.6,6.57-3.9l-.28.14c3.36-2.45,6.57-4.87,10.14-7.35,2.38-1.65,5.63-2.97,9.71-4.03,4.08-1.07,8.9-1.81,14.36-2.27h-.39c5.15,1.03,10.19,2.15,15.22,3.26h-.52ZM2497.74,1532.78c-2.15.89-4.29,1.77-6.43,2.66l.41-.1,5.73-2.36c2.46-1.04,4.91-2.1,7.4-3.05l-.33.05c-2.28.87-4.53,1.84-6.78,2.79ZM2268.42,1643.23l-.39.13.39-.13ZM2278.06,1631.02l-.37.13.37-.13ZM2882.05,1765.48l-1.26-.31-.79-.08,1.21.32.84.07ZM1962.96,1715.38c-.1,0-.69.03-1.28.05l-.33.26c.76-.15,1.51-.29,1.61-.31ZM2859.32,1740.77c25.59,8.18,51.47,18.79,76.48,26.39,1.98.6,4.22,1.43,6.74,2.45,1.26.51,2.6,1.07,4.01,1.69,1.43.63,2.84,1.24,4.72,2.15,6.11,3.05,13.32,6.65,21.9,10.57-10.96-3.17-17.74-4.52-23.57-6.95-.68-.29-1.33-.56-1.97-.83-7.42-3.17-14.87-6.06-22.42-8.93-7.54-2.83-15.1-5.67-22.59-8.48-14.97-5.65-29.59-11.41-42.91-17.99l-7.81-2.72c-.64.15-.93.46-2.06.38-.6-.04-2.68-.78-4.1-1.2.47,0,.75-.12,1.46,0,1.55.27,3.32.66,4.99,1l7.14,2.5ZM1734.58,1895.74c.2-.01-.86.78-1.33,1.2-.48-.29-.97-.59-1.46-.89l-.3.24c1.06-.21,2.27-.5,3.09-.56ZM2192.24,1678.4c-.57.47-1.62,1.13-2.46,1.7.16-.39-.19-.64.58-1.19,1.52-1.1,3.66-2.36,5.54-3.55l-.69-1.07-.31.25c5.9-3.75,11.06-6.66,12.88-5.88l.32-.26c-4.2,2.36-8.39,4.73-12.59,7.09-1.08.96-2.06,1.89-3.28,2.91ZM3093.35,1414.25c-2.53-1.77-4.5-3.23-6-4.43-1.52-1.18-2.6-2.07-3.2-2.8-1.23-1.44-.72-2.13,1.03-2.48,1.04,1.2,1.94,2.24,2.73,3.16.78.94,1.42,1.77,2.02,2.52,1.19,1.49,2.12,2.67,3.05,3.84l7.43,5.76c-.17-1.5-.34-3-.56-5.05,3.09,2.76,4.72,4.6,5.55,5.69.83,1.09.8,1.47.31,1.44-1-.05-3.83-1.73-5.59-2.4l-6.77-5.25ZM2082.15,1743.93c-2.62,1.57-5.24,3.14-7.86,4.72l3.13-3.95-.33.26,5.06-1.03ZM2202.1,1683.02c-1-1.18,4.76-4.25,10.16-7.12l-.37.13,1.23,2.13,1.22-.52-.85.22c-5.47,3.53-10.43,6.29-11.39,5.16ZM2319.38,1615.96c-3.13.03-5.96.08-8.77.15-1.02.51-2.32,1.25-3.01,1.49-3.61,1.29-7.07,2.45-10.59,3.66,1.31-.97,2.61-1.94,3.92-2.9,2.96-.8,5.98-1.64,8.8-2.35.55-.14.34.25.48.4,19.42-10.13,19.44-10.07,9.16-.45ZM3099.47,1862.58c1.79-.05,3.36-.73,5.41-.04,8.75,2.89,17.66,6.15,29.73,10.2-10.68-.01-22.78-4.69-35.49-10.37l.36.2ZM3231.33,1639.59c4.43,7.57-.02,5.04-6.38-1.01-12.21-11.58-25.27-23.28-38.9-37.77,4.31,2.53,7.19,4.23,10.07,5.93l-.34-.23c11.76,12.29,23.41,24.58,35.55,33.08ZM3238.4,1908.55c13.66,2.57,27.55,4.73,42.29,5.48,1.83.12,3.71.15,5.59.19,1.86.06,3.79.02,5.7,0,.95,0,1.91-.02,2.9-.08l3-.16c2.09-.11,4.3-.38,6.44-.6,8.57-1.13,17.13-3.29,24.66-7.65l3.95-2.24c.66-.38,1.29-.78,1.92-1.18l1.82-1.15c2.28-1.39,4.47-2.98,6.69-4.52,1.12-.75,2.16-1.63,3.25-2.44,1.07-.84,2.16-1.63,3.2-2.53,2.07-1.78,4.18-3.5,6.15-5.44,4.04-3.71,7.74-7.87,11.25-12.17,1.68-2.22,3.42-4.4,4.94-6.75.77-1.17,1.59-2.3,2.3-3.5l2.15-3.61c6.88-12.13,11.94-25.77,14.2-39.76,1.16-6.98,1.77-14.04,1.77-21.01-.03-6.96-.55-13.84-1.53-20.55-.91-5.29-.74-10.14-2.64-20.55.54,1.69,1.05,3.27,1.53,4.78.49,1.5.85,2.96,1.24,4.33.38,1.37.75,2.66,1.07,3.9.29,1.25.57,2.44.83,3.58.26,1.14.51,2.22.73,3.27.19,1.07.36,2.09.54,3.08.33,1.99.65,3.87.8,5.79.82,7.71.95,14.87.74,22-.23,7.12-.68,14.24-1.78,22-.83,6.03-3.15,14.83-7.19,23.46-3.96,8.65-9.58,16.96-14.78,22.81-5.95,6.81-12.42,12.82-19.15,18.12-1.68,1.34-3.41,2.57-5.1,3.85-1.7,1.27-3.46,2.4-5.19,3.6-.86.6-1.74,1.16-2.62,1.71l-2.79,1.75c-2,1.27-4.12,2.43-6.2,3.61-1.78,1-3.62,1.85-5.46,2.73-.91.46-1.86.81-2.81,1.17-.95.35-1.89.74-2.86,1.05-3.87,1.23-7.81,2.26-11.81,2.93l-3.01.52-3.03.38c-1.01.12-2.02.25-3.03.35l-2.84.22c-.9.07-1.81.15-2.7.2l-2.63.12-2.63.11-2.57.04c-6.77.09-13.24-.22-19.45-.84-6.21-.61-12.25-1.42-18.1-2.45-11.74-2-22.86-4.71-33.71-7.69-21.67-6-42.13-13.32-62.78-20.87,27.58,5.91,56.9,14.93,86.73,20.64ZM3071.12,1853.36c-30.05-10.61-59.89-21.98-91.2-34.64-.91-1.96-1.61-3.47-2.36-5.1,14.3,5.24,27.29,9.84,41.2,14.64,1.56,1.82,2.85,3.31,4.74,5.51,5.04,1,8.97,1.1,13.39,2.74,11.68,4.34,23.71,9.17,35.42,13.84,3.47,1.39,6.12,3.36,10.72,5.93-4.81-1.14-8.23-1.6-11.91-2.91ZM2920.08,1787.19c2.65-.59,5.93-.21,9.7.9,1.89.55,3.89,1.29,6,2.17,1.05.44,2.13.92,3.22,1.43.54.26,1.08.52,1.64.78.54.27.98.49,1.48.77,1.85,1.03,3.8,2.12,5.82,3.24l-6.24-2.33-5.15-1.72-5.46-1.77-11-3.48ZM1945.75,1815.3c.22-.46.26-.84.78-1.44.17-.2,2.26-1.41,2.36-1.43.72-.11,1.14-.02,1.65,0-1.61.96-3.2,1.91-4.79,2.86ZM1628.66,1981.72c-.85.13-1.93.39-2.43.31-.18-.03,1.39-1.27,1.52-1.33,1.55-.67,2.97-1.22,4.27-1.74-1.12.92-2.24,1.83-3.36,2.76ZM1999.53,1799.28c-.01.21.24.42-.08.62-1.54.97-3.24,1.93-4.88,2.89.02-.21.03-.42.05-.63,1.63-.96,3.27-1.92,4.91-2.89ZM1809.01,1893.45c.19.08.82.02.48.28-.96.74-2.31,1.6-3.51,2.41-.17-.09-.34-.18-.5-.28,1.17-.8,2.35-1.61,3.53-2.41ZM2150.11,1615.76c1.05-.74,2-1.49,3.17-2.22.56-.35,1.55-.66,2.35-.99-.88.56-1.75,1.11-2.63,1.66-.97.52-1.93,1.03-2.9,1.55ZM2550.13,1511.34c-.62.16-.84,0-1.23,0,.8-.35,1.8-.85,2.35-.99.62-.16.83,0,1.22.01-.8.34-1.79.84-2.34.98ZM2107.08,1733.27c.28-.05-.31.48-.51.76-.63.13-1.27.26-2.12.44,1.23-.57,2.31-1.14,2.63-1.2ZM3377.07,1730.6l-1.12-2.08.41.05.71,2.03Z"/>
    <path class="cls-10" d="M2718.13,1672.13c-2.77-1.15-5.55-2.29-8.37-3.4-2.8-1.13-5.62-2.23-8.46-3.31,8.85,1.61,12.92,2.91,14.8,3.96,1.88,1.05,1.57,1.87,1.54,2.72l.49.04Z"/>
    <path class="cls-10" d="M2484.86,1441.05c-4.35,2.02-6.76,3.26-9.26,4.24-1.45.57-4.55,1.14-4.34.98,1.27-.93,3.19-2.33,5.09-3.08,2.14-.84,4.5-1.17,8.5-2.15Z"/>
    <path class="cls-10" d="M2372.1,1481.75l20.12-9.52-.4.11c-6.1,5.29-7.21,5.82-19.39,9.19l-.33.23Z"/>
    <path class="cls-10" d="M2692.79,1748.37c1.75.25,3.85.39,5.15.77,1.32.37,1.85.93,2.72,1.41-1.8-.28-3.88-.48-5.3-.85-1.24-.32-1.75-.88-2.57-1.33Z"/>
    <polygon class="cls-10" points="2792.38 1735.41 2800.02 1738.73 2792.8 1735.47 2792.38 1735.41"/>
    <path class="cls-10" d="M3008.39,1853.4c-4.1-1.4-8.2-2.81-12.3-4.21.02-.35.05-.7.07-1.04l12.63,5.5-.4-.25Z"/>
    <path class="cls-10" d="M2322.08,1514.63c-.32.35-.65.71-.97,1.06-1.68.65-3.42,1.36-4.96,1.9-.23.08.56-.64.87-.98,1.69-.66,3.37-1.31,5.06-1.97Z"/>
    <path class="cls-10" d="M2400.38,1472.38c-.78.76-1.4,1.46-2.4,2.3-.43.36-1.64,1-2.5,1.51-.15-.23-1.01-.29-.32-.74,1.47-.96,3.73-2.13,5.68-3.2l-.46.13Z"/>
    <path class="cls-10" d="M2049.56,1662.04c-.78.5-1.72,1.19-2.29,1.45-.58.27-.8.13-1.18.16.77-.5,1.73-1.2,2.28-1.45.6-.27.81-.13,1.19-.16Z"/>
    <path class="cls-10" d="M2786.99,1347.93c-1.32.47-2.52.96-4.04,1.41-.61.18-2.86.45-2.83.39.18-.32.81-.72,1.3-1.09,1.85-.24,3.71-.48,5.58-.72Z"/>
    <path class="cls-10" d="M2258.97,1550.52l-9.35,4.18c2.79-1.66,5.57-3.32,8.36-4.97l-.35.11c.31.34.62.68.93,1.01l.41-.32Z"/>
    <path class="cls-10" d="M2089.03,1646.72l-1.58-.82c.37.33.75.67,1.13,1.01l.45-.19Z"/>
    <path class="cls-10" d="M2257.98,1549.72c1.61-1.12,3.15-2.23,4.88-3.38.8-.53,1.97-1.14,2.98-1.71-.65.59-1.04,1.18-2.01,1.76-1.9,1.15-4.12,2.29-6.2,3.44l.35-.11Z"/>
    <path class="cls-10" d="M3008.79,1853.65c2.17-.86,7.74,1.39,14.5,4.64l-.28-.2-14.61-4.68.4.25Z"/>
    <path class="cls-10" d="M2400.83,1472.25c.35-.57.3-1.01,1.23-1.79.46-.39,2.71-1.38,4.16-2.1-.35.35-.45.63-1.11,1.06-1.43.94-3.14,1.96-4.74,2.95l.46-.13Z"/>
    <path class="cls-10" d="M3029.7,1780.9c.51.48.8.76,1.1,1.04-.82-.28-1.64-.56-2.45-.84.39-.06.79-.12,1.36-.2Z"/>
    <path class="cls-10" d="M2392.22,1472.23c1.13-.85,2.17-1.67,3.44-2.55.59-.41,1.62-.96,2.45-1.44-.23.37,0,.64-.78,1.12-1.54.94-3.64,1.98-5.51,2.98l.4-.11Z"/>
    <path class="cls-10" d="M2351.62,1489.08c-.31.31-.63.62-.94.93-.81.32-2.02.86-2.32.88-.26.02.5-.55.81-.87l2.45-.95Z"/>
    <path class="cls-10" d="M2515.54,1414.59c-.36.29-.73.57-1.09.86-.9.24-2.21.67-2.57.67-.28,0,.59-.52.95-.8l2.7-.73Z"/>
    <polygon class="cls-10" points="3254.45 1555.47 3257.37 1557.1 3258.63 1559.07 3254.16 1555.07 3254.45 1555.47"/>
    <path class="cls-10" d="M2805.36,1693.8c1.62.64,2.85,1.12,3.04,1.19-.2-.09-1.22-.53-2.64-1.15l-.39-.05Z"/>
    <path class="cls-10" d="M2805.75,1693.84c-1.51-.57-3.03-1.13-3.56-1.33.45.18,1.81.73,3.17,1.28l.39.05Z"/>
    <polygon class="cls-10" points="3237.89 1519.91 3238.83 1520.46 3237.59 1519.51 3237.89 1519.91"/>
    <path class="cls-10" d="M2372.43,1481.52l-.33.23.33-.23Z"/>
    <path class="cls-10" d="M2670.08,1377.71l-.4.16.4-.16Z"/>
    <path class="cls-10" d="M2669.68,1377.86l.4-.16-.4.16Z"/>
    <path class="cls-10" d="M2923.07,1832.36l-.34-.07.34.07Z"/>
    <path class="cls-10" d="M2423.62,1468.58l-.4.1.4-.1Z"/>
    <path class="cls-10" d="M2499.11,1437.27c-.59-.08-1.38-.07-1.68-.27-.12-.08.8-.6,1.24-.92l-.38.1.48,1.28.34-.19Z"/>
    <polygon class="cls-10" points="2057.01 1664.69 2057.68 1664.08 2056.55 1664.85 2057.01 1664.69"/>
    <path class="cls-10" d="M2423.22,1468.68l.4-.1-.4.1Z"/>
    <path class="cls-10" d="M2437.62,1463.66c2.27-.97,4.55-1.94,6.82-2.91l.35-.23-7.55,3.22.38-.09Z"/>
    <path class="cls-10" d="M2437.25,1463.75l.38-.09-.38.09Z"/>
    <path class="cls-10" d="M2458.43,1456.24l-.39.09.39-.09Z"/>
    <path class="cls-10" d="M2792.8,1735.47l-.41-.06.41.06Z"/>
    <path class="cls-10" d="M2662.1,1684.55l.51-.02-.51.02Z"/>
    <path class="cls-10" d="M2679.82,1672.33h-.42s.42,0,.42,0Z"/>
  </g>
  <g>
    <path d="M5061.9,787.99c7.17,0,8.26-1.47,10.44-2.69l-2.73-.11,2.58-.64-.2-.03.11.84,14.07-2.36-.2.07c10.96-3.11,28.93-5.86,31.55-5.08-1.22,1.06-2.29,1.99-3.77,3.27,7.87-.5,14.44-.91,21-1.33l-.2.06,6.95-2.32-.22.07c4.45-2.04,9.19-1.46,13.87-1.35l-.19.07c2.38-2.32,7.3-3.97,17.51-4.33,3.88-.14,8.12-.48,12.03-.96,7.67-.94,13.44-.87,18.13.13.87.19,2.73.11,4.52.17,2.2-.91,4.16-1.72,5.58-2.31,6.19-.83,11.65-1.59,17.17-2.28,15.28-1.92,30.51-3.69,45.84-3.6,4.04.03,9.06-.46,13.52-.92,10.16-1.09,20.31-2.17,30.47-3.26,10.16-1.05,20.32-2.07,30.51-2.98,13.59-1.2,27.35-1.83,40.6-2.65,1.73.66,3.07,1.17,6.03,2.31.36-3.08,7.64-3.4,13.88-3.81,20.09-1.28,40.17-2.55,60.25-3.69,10.3-.54,20.59-1.08,30.88-1.62l-.21.06c9.79-2.07,20.32-1.56,30.47-2.41,11.43-.98,23.74-1.24,34.1-2.74,9.6-1.38,18.65-2.41,28.45-2.81,8.85-.36,13.63-1.62,17.79-3.85-7.02.34-12.55.61-19.24.93,10-2.73,19.43-4.35,31.83-3.75,3.82.18,8.95-.34,13.44-.67,4.57-.33,9.09-.83,13.64-1.23,10.69-.94,21.39-1.87,32.1-2.81,2.13-.18,5.34-.59,6.29-.41,7.58,1.47,16.35.04,24.52-.64,11.29-.94,22.26-2.46,33.85-1.81,2.63.15,6.75-.44,10.06-.79,5.61-.64,11.13-1.26,16.69-1.89l-.17-.03c-2.14.82-4.29,1.63-6.78,2.58,4.24.48,7.49.84,10.75,1.21l-.22.05c-1.63-1.35.02-2.82,4.11-3.91,3.12-.83,8.63-1.19,13.08-1.76l-.19.05c2.6-.23,6.03-.8,7.66-.64,7.63.78,10.66.56,11.12-1.15.31-1.16-.44-2.28-.52-2.59,8.23-3.61,25.21-2.7,32.21-6.34-3.54-.32-6.68-.97-9.97-.85-11.27.39-22.59,1.05-33.89,1.6l.23-.06c-.99.18-2.01.49-2.97.52-9.09.33-18.25.66-27.35.99-9.11.32-18.17.64-27.1.73-8.39.09-19.05.01-25.23-2.27,15.87-.83,29.89-1.66,43.87-2.25,6.98-.3,11.09-.98,12.75-2.58.7-.67.85-1.35,1.25-2.03l-.2.05c.93-.38,2.3-.76,2.69-1.14,1.24-1.23,2.87-2.66-2.56-3.16-4.91-.45-10.12.15-13.86,1.4-5.5,1.82-12.28,1.69-19.06,1.65-7.57-.04-15.14-.07-21.93-.1-.98-2.02-1.91-3.96-2.86-5.92,2.13-.11,3.97-.31,5.54-.27,16.45.34,32.71.7,50.29-.19,4.23-.21,8.63.3,12.8.55,4.61.28,9.04.66,13.28.98,12.82-2.07,23.16-4.14,18.86-7.68-4.58-.57-8.82-1.27-13.72-1.66-7.56-.6-15.27-1.28-23.47-1.42-16.84-.33-34.33.34-51.41.19-8.82-.07-17.95.16-27.16.48-9.21.34-18.52.69-27.68,1.03-9.73.32-19.46.62-29.14.85-11.86.23-23.66.46-35.49.69l.19.04-4.22-3.89.16.04c-3.22.68-6.54,1.34-9.62,2.05-1.65.39-2.87.88-4.28,1.32l7.15.32.18-.05-7.14-.33c-5.59,1.74-12.2,2.39-20.41,2.67-15.97.55-32.08,1.26-48.15,2.17-25.24,1.44-50.51,2.9-75.75,4.48-1.73.11-3.54.28-5.18.3-19.82.17-39.9.53-59.32.38-11.81-.05-22.69,1.2-33.95,2.55-3.82.46-7.45,1.14-11.31,1.75-6.7-1.49-13.99-1.65-24.63-.18-10.66,1.44-20.29.59-30.46.82-.71.02-1.04-.37-1.54-.57l.23.04c-9.06.14-13.7,2-20.61,4.31-4.84-.47-9.57-.93-13.05-1.27-.01.06-.18,1-.34,1.95-7.01.44-13.69,1.59-21.26,1.15-5.16-.3-14.03.08-20.84,2.26-3.96,1.27-9.3,1.57-12.82.85,6.19-2.95,15.15-4.51,26.01-5.43,3.39-.29,6.77-.94,10.2-1.31,12.07-1.24,24.35-2.83,36.18-3.48,10.2-.56,19.35-1.62,28.91-2.89,9.99-1.36,20.52-3.18,30.11-3.58,15.77-.66,31.48-1.89,47.16-3.23,15.68-1.35,31.36-2.63,47.05-3.64,7.79-.49,15.26-2.37,23.53-1.91,1.26.07,4.72-.56,6.08-1.01,6.81-2.28,15.24-2.6,24.1-2.9,3.83-.13,7.84-.64,11.77-.91,11.98-.83,23.99-1.73,35.95-2.4,14.36-.84,28.76-1.87,43.14-2.85,14.38-.96,28.75-1.78,43.07-1.97.55,0,1.16-.08,1.74-.12l46.5-2.6-.2.06c3.47-.9,7.91-1.91,5.17-2.94-2.45-.91-6.73-1.32-12.8-.92-4.93.33-9.94.18-14.94.42-1.82.09-3.71.66-5.57,1.01l.2-.06-20.65.78-20.65.89c-1.13.05-2.29.19-3.44.28-15.22,1.16-30.44,2.5-45.67,3.44-20.63,1.34-41.05.94-61.89,3.51-.49.06-1.11,0-1.67.03l-18.97,1.14-18.97,1.22c-10.3.66-20.42,1.76-30.93,1.74-8.53,0-18.26.77-27.4,1.55-4.87.42-10.56,1.25-14.25,2.23-10.59,2.82-21.52,4.69-35.5,4.91-11.8.18-23.87,1-36.1,2.47-9.2,1.09-18.55,1.65-26.79,1.05l.24.04c-3.46.22-6.92.44-10.38.65-9.05.59-19.3,1.83-26.9,1.63-12.56-.31-23.63,1.13-34.78,3.21-6.8,1.27-13.26,2.01-20.18,2.27-8.13.31-15.59,1.12-23.67,2.48-7.28,1.2-16.44,2.25-23.44,2.34-9.57.12-18.87,1.57-28.21,2.12-4.14.24-9.32,1.7-13.45,2.74-3.64.91-6.46,2.05-9.54,3.06-5.02.11-9.27.2-14.05.3-3.46,1.69-6.56,3.02-13.98,4.03-10.45,1.42-15.5,3.93-16.67,6.38-12.31,1.69-23.21,5.37-35.59,4.05-.42-.05-2.02.35-3.1.52-7.8,1.21-15.73,2.33-23.36,3.65-4.58.79-7.2,1.25-11.98.86-4.66-.38-12.82.25-19.16,1.05-6.61.82-12.15,1.43-18.22,1.39-5.58-.03-11.42.68-14.06,2.69h-.18s.1.9.1.9l.17-.05c-.07.62-.14,1.25-.22,1.95-7.6.74-14.14,1.38-20.68,2.02l.19.02-6.94-.07.19-.07c-1.09,1.27-2.88,2.3-9.19,2.79-8.15.61-16.39,1.45-24.58,2.23-.83-1.39,4.27-3.9-5.68-3.8-1.91,4.72-5.57,5.95-23.57,7.74-10.23,1.02-21.44,2.9-29.68,1.64-.92-.14-3.26.17-4.94.29l.24-.09c-8.39,3.28-10.21,3.53-22.37,3.01-.7.61-1.35,1.16-1.99,1.72l.21-.08c-3.31.26-7.15.27-9.81.83-8.05,1.71-15.06,2.5-22.77,2.4-2.73-.04-8.48.82-11.16,1.61-8.78,2.55-17,3.23-25.59,3.25h.24c-5.93,1.26-11.81,3.41-17.85,2.27l.24.02c-9.53,1.41-19.05,2.83-28.41,4.22-1.32-.78-2.19-1.29-2.73-1.6-2.66.07-5.11.13-7.47.19-2.43.09-4.82.21-7.23.35-3.19.2-7.26.31-9.79.97-3.23.81-5.36,2.04-7.96,3.09l.19-.08c-4.14.62-8.35,1.53-12.25,1.95-15.02,1.72-29.25,4.68-43.09,8.1l.22-.1c-1.84.74-3.68,1.49-4.34,1.75-3.78.14-6.98-.05-8.51.34-2.15.57-4.4,1.83-4.24,2.4.21.78,2.66,1.18,4.27,1.78-2.13.41-3.2.68-4.16.78-13.9,1.51-25.85,3.73-35.68,7.17.84-.02,1.62-.04,1.65-.04-.05,0-.72-.01-1.49-.02-2.32.57-4.62.53-7.04.58-2.42.03-4.97.06-7.83.89-2.22.63-4.62,1.22-7.15,1.69-2.54.42-5.22.78-7.99,1.06-5.55.65-11.51.68-17.54.58-1.27-.03-2.48-.01-3.61,0-1.13,0-2.18.04-3.14.12-1.91.16-3.45.48-4.48,1-4.84,2.46-9,5-5,8.16,4.21.29,8.37.57,12.5.85,4.13.18,8.25.31,12.39.43,2.85.11,5.37.19,7.6.36,2.23.17,4.16.43,5.84.75,3.35.67,5.67,1.61,7.2,2.73.96.71,1.01,1.24-.25,1.78-1.26.56-3.84,1.01-8.13,1.6.68,1.01,1.35,2.01,1.9,2.83-5.33,1.39-9.89,2.7-14.49,3.7l.2-.05c-4.42,1.19-8.88,2.47-13.35,3.6,10.04,1.95,10.09,1.89,4.7,3.54-.76-.41-1.52-.81-2.74-1.46-4.19,2.15-6.7,3.23-10.7,3.64-2,.19-4.37.25-7.51.09-3.13-.2-7.03-.56-12.09-1.04-1.35.76-3.28,1.5-4.06,2.35-2.87,3.11.26,4.1,15,4.9,3.5.19,8.56-.05,10.25.42,7.03,1.99,20.38,1.8,23.69,4.5.48.42,3.44.55,6.17.91,1.06-1.2,1.87-2.12,2.64-2.99,3.08-.43,5.79-.57,8.27-.58,2.48-.06,4.74.04,6.95.18,4.4.29,8.57.75,13.64.19.28.87.5,1.58.84,2.64,3.63-.49,7.09-.8,10.21-1.27,3.12-.45,5.96-.92,8.39-1.5,4.04-.94,6.16-2.55,9.52-4.05,2.29-.03,4.59-.06,6.88-.09,2.28-.06,4.57-.13,6.86-.19h-.2s3.62-.61,3.62-.61l-.19.07-.05-1.62-1.42-.32c.32.02.76,0,.92.07.21.08.19.22.28.33,2.53-.13,5.03-.28,7.52-.45.26-.23.52-.46.58-.51-.08.05-.43.28-.8.51,3.58-.09,7.21-.49,10.76-1.14,3.55-.65,7.08-1.53,10.57-2.53,3.77-1.09,7.19-2.05,10.28-1.46-3.03,1.03-5.95,2.02-9.81,3.33,5.85-.13,10.43-.24,14.78-.34,3.39-.85,6.46-1.45,8.6-2.19,4.17-1.45,8.48-2.71,13.07-3.89,4.56-1.14,9.35-2.13,14.41-3,3.14-.5,6.12-1.39,9.18-2.11l-.21-.02c2.68.55,5.74,1.11,6.72,1.96.49.43.45.93-.39,1.55-.84.62-2.53,1.36-5.12,2.29-8.27-1.33-18.37,2.51-27.76,3.11-2.43,2.03-5.49,3.83-2.81,5.15,2.49-.38,5.08-.68,7.57-1.02,2.48-.34,4.83-.66,6.9-1.17,1.91-.46,3.8-.91,5.7-1.33,1.89-.42,3.77-.76,5.67-1.1,3.82-.67,7.55-1.25,11.82-1.62l-.19.07c9.69,2.38,23.98.29,40.38-2.47-3.68-.35-6.48-.61-9.28-.87l.22.02c.63-.88.23-1.49-3.87-1.17l.2.02c7.03-2.46,15.69-3.02,23.99-4.01l-.28.09,3.81-.5-.22-.03,6.76-2.46-1.31-.38c.3.03.72.04.87.11.19.09.17.23.24.34l13.9-2.64-.2-.02c.09.73.19,1.47.3,2.35,11.48-1.2,21.74-2.27,32.83-3.43-2.28,3.87-14.93,4.32-23.48,5.95,1.99.33,2.78,1.31,1.84,1.86l.2-.07c7.23.04,11.76.85,11.39,3.27,2.67-1.14,3.98-1.7,5.26-2.24,4.11.06,7.83.11,12.61.18,3.44-2.07,5.4-3.89,9.54-5.55,4.58-1.83,3.09-2.83,2.06-4.01-.27-.16-.65-.3-.77-.48-.05-.08.43-.23.67-.35l-.08-.83c-1.89-.51-1.25-1.21,2.48-1.65,3.74-.44,7.48-.55,11.22-.81l-.2-.02c-2.04,1.36-5.47,2-10.01,2.06l-3.63,1.24.11.91c5.26-.23,10.34-.43,14.77-2.26,1.16-.47,4-.85,6.08-1.25l-.19.08c1.15-.98,2.41-1.03,3.74-.45l-.21-.03c7.28-1.37,9.15-2.85,8.61-4.43-.04-.12,1.58-.46,2.65-.76,1.47.5,2.91.99,4.46,1.52,2.07-.54,3.51-.91,4.95-1.28l-.2.06c.06-.27.08-.54.07-.81l-.19.07c2.34-.37,5.55-1.12,6.88-1.05,4.56.26,5.73-.53,7.03-1.48l-.74-.03.52.11c2.12.28,4.24.56,8,1.05-.24-1.99-.4-3.4-.63-5.32,7.84.35,14.14.63,20.44.91l-.24-.02c3.83-.56,7.66-1.12,10.6-1.55,2.08-1.69,3.77-3.07,5.78-4.71,3.77.13,5.69.2,7.61.27,1.52-1.69,4.25-1.44,7-.67l-7.23.62-3.26,2.07.2-.07c-.45.64-2.14,1.61-1.11,1.86,2.61.62,7.55,1.59,9.59,1.22,7.17-1.32,8.11.42,12.85.06,5.95-5.14,11.42-6.08,29.07-4.8-2.59.8-5.38,1.5-7.26,2.28-1.85.76-2.78,1.59-4.11,2.38l-.13-.05c7.64-.4,12.4-2.01,17.13-3.64l-.58-.02.37.09c4.41-1.23,9.33-2.36,13.1-3.63,3.81-1.29,1.54-1.76-3.14-1.61l.2.03-.11-.82-3.66-.46-2.62.05c.43-.05.93-.13,1.26-.13.47.01.8.09,1.19.15l3.68.45c7.37-.91,14.75-1.97,22.1-2.69,6.06-.59,13.47-1.36,17.87-1.04,11.36.83,24.28-1.48,36.26-2.05l-1.19-.86.96.92,14.63,2.46-.19.07,3.32-1.94-.14.07c1.73-1.3,3.38-2.59,5.21-3.89,2.43-1.72,6.63-2.33,12.09-2.01l-.2-.03,7.53,3.37-.26-.04ZM4895.56,801.93c-1.15.12-2.29.24-3.43.36l.21.02,3.06-.31,3.95-.45-.17-.03-3.62.41ZM4771.28,815.15l-.2-.02.2.02ZM4777.68,810.28l-.19-.02.19.02ZM5690.4,702.14l.62-.13.37-.15-.6.11-.39.17ZM4618.78,776.87s-.34-.16-.63-.3l-.2.08c.39.11.78.21.83.23ZM5705.28,711.74c-12.83,1.14-26.28,1.38-38.63,3.65-3.97.73-10.62.5-19.59.84,5.96-1.47,9.28-2.82,12.61-3.01,15.21-.82,31.16-3.12,45.43-1.42l3.96-.21c.25-.25.32-.51.84-.73.27-.12,1.33-.16,2.04-.24-.21.12-.31.26-.65.35-.74.2-1.59.39-2.39.58l-3.62.18ZM4486.25,827.76c.09.05-.53.21-.83.32-.16-.32-.31-.64-.47-.96l-.18.05c.51.19,1.1.37,1.48.58ZM4730.58,815.98c-.34.13-.93.24-1.4.36.14-.19.02-.44.46-.56.87-.25,2.06-.44,3.12-.65l-.14-.83-.18.07c3.31-.67,6.15-1.04,6.86-.07l.19-.07-6.92.88c-.65.29-1.25.59-1.97.87ZM5184.38,714.63c-5.34.84-6.39.38-5.51-1.44,2.73.77,4.03,1.13,5.34,1.5l4.09-.35c-.53-.68-1.05-1.36-1.77-2.28,7.19.26,3.08,1.39,1.58,2.25l-3.73.32ZM4669.65,826.02l-4.35.75,2.06-1.55-.19.07,2.48.74ZM4734.36,821.45c-.27-.98,2.87-1.29,5.81-1.56l-.19-.02.22,1.63h.65s-.42-.08-.42-.08c-3.08.65-5.8.98-6.06.04ZM4799.21,811.91c-1.46-.78-2.78-1.49-4.1-2.19-.55.04-1.27.15-1.63.12-1.88-.19-3.67-.37-5.49-.55l2.27-.75c1.5.29,3.03.58,4.45.89.28.06.12.24.16.37q10.61-1.15,4.33,2.11ZM5575.49,703.16c-.77.48-1.32,1.3-2.35,1.39-4.4.42-8.94.62-15.03,1,4.7-2.55,10.89-2.63,17.58-2.36l-.2-.03ZM5309.48,752.56c4.24,1.18,1.91,2.26-2.36,2.7-8.17.85-16.63,1.95-26.31,1.99,2.29-.94,3.83-1.58,5.37-2.21l-.19.06c8.27-.15,16.52-.34,23.49-2.54ZM5505.99,704.47c-21.79,1.68-43.6,2.84-65.39,5.06-11.17,1.11-22.89,1.35-34.31,1.86-2.27.1-4.3-.36-8.82-.78,5.97-.72,9.14-1.26,12.26-1.45,6.34-.39,11.49-.78,17.42-2.25,4.61-1.14,13.63-1.9,19.67-1.92,12.89-.08,25.17-1.12,37.46-2.67,22.36-2.8,42.57-2.19,63.48-2.21-13.2,2.59-27.74,3.31-41.76,4.36ZM5589.69,701.49c7.61-.7,15.23-1.39,22.96-2.1,7.74-.65,15.59-1.31,23.65-1.99.82.91,1.46,1.62,2.15,2.38-7.25.98-13.82,1.86-20.84,2.8-1.07-.67-1.94-1.22-3.23-2.03-2.38.78-4.09,1.81-6.35,2.02-5.96.56-12.18.85-18.23,1.07-1.8.07-3.35-.45-5.88-.83,2.33-.55,3.9-1.16,5.76-1.33ZM5669.17,698.93c-2.49,2.62-7.79,2.76-14.29,2.37,4.08-.68,8.16-1.35,14.29-2.37ZM4596.85,833.75c.16-.23.23-.45.55-.69.1-.08,1.24-.31,1.29-.29.35.11.53.27.77.41-.87.19-1.74.38-2.61.58ZM4420.62,843.7c-.39-.22-.91-.44-1.09-.66-.07-.08.92-.24.99-.23.82.15,1.57.33,2.24.49-.71.13-1.43.27-2.14.41ZM4623.68,837.54c-.03.12.05.32-.12.36-.82.19-1.72.34-2.59.51.04-.13.07-.25.1-.37l2.61-.5ZM4520.9,847.36c.08.1.39.23.18.3-.58.19-1.37.35-2.08.52l-.19-.3c.69-.17,1.39-.34,2.09-.51ZM4721.36,766.59c.6-.17,1.16-.36,1.82-.48.31-.06.82.02,1.24.04l-1.48.3-1.58.15ZM4923.47,798c-.32,0-.41-.14-.6-.22.43-.08.97-.23,1.25-.23.32,0,.41.14.6.22-.43.08-.96.23-1.25.23ZM4682.78,826.26c.13.05-.22.21-.35.32-.31-.09-.62-.18-1.04-.31.65-.01,1.24-.07,1.4-.02ZM5384.55,711.98l-1.02.18.08-.24.94.06Z"/>
    <path d="M5779.24,725.69l8.24,1.79c-8.16.47-7.83-.73-8.02-1.84l-.22.05Z"/>
    <path d="M4899.46,741.14c-2.21.44-3.44.76-4.69.9-.73.08-2.21-.16-2.09-.21.68-.34,1.71-.86,2.66-.97,1.07-.12,2.18.13,4.13.28Z"/>
    <path d="M4843.05,742.32l10.4-1.26-.2-.03c-3.46,1.88-4.04,1.95-10.02,1.22l-.18.06Z"/>
    <path d="M5781.18,672.35c-.91.11-1.97.33-2.67.31-.7-.03-1.04-.3-1.54-.47.93-.11,1.98-.32,2.75-.3.66.02.99.3,1.46.46Z"/>
    <polygon points="5736.16 699.6 5732.12 699.19 5735.97 699.66 5736.16 699.6"/>
    <path d="M5616.59,684.48l6.13-.87c.07.22.13.44.2.65l-6.55.19.22.04Z"/>
    <path d="M4815.7,750.46l-.59.41c-.86-.02-1.76-.03-2.54-.08-.11,0,.35-.25.54-.39.86.02,1.73.04,2.59.06Z"/>
    <path d="M4857.17,743.04c-.45.29-.83.59-1.39.87-.24.13-.88.24-1.34.36-.04-.18-.42-.41-.05-.53.79-.26,1.98-.46,3-.68l-.22-.02Z"/>
    <path d="M4667.66,767.55c-.44.1-.98.26-1.29.27-.31,0-.39-.14-.57-.22.44-.1.99-.26,1.28-.27.32,0,.39.14.58.22Z"/>
    <path d="M5046.82,717.67c-.63.2-1.21.41-1.94.57-.29.06-1.35.04-1.34,0,.1-.19.4-.4.64-.6.88,0,1.75.01,2.63.02Z"/>
    <path d="M4781.53,756.14l-4.91.1,4.58-.85-.18-.03c.09.29.18.58.27.86l.24-.09Z"/>
    <path d="M4688.29,768.88l-.6-.92c.12.3.24.61.36.92h.24Z"/>
    <path d="M4781.2,755.4c.91-.26,1.78-.54,2.75-.78.45-.11,1.08-.17,1.62-.26-.39.19-.66.44-1.19.54-1.04.2-2.23.32-3.36.47l.18.03Z"/>
    <path d="M5616.36,684.44c-.73,1.12-3.59,1.29-7.16,1.18l.16.04,7.22-1.18-.22-.04Z"/>
    <path d="M4857.39,743.06c.23-.28.26-.57.78-.85.26-.14,1.41-.26,2.16-.39-.2.14-.29.3-.64.42-.77.27-1.68.53-2.53.8l.22.02Z"/>
    <path d="M5623.3,734.28c-.33-.15-.52-.24-.71-.32l1.26-.18c-.16.15-.32.29-.55.5Z"/>
    <path d="M4853.45,741.06c.62-.26,1.2-.53,1.89-.79.32-.12.86-.22,1.3-.33-.15.18-.08.4-.5.51-.82.23-1.91.39-2.89.58l.2.03Z"/>
    <path d="M4832.74,741.97l-.55.35c-.41,0-1.04.04-1.18-.02-.12-.05.3-.22.49-.34h1.25Z"/>
    <path d="M4915.99,729.92l-.57.36c-.43,0-1.07.04-1.23-.02-.13-.05.32-.23.5-.34h1.3Z"/>
    <polygon points="5285.19 703.38 5286.69 702.69 5287.8 702.97 5284.96 703.34 5285.19 703.38"/>
    <path d="M5737.52,728.63c-.82-.05-1.44-.09-1.53-.09.1.01.62.07,1.35.15l.18-.06Z"/>
    <path d="M5737.34,728.68c.76.03,1.52.05,1.79.06-.23-.02-.92-.07-1.61-.12l-.18.06Z"/>
    <polygon points="5267.01 695.24 5267.51 695.03 5266.77 695.2 5267.01 695.24"/>
    <path d="M4843.23,742.26l-.18.06.18-.06Z"/>
    <path d="M4989.04,726.66l-.19.07.19-.07Z"/>
    <path d="M4988.85,726.73l.19-.07-.19.07Z"/>
    <path d="M5657.58,672.44l.2-.06-.2.06Z"/>
    <path d="M4868.27,745.83l-.2-.02.2.02Z"/>
    <path d="M4906.4,741.49c-.26-.16-.63-.31-.75-.5-.05-.08.43-.23.66-.35h-.18s.1.9.1.9l.17-.05Z"/>
    <polygon points="4670.67 771.16 4671.08 770.98 4670.44 771.14 4670.67 771.16"/>
    <path d="M4868.07,745.8l.2.02-.2-.02Z"/>
    <polygon points="4875.29 745.83 4878.75 745.42 4878.94 745.35 4875.11 745.81 4875.29 745.83"/>
    <path d="M4875.11,745.81l.18.02-.18-.02Z"/>
    <path d="M4885.69,745.49l-.19-.02.19.02Z"/>
    <path d="M5735.97,699.66l.2-.05-.2.05Z"/>
    <path d="M5803.1,710.03l-.23.06.23-.06Z"/>
    <path d="M5796.25,720.07l.19-.05-.19.05Z"/>
  </g>
  <g>
    <path d="M4571.67,834.63c.41-2.03-.99-2.15-2.06-2.6l-.26.78-.48-.64-.04.06.84-.15-1.54-3.61.05.05c-1.19-1.3-2.45-3.04-3.2-4.58-.76-1.54-1.09-2.87-.67-3.32,1,.12,1.86.22,3.07.37-.27-2.15-.49-3.95-.72-5.74l.05.04c-.68-.51-1.39-.86-2.08-1.29l.06.04c-1.87-.64-1.21-2.03-1.01-3.3l.06.03c-2.18,0-3.61-.84-3.88-3.36-.1-.96-.38-1.97-.8-2.84-.83-1.71-.76-3.2.2-4.74.18-.29.11-.75.17-1.23-.85-.28-1.61-.53-2.16-.71-.78-1.33-1.52-2.48-2.18-3.67-.9-1.66-1.86-3.27-2.59-4.98-.72-1.71-1.24-3.49-1.35-5.47-.05-1.04-.6-2.14-1.12-3.1-2.43-4.35-5.16-8.5-7.64-12.79-1.63-2.87-2.82-6.01-4.23-8.92.48-.75.85-1.32,1.67-2.6-2.71,1.39-3.42-.23-4.15-1.57-1.14-2.16-2.4-4.29-3.58-6.44-1.24-2.13-2.47-4.27-3.76-6.39-1.34-2.17-2.61-4.37-4.02-6.53l.07.02c-1.3-.58-2.07-1.57-2.75-2.66-.69-1.08-1.27-2.26-2.12-3.22-.94-1.08-1.84-2.28-2.78-3.4-.95-1.12-1.9-2.18-3.1-2.9-2.2-1.35-4.02-2.77-5.58-4.74-1.39-1.79-2.93-2.05-5.12-1.45,1.2,1.33,2.05,2.42,3.13,3.71-1.65-.22-3.02-.59-4.16-1.28-1.16-.69-2.05-1.71-2.69-3.26-.38-.97-1.51-1.7-2.38-2.44-.9-.75-1.87-1.38-2.85-2.05l-3.42-2.36c-1.15-.78-2.35-1.52-3.52-2.28-.47-.3-1.25-.65-1.3-.99-.21-1.33-.95-2.17-1.86-2.79-.91-.63-1.99-1.05-2.99-1.57-1.38-.71-2.75-1.31-4.14-2.01-1.39-.7-2.63-1.58-3.72-2.92-.51-.6-1.73-.84-2.64-1.13-1.51-.5-3.16-.83-4.76-1.18l.03.06c.87-.38,1.74-.76,2.78-1.19-.82-1.14-1.48-2.02-2.15-2.9h.08c-.16,1.49-1.19,2.53-2.65,2.87-1.13.28-2.67-.23-4.02-.36l.07-.02c-.73-.19-1.86-.11-2.25-.49-1.82-1.78-2.77-1.98-3.36-.4-.41,1.07-.53,2.24-.6,2.55-1.61,1.23-3.45,1.2-5.22,1.19-1.83.08-3.61.23-4.77,1.73.91.63,1.63,1.53,2.49,1.71,2.97.61,5.86,1.27,8.64,2.17l-.07.03c.29-.05.63-.21.86-.12,4.33,1.81,8.51,3.82,11.93,6.6,1.56,1.35,3.44,3.22,3.11,6.19-3.02-2.07-5.92-3.58-8.75-5.23-1.46-.77-2.57-.72-3.55.5-.41.51-.73,1.11-1.08,1.67l.06-.02c-.33.22-.73.37-.96.67-.73.96-1.56,2.05-.86,3.22.64,1.06,1.75,1.17,2.94.57,1.73-.81,2.81.32,3.87,1.35,1.15,1.23,2.32,2.37,3.27,3.51-1,1.82-1.96,3.57-2.93,5.34-.34-.23-.7-.36-.89-.62-.51-.68-1.03-1.33-1.57-2-.54-.66-1.09-1.33-1.7-1.89-.6-.58-1.24-1.15-1.92-1.66-.69-.47-1.43-.89-2.21-1.24-.75-.36-1.25-1.31-1.85-2.03-.66-.79-1.27-1.7-1.93-2.42-1.48.32-2.78.65-3.72,1.54-.94.85-1.49,2.09-1.58,3.98.28.47.52.96.77,1.42.25.49.5.98.78,1.4.42.63.85,1.27,1.29,1.91.43.65.88,1.25,1.38,1.73,2.05,2.08,4.48,3.58,6.4,6.06.5.59,1.03,1.19,1.59,1.76.56.57,1.16,1.06,1.76,1.62,1.2,1.11,2.46,2.12,3.59,3.37,1.21,1.25,2.36,2.65,3.46,4.04,1.31,1.78,2.55,3.6,3.74,5.5v-.06s-2.45,3.41-2.45,3.41l.02-.06c.75.08,1.5.2,2.26.26.41.03.87-.08,1.31-.13l-.33-1.49h-.05s.33,1.5.33,1.5c1.72-.16,2.77.55,3.59,1.9,1.63,2.56,3.4,5.06,5.13,7.6,2.74,3.96,5.4,8.05,7.88,12.27.17.29.4.56.48.88.53,1.93.99,3.92,1.47,5.85.44,1.96.82,3.93,1.06,5.92.25,2.44,1.62,4.05,3.02,5.76.48.58,1.16,1.02,1.77,1.54-1.19,2.04-1.27,3.6.21,5.15,1.47,1.56.66,3.97.92,5.94.02.14-.34.36-.52.55l.04-.06c.11,1.82,1.8,2.04,3.93,2.59-.43,1.18-.9,2.34-1.23,3.18.06-.02.93-.33,1.8-.65.35,1.29,1.43,2.25.89,3.99-.36,1.19-.17,2.88,1.77,3.57,1.11.4,1.28,1.43.52,2.39-1.32-.17-2.3-.58-3.02-1.2-.74-.61-1.24-1.41-1.57-2.37-.21-.6-.76-1.07-1.04-1.64-1.06-2.01-2.4-3.93-2.98-6.08-.48-1.86-1.43-3.32-2.62-4.74-1.21-1.5-2.99-2.82-3.46-4.56-1.57-5.75-5.39-10.31-8.12-15.35-.7-1.25-2.51-1.74-2.45-3.54.01-.28-.65-.6-1.08-.62-1.08-.04-1.77-.41-2.27-.95-.52-.53-.84-1.23-1.17-1.97-.28-.64-.88-1.09-1.28-1.67-1.27-1.69-2.57-3.38-3.75-5.09-2.82-4.19-6.84-7.17-9.06-11.47-.04-.08-.14-.13-.2-.19-.87-.91-1.75-1.82-2.63-2.64l-1.31-1.28-1.32-1.18h.05c-.87.16-1.85.29-2.33,1.45-.42,1.03-.39,1.93.3,2.46.57.41.82,1.29,1.33,1.83.19.2.72.06,1.09.08h-.05c1.32,1.67,2.62,3.4,3.91,5.22.11.15.28.24.42.36,1.8,1.68,3.73,3.35,5.34,5.36,2.18,2.75,2.8,6.58,5.81,8.89.07.06.05.2.1.29,1.18,1.85,2.29,3.78,3.41,5.7.86,1.61,2.15,2.92,2.41,4.92.21,1.63,1.19,3.03,2.01,4.44.45.74,1.27,1.44,2.2,1.7,2.63.75,4.5,2.06,4.83,4.72.14,1.12.42,2.18.84,3.19.4,1.02.93,1.98,1.58,2.9,1.01,1.38,1.44,3.04.86,4.9l.03-.06c.18.6.37,1.19.53,1.8.44,1.57,1.53,3.13,1.2,4.7-.56,2.6.58,4.25,2.23,5.78,1.02.93,1.58,1.97,1.59,3.25.02,1.5.63,2.69,1.57,3.91.83,1.07,1.51,2.65,1.24,3.89-.46,1.57.38,2.74.38,4.14,0,.61,1.11,1.15,1.9,1.62.67.42,1.53.71,2.3,1.05-.28.82-.51,1.52-.78,2.31,1.4.32,2.48.66,2.93,1.78.16.39.41.72.73.99.31.28.67.51,1.11.69.86.35,1.95.51,3.11.5.58,1.99,3.37,3.71.88,5.92-.09.08.14.34.19.52.39,1.33.68,2.69,1.2,4.01.32.79.5,1.26-.37,2.07-.81.78-1.19,2.2-1.11,3.31.07,1.16-.02,2.13-.78,3.13-.71.93-.65,1.91.96,2.55l-.03.03.91.07-.03-.03c.61.07,1.22.14,1.9.22-.26,1.36-.48,2.54-.71,3.71l.05-.03-.97,1.15-.05-.04c1.11.34,1.9.78,1.56,1.9-.43,1.46-.86,2.94-1.29,4.4-1.48-.1-3.2-1.32-4.54.27,4.32,1.11,5.05,1.94,4.11,5.19-.59,1.84-.5,4.05-2.97,5.05-.28.11-.33.55-.49.83l-.05-.06c1.85,2.06,1.74,2.44-.78,4.16.46.26.89.5,1.31.74l-.04-.05c-.3.57-.94,1.16-.84,1.71.28,1.68-.07,2.97-1.53,4.09-.51.4-.69,1.5-.42,2.13.91,2.06.03,3.48-1.47,4.72l.05-.03c.15,1.25,1.02,2.8-1.15,3.29l.07-.03c-.44,1.83-.88,3.65-1.31,5.45-.96-.09-1.59-.15-1.98-.18-.85.79-1.66,1.42-2.35,2.13-.46.47-1.13,1.02-1.09,1.55.05.68.72,1.39,1.12,2.1l-.03-.05c-.31.73-.48,1.55-.96,2.16-1.91,2.37-2.81,5.09-3.01,8.11l-.03-.07c.23.52.47,1.05.55,1.24-.76.5-1.72.8-1.7,1.16.01.5.63,1.31,1.17,1.53.74.3,1.66.16,2.58.21-.13.44-.13.68-.26.85-1.83,2.38-2.24,4.99-.88,7.98.13-.14.26-.26.26-.27-.01,0-.14.1-.29.22.18,1.2-1.77,1.33-1.19,2.98.89,2.55.39,5.1-1.15,7.25-.64.91-.76,1.83.02,2.7,1.82,2.04,3.77,3.98,6.94,4.55,1.18-1.45,2.39-2.83,3.48-4.29,1.47-2.02,3.59-2.48,6.12-2,1.58.3,1.94.88,1.89,2.92.99.32,1.99.63,2.79.89.57,1.57,1.06,2.9,1.55,4.23l-.02-.06,1.84,4.1c2.76-1.08,2.77-1.09,3.65.63-.45-.03-.9-.07-1.61-.12,3.15,3.54,3.15,3.94.31,7.45.61.62,1.18,1.36,1.89,1.9,2.64,1.97,3.7,1.73,5.22-1.1.36-.67.62-1.76,1.16-1.91,2.23-.62,3.61-3.16,6.37-2.63.4.08.91-.4,1.59-.72-.94-.71-1.66-1.25-2.35-1.77.08-2.94,3.37-2.89,4.28-4.93.83.33,1.5.6,2.52,1,.49-1.53,1.14-2.82,1.08-4.04-.05-1.02-.99-1.99-1.61-3.12.95-.68,1.91-1.37,2.87-2.06l-.06.02.32-.75.02.06-1.46-.67-.62.06c.09-.04.19-.1.28-.1.12,0,.24.06.36.1l1.42-1.22c-.14-.13-.28-.26-.31-.29.02.03.14.18.26.32,1.59-1.08,2.04-2.7,2-4.5-.02-.98-.01-1.85,1.3-2.06.15.85.3,1.67.49,2.75,1.37-.9,2.45-1.61,3.47-2.27.09-.85.34-1.55.21-2.16-.53-2.42-.44-4.77.28-7.14.22-.74.05-1.59.06-2.39l-.06.03c2.21-.54,4.51-1.34,5.6,1.91-3,1.01-1.78,4.22-3.55,5.97,1.25,1.18,2.12,2.4,3.97,2.47.54-1.12,1.44-2.19,1.5-3.3.1-2.04.41-3.92,1.42-5.7l.03.06c4.16-.9,5.07-4.37,5.78-8.4-1.06.58-1.87,1.02-2.67,1.46l.06-.03c-.69-.41-1.35-.55-1.86.33l.06-.03c-.91-2.16.34-3.92,1.01-5.84l.03.08.26-.9-.07.03-1.01-2.09-.61.13c.09-.05.18-.13.27-.13.12,0,.24.04.37.06l.17-3.51-.06.03c.71.2,1.42.41,2.28.66.51-1.32.99-2.56,1.47-3.8.44-1.27.87-2.52,1.32-3.82,3.26,1.53,1.46,4.35,1.35,6.52.69-.3,1.76-.17,2.11.18l-.03-.06c1.42-1.44,2.99-2.19,5.22-1.42-.6-.9-.89-1.34-1.17-1.76.8-.87,1.53-1.65,2.47-2.66-1.34-1.3-2.73-2.21-3.57-3.53-.92-1.46-2.15-1.39-3.46-1.48-.2.02-.4.06-.6.04-.08,0-.14-.15-.22-.23l-.81-.2c-.83.26-1.39-.05-1.14-.94.25-.9.83-1.69,1.21-2.57l-.06.04c.97.78.97,1.67.2,2.63l.53,1.08.89.21c.72-1.17,1.48-2.29.46-3.72-.26-.37-.12-1.08-.16-1.63l.04.06c-.76-.49-.6-.77.19-.93l-.06.04c-.11-1.92-1.24-2.67-2.85-2.9-.12-.02-.18-.45-.3-.75.73-.21,1.45-.42,2.21-.64-.18-.57-.3-.97-.42-1.36l.03.06c-.26-.07-.51-.13-.77-.19l.03.06c.03-.59-.17-1.45.12-1.73,1.01-.95.4-1.39-.31-1.86l-.14.16.19-.09c.6-.43,1.2-.85,2.27-1.61-1.98-.33-3.37-.56-5.28-.87,1.55-1.71,2.8-3.08,4.05-4.45l-.06.05c.04-.97.08-1.94.11-2.69-1.36-.74-2.48-1.34-3.8-2.05.65-.86.98-1.29,1.31-1.73-1.45-.59-.84-1.19.3-1.73l-.38,1.78,1.59,1.06-.04-.06c.57.2,1.29.74,1.68.53.97-.53,2.61-1.58,2.52-2.12-.31-1.9,1.53-1.91,1.83-3.12-2.13-1.03-3.23-1.89-3.35-3.01-.09-1.11.71-2.52,2.43-4.69.47.72.82,1.48,1.36,2.03.52.54,1.22.85,1.85,1.27l-.06.03c.56-1.99-.45-3.36-1.47-4.68l-.09.15.14-.09c-.66-1.22-1.2-2.54-2.02-3.57-.83-1.04-1.57-.48-1.97.7l.05-.05-.83-.02-.89.89-.28.65c0-.11-.02-.24.03-.32.07-.11.19-.19.29-.29l.88-.89c-.07-1.91-.18-3.79-.19-5.71.03-1.57.02-3.49.78-4.64.98-1.48,1.23-3.09,1.3-4.71.04-1.63-.2-3.28,0-4.89l-.95.37.99-.31c1.19-1.37,2.38-2.77,3.56-4.2l.05.05-1.67-.77.06.03c-1.15-.37-2.27-.72-3.46-1.1-.76-.25-1.21-.65-1.38-1.17-.2-.52-.13-1.17.19-1.94l-.04.06c1.26-.82,2.52-1.65,3.77-2.5l-.06.08ZM4568.71,878.42c-.03.29-.07.58-.12.87l.05-.05.11-.77.1-1-.05.04-.09.92ZM4562.02,908.72l-.06.04.06-.04ZM4558.5,906.18l-.05.03.05-.03ZM4470.3,725.55h-.16s-.14.06-.14.06h.15s.16-.06.16-.06ZM4497.74,922.13s-.22-.02-.41-.03l.03.05c.18,0,.35-.02.38-.02ZM4474,715.38c1.33.7,2.58,1.59,3.81,2.45,1.23.86,2.57,1.58,4.16,1.94,1.02.23,1.78,1.7,3.19,3.21-1.78-.11-3.14.27-3.7-.24-1.26-1.17-2.85-2.05-4.22-3.12-1.35-1.1-2.59-2.29-3.18-4.25l-.73-.55c-.19.15-.35.35-.57.44-.11.05-.31-.1-.47-.16.1-.06.2-.15.31-.17.24-.04.48-.04.73-.05l.67.51ZM4514.54,960.23c.06,0,.11.18.16.28l-.94-.34.02.05c.25,0,.5-.02.75,0ZM4555.5,917.08c.06.1.06.25.08.38-.16-.08-.41-.13-.45-.25-.08-.24-.03-.52-.04-.79l-.82-.22.03.05c-.01-.82.13-1.49,1.18-1.35l-.03-.06c-.13.54-.26,1.08-.42,1.6.16.21.33.41.46.63ZM4505.44,821.8c.67.85.19,1.21-1.5,1.58.8-.8,1.18-1.18,1.56-1.56l-.25-.74c-.65.32-1.31.64-2.2,1.08.4-1.56,1.38-1.07,2.17-1.03l.22.67ZM4553.23,931.64l-.17,1.04-1.04-.91.03.06,1.18-.2ZM4561.39,917.95c-.98-.23-.68-.94-.42-1.61l-.06.03,1.59.42.13-.13-.17.06c.08.82-.12,1.46-1.07,1.23ZM4563.71,902.06c-1,.13-1.9.25-2.79.36-.05.13-.07.3-.16.37-.47.36-.96.68-1.44,1.02l-.34-.65c.53-.24,1.05-.5,1.59-.72.1-.04.25.03.38.05.63-2.51.64-2.52,2.76-.43ZM4483.37,745.97c.43-.16,1.1-.58,1.26-.44.7.6,1.26,1.34,2.07,2.3-2.36.69-2.95-.43-3.32-1.92v.06ZM4540.61,779.52c.97-1.54,2.01-1.41,2.51-.52.96,1.7,2.19,3.37,2.39,5.8-.91-.21-1.52-.35-2.12-.48l.06.02c-.28-2-.68-3.98-2.84-4.82ZM4489.7,758.94c2.8,3.42,5.06,7.25,7.97,10.68,1.44,1.8,2.23,4.13,3.1,6.32.18.43-.14,1.09-.32,2.25-.86-.91-1.45-1.31-1.74-1.87-.57-1.15-1.16-2.02-2.67-2.51-1.17-.38-2.19-1.86-2.51-3.09-.33-1.31-.88-2.47-1.6-3.49-.74-1-1.64-1.88-2.63-2.69-3.65-2.86-4.34-7.26-6-11.27,1.54.45,2.71,1.31,3.69,2.35.99,1.03,1.85,2.19,2.72,3.31ZM4480.85,744.34c-1.22-.97-2.41-1.97-3.66-2.91-1.23-.96-2.48-1.93-3.79-2.85.55-.8.97-1.42,1.43-2.09,1.45.6,2.78,1.16,4.17,1.82-.37.66-.68,1.21-1.13,2,.8-.1,1.71-.48,2.08-.2,1,.73,1.77,1.77,2.5,2.78.22.3-.03.94-.08,1.67-.63-.08-1.22.02-1.52-.21ZM4470.85,731.69c2-1.55,2.72-.68,3.21.76-.92-.22-1.83-.43-3.21-.76ZM4544.46,946.87c-.17-.11-.35-.21-.49-.35-.04-.05.03-.3.06-.3.19,0,.38.03.56.05l-.14.61ZM4522.2,979.73c-.22-.01-.45,0-.66-.05-.07-.02-.17-.3-.15-.31.18-.11.38-.19.56-.27l.25.64ZM4554.35,944.03c.1.05.3.11.3.16-.02.21-.09.43-.14.64l-.31-.16.16-.64ZM4538.4,963.25c.11.03.29.04.3.1.05.17.04.35.05.53l-.31-.1-.04-.53ZM4507,904.24c-.05-.14-.14-.28-.14-.41,0-.06.16-.12.25-.18l.02.31-.13.28ZM4568.54,871.24c-.04.08-.19.09-.29.13-.03-.11-.11-.26-.07-.33.04-.08.19-.09.29-.13.03.11.11.26.07.33ZM4556.06,929.33c.07,0,.15.11.23.17-.15.03-.29.05-.49.09.12-.12.18-.25.26-.26ZM4502.12,780.26l.19.14-.21.1.03-.23Z"/>
    <path d="M4466.41,690.49c-.43-1.01-.94-2-1.47-2.99,1.24.44,1.68.94,1.76,1.45.09.51-.16,1.03-.37,1.54h.08Z"/>
    <path d="M4509.21,870.87c.15.41.31.65.28.87-.01.13-.44.35-.48.32-.25-.15-.63-.37-.61-.54.02-.19.41-.35.82-.65Z"/>
    <path d="M4502.79,880.04l.27-1.81-.05.03c1.34.83,1.33.94-.25,1.75l.04.04Z"/>
    <path d="M4444.3,738.85c.11-.04.3-.14.35-.04.05.09-.03.38-.06.57-.12.01-.3.11-.35.02-.05-.08.04-.35.07-.55Z"/>
    <polygon points="4462.42 720.28 4462.8 721.24 4462.48 720.26 4462.42 720.28"/>
    <polygon points="4466.12 751.08 4464.99 750.67 4465.43 750.18 4466.11 751.14 4466.12 751.08"/>
    <path d="M4506.76,885.77l.3.17c-.15.13-.3.27-.47.38-.02.02-.19-.11-.29-.16l.46-.39Z"/>
    <path d="M4505.53,877.95c.22.12.45.22.66.35.09.06.11.18.16.27-.18-.02-.47,0-.53-.07-.14-.17-.16-.38-.23-.58l-.05.03Z"/>
    <path d="M4498.31,912.29c0,.09.06.22.01.27-.05.05-.2,0-.31,0,0-.09-.06-.22-.02-.27.05-.05.21,0,.31,0Z"/>
    <path d="M4501.2,846.55c.15.08.32.15.42.25.04.04-.06.22-.09.22-.18,0-.37-.02-.55-.03l.22-.43Z"/>
    <polygon points="4507.03 892.33 4506.35 893.11 4506.26 892.21 4506.2 892.23 4507.07 892.39 4507.03 892.33"/>
    <polygon points="4503.32 909.8 4502.35 909.59 4503.28 909.83 4503.32 909.8"/>
    <path d="M4506.26,892.21c-.11-.2-.24-.4-.33-.6-.04-.09,0-.21,0-.31.12.1.33.2.34.31.03.21-.04.42-.07.62l.05-.02Z"/>
    <path d="M4466.11,751.14c.86-.66,1.23-.3,1.43.39l.02-.06-1.44-.39v.06Z"/>
    <path d="M4505.58,877.92c-.25-.08-.52-.13-.72-.25-.1-.06-.06-.26-.08-.4.11.05.25.09.32.16.16.16.29.35.43.52l.05-.03Z"/>
    <path d="M4501.02,715.11c-.06.18-.1.28-.13.38l-.3-.15c.13-.07.25-.13.43-.23Z"/>
    <path d="M4503.05,878.23c-.17-.14-.35-.27-.5-.42-.07-.07-.09-.17-.14-.25.15.05.38.07.43.16.1.16.11.36.15.54l.05-.03Z"/>
    <path d="M4500.96,881.55l.26.15c-.06.06-.11.16-.19.17-.07,0-.17-.09-.26-.13l.19-.19Z"/>
    <path d="M4500.16,867.24l.29.11c-.05.07-.09.17-.17.19-.06.02-.19-.07-.28-.1l.17-.2Z"/>
    <polygon points="4496.12 804.9 4495.49 804.87 4495.74 804.53 4496.08 804.97 4496.12 804.9"/>
    <path d="M4477.63,695.52c.15.2.26.35.28.37-.02-.03-.1-.18-.21-.39h-.07Z"/>
    <path d="M4477.7,695.51c-.15-.17-.3-.34-.35-.4.04.06.16.23.28.41h.07Z"/>
    <polygon points="4488.59 811.75 4488.4 811.73 4488.55 811.82 4488.59 811.75"/>
    <path d="M4502.75,880l.04.04-.04-.04Z"/>
    <path d="M4504.97,855.44l.04.03-.04-.03Z"/>
    <path d="M4505.01,855.47l-.04-.03.04.03Z"/>
    <path d="M4454.49,753.4h-.05s.05,0,.05,0Z"/>
    <path d="M4509.78,876.57l-.05.03.05-.03Z"/>
    <path d="M4510.47,869.74c-.2.03-.39.08-.59.08-.08,0-.17-.09-.26-.14l-.03.03.91.07-.03-.03Z"/>
    <polygon points="4502.24 913.06 4502.14 912.94 4502.17 913.08 4502.24 913.06"/>
    <path d="M4509.73,876.6l.05-.03-.05.03Z"/>
    <polygon points="4510.7 875.41 4510.74 874.79 4510.69 874.75 4510.65 875.44 4510.7 875.41"/>
    <path d="M4510.65,875.44l.05-.03-.05.03Z"/>
    <path d="M4511.71,873.64l-.05.03.05-.03Z"/>
    <path d="M4462.48,720.26l-.06.02.06-.02Z"/>
    <path d="M4454.67,701.47l.07-.03-.07.03Z"/>
    <path d="M4459.81,692.99l-.07.02.07-.02Z"/>
  </g>
  <text/>
  <text/>
</svg>